{"glyphs":{"0":{"ha":861,"x_min":69,"x_max":792,"o":"m 431 928 q 315 928 431 928 q 200 486 200 928 q 431 44 200 44 q 661 486 661 44 q 431 928 661 928 m 163 124 q 116 194 163 124 q 69 486 69 264 q 163 848 69 708 q 431 988 257 988 q 698 848 604 988 q 792 486 792 708 q 698 124 792 264 q 431 -15 604 -15 q 163 124 257 -15 z "},"1":{"ha":579,"x_min":69,"x_max":510,"o":"m 510 15 q 503 1 510 7 q 490 -6 497 -6 l 299 0 l 96 -6 q 75 15 75 -6 q 93 35 75 35 l 167 38 q 217 54 194 40 q 239 94 239 68 l 239 865 q 182 919 239 919 q 176 919 179 919 l 85 915 q 69 933 69 915 q 89 954 69 951 l 336 988 q 357 972 357 988 l 357 94 q 419 38 357 43 l 493 35 q 510 15 510 35 z "},"2":{"ha":721,"x_min":56,"x_max":636,"o":"m 592 0 l 72 0 q 56 15 56 0 l 56 28 q 63 51 56 40 q 215 274 125 149 q 351 466 306 400 q 433 612 397 532 q 469 766 469 692 q 427 887 469 840 q 312 933 385 933 q 198 888 239 933 q 139 782 157 842 q 110 757 132 757 q 93 765 100 757 q 86 782 86 772 l 86 892 q 158 955 86 922 q 322 988 231 988 q 524 921 450 988 q 599 749 599 854 q 565 612 599 682 q 488 488 532 542 q 351 322 444 433 q 190 118 258 210 l 533 118 q 592 140 581 118 q 618 161 604 161 q 636 135 639 161 l 629 44 q 617 12 628 24 q 592 0 606 0 z "},"3":{"ha":656,"x_min":56,"x_max":572,"o":"m 310 529 q 496 456 419 521 q 572 298 572 390 q 528 142 572 206 q 411 44 483 79 q 97 -28 265 -28 q 61 1 61 -28 q 71 20 61 11 q 97 31 81 29 q 344 104 249 43 q 439 282 439 165 q 376 421 439 371 q 199 472 313 471 q 156 497 156 472 q 171 521 156 511 q 359 665 306 599 q 413 795 413 731 q 376 897 413 860 q 287 933 340 933 q 200 913 233 933 q 152 870 167 892 q 117 804 138 849 q 78 760 97 760 q 62 768 68 760 q 56 783 56 776 l 56 893 q 123 956 56 924 q 292 988 190 988 q 469 940 394 988 q 543 800 543 893 q 461 639 543 713 q 310 529 401 585 z "},"4":{"ha":749,"x_min":14,"x_max":707,"o":"m 707 299 q 682 269 707 269 l 579 269 l 579 29 q 550 0 579 0 l 492 0 q 463 29 463 0 l 463 269 l 31 269 q 14 285 14 269 l 14 303 q 21 326 14 317 l 485 967 q 521 988 500 988 l 547 988 q 572 980 565 988 q 579 954 579 972 l 579 350 l 682 350 q 707 328 707 350 l 707 299 m 463 350 l 463 826 l 140 372 q 135 356 135 363 q 146 350 135 350 l 463 350 z "},"5":{"ha":654,"x_min":69,"x_max":557,"o":"m 519 854 l 208 854 l 182 638 q 454 531 351 613 q 557 319 557 449 q 513 166 557 235 q 400 56 469 97 q 106 -28 260 -28 q 69 1 69 -28 q 106 31 69 26 q 336 115 239 46 q 433 288 433 185 q 351 452 433 392 q 131 529 269 513 q 108 537 113 531 q 106 560 103 543 l 153 957 q 169 972 156 972 l 535 972 q 546 967 542 972 q 549 957 550 963 l 539 871 q 519 854 536 854 z "},"6":{"ha":776,"x_min":83,"x_max":707,"o":"m 706 283 q 706 223 706 283 q 619 74 706 163 q 391 -15 532 -15 q 167 78 250 -15 q 83 345 83 172 q 206 705 83 518 q 533 988 328 892 q 546 989 535 989 q 569 983 557 989 q 581 959 581 976 q 560 929 581 942 q 228 507 299 772 q 413 574 301 574 q 631 489 554 574 q 706 283 707 404 m 259 109 q 284 76 259 109 q 394 43 310 43 q 530 109 479 43 q 581 281 581 175 q 529 447 581 388 q 394 506 478 506 q 260 447 311 506 q 208 281 208 388 q 259 109 208 175 z "},"7":{"ha":621,"x_min":28,"x_max":579,"o":"m 564 972 q 579 958 579 972 q 578 951 579 954 q 289 17 368 335 q 269 0 286 0 l 181 0 q 169 6 174 0 q 167 18 164 11 q 481 854 224 206 l 131 854 q 72 833 83 854 q 44 811 61 811 q 28 833 28 811 q 35 928 28 836 q 47 960 36 949 q 72 972 58 972 l 564 972 z "},"8":{"ha":728,"x_min":76,"x_max":651,"o":"m 349 -15 q 289 -15 349 -15 q 153 51 229 -15 q 76 212 76 118 q 126 369 76 306 q 268 496 176 432 q 151 611 193 551 q 110 763 110 671 q 186 921 110 854 q 369 988 263 988 q 546 928 476 988 q 615 785 615 868 q 572 645 615 703 q 447 532 528 588 q 597 401 543 468 q 651 230 651 335 q 560 55 651 125 q 349 -15 469 -15 m 467 351 q 408 400 429 385 q 329 453 386 415 q 199 342 244 396 q 154 217 154 289 q 211 96 154 146 q 346 46 268 46 q 478 94 424 46 q 533 217 533 143 q 467 351 533 292 m 378 926 q 344 926 378 926 q 267 885 311 926 q 222 783 222 844 q 264 674 222 721 q 385 575 306 628 q 498 674 458 626 q 538 782 538 721 q 491 885 538 843 q 378 926 444 926 z "},"9":{"ha":749,"x_min":56,"x_max":679,"o":"m 56 689 q 57 749 56 689 q 144 899 57 810 q 372 988 231 988 q 596 894 513 988 q 679 627 679 800 q 557 267 679 454 q 229 -15 435 81 q 217 -17 228 -17 q 194 -10 206 -17 q 182 13 182 -4 q 203 43 182 31 q 535 465 464 200 q 350 399 461 399 q 132 483 208 399 q 56 689 56 568 m 503 863 q 478 896 503 863 q 368 929 453 929 q 233 863 283 929 q 182 691 182 797 q 233 526 182 585 q 368 467 285 467 q 503 526 451 467 q 554 691 554 585 q 503 863 554 797 z "}," ":{"ha":319,"x_min":0,"x_max":0,"o":""},"!":{"ha":365,"x_min":97,"x_max":268,"o":"m 251 928 q 207 321 251 928 q 189 306 207 306 l 175 306 q 157 321 158 306 q 131 674 149 444 q 113 931 113 904 q 133 973 113 958 q 183 988 154 988 q 231 972 211 988 q 251 928 251 957 m 182 156 q 199 156 182 156 q 242 131 217 156 q 268 70 268 106 q 242 10 268 35 q 182 -15 217 -15 q 122 10 147 -15 q 97 69 97 35 q 122 130 97 104 q 182 156 147 156 z "},"\"":{"ha":468,"x_min":69,"x_max":399,"o":"m 154 643 l 108 643 q 93 660 93 643 l 69 971 q 85 988 69 988 l 178 988 q 193 971 193 988 l 169 660 q 154 643 169 643 m 360 643 l 314 643 q 299 660 299 643 l 275 971 q 290 988 275 988 l 383 988 q 399 971 399 988 l 375 660 q 360 643 375 643 z "},"#":{"ha":928,"x_min":71,"x_max":858,"o":"m 843 708 q 858 697 858 708 q 857 692 858 694 l 846 649 q 828 632 840 632 l 671 632 l 606 335 l 790 335 q 804 318 808 335 l 793 275 q 775 258 788 258 l 589 258 l 532 1 q 513 -15 529 -15 l 463 -15 q 451 -10 456 -15 q 447 1 446 -6 l 504 258 l 297 258 l 240 1 q 221 -15 238 -15 l 171 -15 q 159 -10 164 -15 q 156 1 154 -6 l 213 258 l 88 258 q 75 264 81 258 q 71 275 69 269 l 82 318 q 100 335 86 335 l 229 335 l 294 632 l 140 632 q 128 637 133 632 q 124 649 122 642 l 135 692 q 153 708 139 708 l 313 708 l 371 971 q 390 988 374 988 l 442 988 q 456 971 458 988 l 397 708 l 604 708 l 663 971 q 682 988 665 988 l 733 988 q 747 971 750 988 l 689 708 l 843 708 m 379 632 l 314 335 l 521 335 l 586 632 l 379 632 z "},"$":{"ha":793,"x_min":69,"x_max":724,"o":"m 358 -150 l 358 -15 q 153 21 238 -12 q 69 92 69 54 l 69 254 q 92 283 69 283 q 117 257 110 283 q 203 105 151 157 q 358 46 254 53 l 358 453 q 257 504 294 483 q 175 561 219 525 q 86 736 86 629 q 162 909 86 843 q 358 986 238 975 l 358 1092 q 374 1108 358 1108 l 411 1108 q 426 1092 426 1108 l 426 986 q 595 953 522 982 q 668 892 668 925 l 668 751 q 648 724 668 724 q 618 751 628 724 q 549 876 590 833 q 426 925 507 918 l 426 553 q 629 433 581 478 q 710 331 696 374 q 724 251 724 289 q 641 65 724 132 q 426 -12 558 -3 l 426 -150 q 411 -167 426 -167 l 374 -167 q 358 -150 358 -167 m 426 49 q 554 104 503 58 q 606 219 606 150 q 559 332 606 288 q 426 419 513 376 l 426 49 m 358 924 q 241 872 283 914 q 199 769 199 829 q 240 667 199 708 q 358 586 281 626 l 358 924 z "},"%":{"ha":1188,"x_min":69,"x_max":1118,"o":"m 281 915 q 224 915 281 915 q 168 696 168 915 q 281 476 168 476 q 393 696 393 476 q 281 915 393 915 m 126 497 q 98 536 126 497 q 69 696 69 575 q 126 894 69 817 q 281 972 182 972 q 435 894 379 972 q 492 696 492 817 q 435 497 492 575 q 281 419 379 419 q 126 497 182 419 m 907 57 q 963 57 907 57 q 1019 276 1019 57 q 907 496 1019 496 q 794 276 794 496 q 907 57 794 57 m 1062 475 q 1090 436 1062 475 q 1118 276 1118 397 q 1062 78 1118 156 q 907 0 1006 0 q 752 78 808 0 q 696 276 696 156 q 752 475 696 397 q 907 553 808 553 q 1062 475 1006 553 m 339 -32 l 290 -32 q 279 -26 279 -32 q 282 -15 279 -21 l 822 988 q 847 1004 831 1004 l 896 1004 q 907 999 907 1004 q 904 988 907 993 l 364 -15 q 339 -32 356 -32 z "},"&":{"ha":993,"x_min":69,"x_max":992,"o":"m 706 799 q 690 723 706 749 q 665 683 674 697 q 634 651 657 669 q 602 625 611 633 q 561 599 593 617 q 521 575 529 581 q 432 528 504 564 q 679 246 521 399 q 736 425 713 314 q 739 446 739 436 q 707 479 739 478 l 658 482 q 642 501 642 482 q 663 519 642 519 l 788 517 l 906 521 q 925 504 925 521 q 910 485 925 488 l 882 481 q 828 465 847 476 q 803 425 810 453 q 728 201 768 281 q 853 92 794 139 q 950 35 914 39 l 975 32 q 992 13 992 31 q 972 -6 992 -6 q 810 0 839 0 q 750 28 781 0 q 665 106 694 76 q 386 -15 561 -15 q 160 53 251 -15 q 69 227 69 122 q 130 399 69 332 q 299 528 190 465 q 218 765 218 664 q 288 926 218 865 q 464 988 358 988 q 638 934 569 988 q 706 799 706 881 m 203 256 q 259 110 203 169 q 400 50 315 50 q 618 150 535 50 q 335 469 432 328 q 203 256 203 379 m 325 801 q 397 582 325 708 q 535 671 493 636 q 593 736 578 706 q 608 812 608 767 q 568 893 608 857 q 466 929 528 929 q 365 893 404 929 q 325 801 325 857 z "},"'":{"ha":263,"x_min":69,"x_max":193,"o":"m 154 643 l 108 643 q 93 660 93 643 l 69 971 q 85 988 69 988 l 178 988 q 193 971 193 988 l 169 660 q 154 643 169 643 z "},"(":{"ha":521,"x_min":76,"x_max":479,"o":"m 111 133 q 94 192 111 133 q 76 385 76 251 q 111 636 76 518 q 203 838 146 754 q 443 1067 314 1001 q 456 1069 451 1069 q 479 1047 479 1069 q 469 1028 479 1036 q 279 794 358 935 q 190 385 190 635 q 279 -25 190 135 q 469 -258 358 -165 q 479 -278 479 -267 q 456 -300 479 -300 q 443 -297 451 -300 q 203 -68 314 -232 q 111 133 146 15 z "},")":{"ha":521,"x_min":42,"x_max":444,"o":"m 410 636 q 427 577 410 636 q 444 385 444 518 q 410 133 444 251 q 318 -68 375 15 q 78 -297 207 -232 q 65 -300 69 -300 q 42 -278 42 -300 q 51 -258 42 -267 q 242 -25 163 -165 q 331 385 331 135 q 242 794 331 635 q 51 1028 163 935 q 42 1047 42 1036 q 65 1069 42 1069 q 78 1067 69 1069 q 318 838 207 1001 q 410 636 375 754 z "},"*":{"ha":679,"x_min":69,"x_max":610,"o":"m 301 988 l 378 988 q 390 983 385 988 q 393 971 394 978 l 368 757 l 564 847 q 585 838 579 856 l 608 765 q 610 758 610 761 q 597 746 610 749 l 386 703 l 532 544 q 529 521 544 532 l 468 476 q 457 472 463 472 q 446 481 451 472 l 340 668 l 235 481 q 223 471 229 471 q 211 475 217 471 l 150 519 q 147 543 138 531 l 294 703 l 83 744 q 69 760 69 749 q 71 765 69 763 l 94 838 q 115 847 100 853 l 311 757 l 286 971 q 290 983 285 978 q 301 988 294 988 z "},"+":{"ha":936,"x_min":83,"x_max":853,"o":"m 836 367 l 511 367 l 511 42 q 496 25 511 25 l 440 25 q 425 42 425 25 l 425 367 l 100 367 q 83 382 83 367 l 83 438 q 100 453 83 453 l 425 453 l 425 778 q 440 794 425 794 l 496 794 q 511 778 511 794 l 511 453 l 836 453 q 853 438 853 453 l 853 382 q 836 367 853 367 z "},",":{"ha":342,"x_min":83,"x_max":258,"o":"m 108 -187 q 83 -164 83 -187 q 93 -144 83 -151 q 169 -18 165 -90 q 106 9 128 -15 q 83 69 83 33 q 108 130 83 104 q 169 156 133 156 q 232 126 206 156 q 258 36 258 97 q 217 -89 258 -25 q 128 -181 175 -153 q 108 -187 117 -187 z "},"-":{"ha":507,"x_min":97,"x_max":410,"o":"m 114 457 l 393 457 q 410 442 410 457 l 410 376 q 393 361 410 361 l 114 361 q 97 376 97 361 l 97 442 q 114 457 97 457 z "},".":{"ha":338,"x_min":83,"x_max":254,"o":"m 168 156 q 185 156 168 156 q 228 131 203 156 q 254 70 254 106 q 228 10 254 35 q 168 -15 203 -15 q 108 10 133 -15 q 83 69 83 35 q 108 130 83 104 q 168 156 133 156 z "},"/":{"ha":479,"x_min":43,"x_max":436,"o":"m 113 -125 l 57 -125 q 43 -108 40 -125 l 347 1050 q 367 1067 350 1067 l 422 1067 q 436 1050 439 1067 l 132 -108 q 113 -125 129 -125 z "},":":{"ha":365,"x_min":97,"x_max":268,"o":"m 182 710 q 199 710 182 710 q 242 685 217 710 q 268 624 268 660 q 242 564 268 589 q 182 539 217 539 q 122 565 147 539 q 97 625 97 590 q 122 685 97 660 q 182 710 147 710 m 182 156 q 199 156 182 156 q 242 131 217 156 q 268 70 268 106 q 242 10 268 35 q 182 -15 217 -15 q 122 10 147 -15 q 97 69 97 35 q 122 130 97 104 q 182 156 147 156 z "},";":{"ha":369,"x_min":97,"x_max":272,"o":"m 182 710 q 199 710 182 710 q 242 685 217 710 q 268 624 268 660 q 242 564 268 589 q 182 539 217 539 q 122 565 147 539 q 97 625 97 590 q 122 685 97 660 q 182 710 147 710 m 122 -187 q 97 -164 97 -187 q 107 -144 97 -151 q 183 -18 179 -90 q 119 9 142 -15 q 97 69 97 33 q 122 130 97 104 q 183 156 147 156 q 246 126 219 156 q 272 36 272 97 q 231 -89 272 -25 q 142 -181 189 -153 q 122 -187 131 -187 z "},"<":{"ha":921,"x_min":69,"x_max":838,"o":"m 838 99 l 838 38 q 833 27 838 31 q 825 24 829 24 q 83 358 821 25 q 69 376 69 364 l 69 438 q 83 456 69 450 l 821 789 q 825 790 824 790 l 832 788 q 838 776 838 783 l 838 715 q 821 697 838 704 l 172 407 l 821 117 q 838 99 838 110 z "},"=":{"ha":992,"x_min":111,"x_max":881,"o":"m 864 508 l 128 508 q 111 524 111 508 l 111 579 q 128 594 111 594 l 864 594 q 881 579 881 594 l 881 524 q 864 508 881 508 m 864 225 l 128 225 q 111 240 111 225 l 111 296 q 128 311 111 311 l 864 311 q 881 296 881 311 l 881 240 q 864 225 881 225 z "},">":{"ha":921,"x_min":83,"x_max":851,"o":"m 83 715 l 83 776 q 88 787 83 783 q 96 790 92 790 q 838 456 100 789 q 851 438 851 450 l 851 376 q 838 358 851 364 l 100 25 q 96 24 97 24 l 89 26 q 83 38 83 31 l 83 99 q 100 117 83 110 l 749 407 l 100 697 q 83 715 83 704 z "},"?":{"ha":597,"x_min":69,"x_max":528,"o":"m 264 306 l 250 306 q 231 326 233 306 q 229 381 229 347 q 241 465 229 414 q 278 559 253 515 q 331 642 304 603 q 397 801 397 736 q 365 900 397 867 q 278 933 332 933 q 192 901 224 933 q 135 814 160 868 q 92 760 111 760 q 76 768 82 760 q 69 783 69 776 l 69 893 q 131 956 69 924 q 292 988 193 988 q 460 939 392 988 q 528 796 528 890 q 449 621 528 707 q 381 546 415 585 q 282 321 297 453 q 264 306 282 306 m 256 156 q 274 156 256 156 q 317 131 292 156 q 342 70 342 106 q 316 10 342 35 q 256 -15 290 -15 q 196 10 221 -15 q 171 69 171 35 q 196 130 171 104 q 256 156 221 156 z "},"@":{"ha":1163,"x_min":69,"x_max":1093,"o":"m 536 289 q 632 333 592 289 q 681 432 672 376 l 715 686 q 617 699 671 699 q 519 653 563 699 q 444 418 444 572 q 536 289 444 289 m 526 -15 q 199 102 328 -15 q 69 406 69 219 q 239 819 69 650 q 649 988 408 988 q 969 874 844 988 q 1093 583 1093 761 q 1004 313 1093 406 q 817 221 915 221 q 675 311 697 221 q 516 225 606 225 q 383 274 426 225 q 339 411 339 322 q 422 650 339 549 q 633 751 506 751 q 776 736 719 751 l 797 731 q 813 711 813 729 l 763 365 q 761 342 761 358 q 776 303 761 325 q 828 281 790 281 q 944 356 892 281 q 997 583 997 431 q 901 831 997 735 q 640 928 804 928 q 306 779 436 928 q 176 408 176 631 q 272 143 176 243 q 535 43 368 43 q 670 60 603 43 q 771 96 738 78 l 804 114 q 826 111 819 122 l 838 94 q 840 80 842 89 q 831 68 838 71 q 791 44 817 58 q 686 8 765 31 q 526 -15 607 -15 z "},"A":{"ha":996,"x_min":-14,"x_max":1010,"o":"m 315 382 l 625 382 q 635 399 640 382 l 469 824 l 304 396 q 315 382 300 382 m 186 92 q 183 73 183 83 q 194 49 183 63 q 225 35 206 36 l 256 32 q 274 14 274 29 q 253 -6 274 -6 l 132 0 l 6 -6 q -14 13 -14 -6 q 1 32 -14 32 l 28 35 q 108 92 88 42 l 465 971 q 498 988 471 988 q 532 971 525 988 l 888 92 q 967 35 906 40 l 996 32 q 1006 26 1001 32 q 1010 15 1010 21 q 990 -6 1010 -6 l 831 0 l 688 -6 q 668 11 668 -6 q 685 32 668 31 l 717 35 q 747 49 735 36 q 758 72 758 61 q 754 92 758 83 l 672 304 q 650 318 668 318 l 290 318 q 268 304 274 318 l 186 92 z "},"B":{"ha":889,"x_min":42,"x_max":826,"o":"m 601 535 q 758 455 689 524 q 826 275 826 386 q 743 82 826 164 q 536 0 660 0 l 219 0 l 63 -6 q 43 17 43 -6 q 58 32 43 32 l 99 35 q 163 92 163 43 l 163 881 q 99 936 163 931 l 58 940 q 43 957 43 943 q 63 978 43 978 l 236 972 l 506 972 q 686 906 614 972 q 758 750 758 839 q 711 609 758 661 q 601 538 664 557 l 601 535 m 583 608 q 609 633 583 608 q 635 738 635 657 q 583 865 635 818 q 449 911 532 911 l 332 911 q 297 897 313 911 q 281 867 281 882 l 281 588 q 308 560 281 560 l 449 560 q 583 608 531 560 m 474 61 q 638 122 574 61 q 703 281 703 183 q 638 439 703 379 q 474 499 574 499 l 304 499 q 281 474 281 499 l 281 117 q 336 61 281 61 l 474 61 z "},"C":{"ha":949,"x_min":69,"x_max":881,"o":"m 876 735 q 870 716 876 725 q 854 707 864 707 q 824 735 831 707 q 731 881 799 828 q 569 933 663 933 q 302 818 401 933 q 203 524 203 703 q 308 204 203 344 q 569 64 413 64 q 705 81 660 64 q 766 106 750 99 q 807 131 782 114 q 835 149 832 147 q 869 153 860 164 q 879 133 879 143 q 868 113 879 124 q 771 33 821 60 q 556 -15 681 -15 q 204 128 339 -15 q 69 488 69 271 q 207 846 69 704 q 569 988 344 988 q 781 956 686 988 q 876 893 876 924 l 876 735 z "},"D":{"ha":1029,"x_min":42,"x_max":960,"o":"m 474 972 q 828 844 696 972 q 960 503 960 715 q 823 145 960 290 q 474 0 686 0 l 235 0 l 61 -7 q 42 12 42 -7 q 57 31 42 31 l 97 33 q 143 51 125 36 q 161 90 161 65 l 161 881 q 97 936 161 931 l 57 940 q 42 958 42 943 q 61 978 42 978 l 235 972 l 474 972 m 747 764 q 635 869 706 831 q 472 908 564 908 l 347 908 q 298 892 317 908 q 279 843 279 875 l 279 128 q 298 81 279 99 q 347 64 317 64 l 479 64 q 735 174 639 64 q 831 458 831 283 q 747 764 831 633 z "},"E":{"ha":881,"x_min":42,"x_max":824,"o":"m 739 0 l 218 0 l 61 -6 q 42 13 42 -6 q 57 32 42 32 l 97 35 q 143 52 125 38 q 161 92 161 67 l 161 881 q 97 936 161 931 l 57 940 q 42 959 42 940 q 61 978 42 978 l 218 972 l 711 972 q 754 956 738 972 q 774 917 771 940 l 793 789 q 773 764 796 764 q 743 786 750 764 q 681 881 722 853 q 565 908 639 908 l 347 908 q 298 891 317 908 q 279 843 279 874 l 279 551 q 297 533 279 533 l 556 533 q 586 543 575 533 q 601 561 597 553 q 611 592 604 569 l 617 610 q 638 626 621 626 q 654 607 654 626 l 649 489 l 654 376 q 636 356 654 358 q 617 372 619 356 l 613 397 q 556 469 600 469 l 296 469 q 279 450 279 469 l 279 128 q 298 81 279 99 q 347 64 317 64 l 576 64 q 701 99 649 64 q 774 203 753 135 q 797 225 781 225 q 819 217 813 225 q 824 200 825 210 l 801 56 q 781 16 799 32 q 739 0 764 0 z "},"F":{"ha":808,"x_min":42,"x_max":779,"o":"m 779 789 q 759 764 782 764 q 729 786 736 764 q 667 881 708 853 q 551 908 625 908 l 347 908 q 298 891 317 908 q 279 843 279 874 l 279 538 q 297 519 279 519 l 542 519 q 572 528 560 519 q 587 547 583 538 q 597 578 590 557 l 603 596 q 621 611 607 611 q 640 593 640 611 l 635 474 l 640 358 q 623 339 640 339 q 603 356 606 339 l 599 381 q 581 435 593 417 q 542 453 569 453 l 296 453 q 279 433 279 453 l 279 92 q 340 35 279 40 l 382 32 q 399 15 399 32 q 378 -6 399 -6 l 218 0 l 61 -6 q 42 13 42 -6 q 57 32 42 32 l 97 35 q 143 52 125 38 q 161 92 161 67 l 161 881 q 97 936 161 931 l 57 940 q 42 959 42 940 q 61 978 42 978 l 218 972 l 697 972 q 740 956 724 972 q 760 917 757 940 l 779 789 z "},"G":{"ha":1054,"x_min":69,"x_max":1026,"o":"m 579 988 q 791 956 696 988 q 886 893 886 924 l 886 735 q 880 716 886 725 q 864 707 874 707 q 833 735 840 707 q 740 881 808 828 q 579 933 672 933 q 305 818 407 933 q 203 525 203 703 q 249 300 203 408 q 380 122 294 192 q 569 51 465 51 q 744 94 672 51 q 815 183 815 136 l 815 356 q 753 411 815 408 l 678 415 q 663 434 663 415 q 681 453 663 453 l 869 447 l 1007 453 q 1026 436 1026 453 q 1010 415 1026 417 l 986 411 q 931 356 931 401 l 931 88 l 939 10 q 918 -15 942 -15 q 893 3 903 -15 q 819 53 871 53 q 778 36 808 53 q 556 -15 683 -15 q 204 128 339 -15 q 69 487 69 271 q 211 845 69 703 q 579 988 353 988 z "},"H":{"ha":1114,"x_min":42,"x_max":1072,"o":"m 1057 32 q 1072 13 1072 32 q 1053 -6 1072 -6 l 897 0 l 761 -6 q 740 14 740 -6 q 756 32 740 29 l 781 35 q 836 92 836 42 l 836 436 q 811 463 836 463 l 303 463 q 286 455 293 463 q 279 436 279 447 l 279 92 q 335 35 279 42 l 358 32 q 376 14 376 29 q 370 0 376 6 q 356 -6 364 -6 l 218 0 l 61 -6 q 42 13 42 -6 q 57 32 42 32 l 97 35 q 143 52 125 38 q 161 92 161 67 l 161 881 q 97 936 161 931 l 57 940 q 42 959 42 940 q 61 978 42 978 l 218 972 l 356 978 q 376 961 376 978 q 358 940 376 942 l 335 936 q 279 881 279 926 l 279 554 q 307 526 279 526 l 810 526 q 836 550 836 526 l 836 881 q 781 936 836 926 l 756 940 q 740 958 740 943 q 761 978 740 978 l 897 972 l 1053 978 q 1072 959 1072 978 q 1057 940 1072 940 l 1015 936 q 954 881 954 931 l 954 92 q 1015 35 954 40 l 1057 32 z "},"I":{"ha":440,"x_min":42,"x_max":399,"o":"m 85 -6 q 65 12 65 -6 q 81 32 65 29 l 104 35 q 161 92 161 42 l 161 881 q 97 936 161 931 l 57 940 q 42 958 42 943 q 61 978 42 978 l 218 972 l 356 978 q 376 961 376 978 q 358 940 376 942 l 335 936 q 279 881 279 926 l 279 92 q 297 52 279 67 q 342 35 315 38 l 382 32 q 399 14 399 32 q 392 0 399 6 q 379 -6 386 -6 l 222 0 l 85 -6 z "},"J":{"ha":440,"x_min":-8,"x_max":378,"o":"m 281 881 l 281 -7 q 234 -235 281 -149 q 104 -378 188 -322 q 26 -417 43 -417 q 3 -407 8 -417 q -7 -382 -7 -389 q 3 -368 -7 -375 q 93 -294 74 -318 q 163 -78 163 -221 l 163 881 q 99 936 163 931 l 58 940 q 43 958 43 943 q 63 978 43 978 l 219 972 l 357 978 q 378 961 378 978 q 360 940 378 942 l 336 936 q 281 881 281 926 z "},"K":{"ha":958,"x_min":42,"x_max":986,"o":"m 706 925 l 699 961 q 717 976 699 976 l 794 972 l 931 978 q 951 959 951 978 q 933 940 951 940 l 892 936 q 800 881 844 932 l 494 536 q 446 501 475 514 q 494 465 475 489 l 836 94 q 928 38 888 40 l 968 35 q 986 15 986 32 q 967 -3 986 -3 q 776 0 803 0 q 721 31 749 0 l 389 410 q 324 451 354 451 q 322 451 324 451 l 289 451 q 279 436 279 451 l 279 92 q 317 33 279 38 l 331 32 q 346 14 346 29 q 326 -6 346 -6 l 222 0 l 85 -6 q 64 12 64 -6 q 81 32 64 29 l 104 35 q 161 92 161 42 l 161 881 q 97 936 161 928 l 57 940 q 42 958 42 943 q 61 978 42 978 l 218 972 l 326 978 q 347 960 347 978 q 329 940 347 943 l 317 939 q 279 881 279 932 l 279 532 q 292 515 279 515 l 328 515 q 396 557 361 515 l 688 889 q 706 925 706 908 z "},"L":{"ha":825,"x_min":42,"x_max":796,"o":"m 279 881 l 279 128 q 298 81 279 99 q 347 64 317 64 l 549 64 q 675 99 622 64 q 747 203 728 135 q 776 225 754 225 q 796 200 799 225 l 774 56 q 754 16 771 32 q 711 0 738 0 l 218 0 l 61 -6 q 42 13 42 -6 q 57 32 42 32 l 97 35 q 143 52 125 38 q 161 92 161 67 l 161 881 q 97 936 161 931 l 57 940 q 42 958 42 943 q 61 978 42 978 l 218 972 l 356 978 q 376 961 376 978 q 358 940 376 942 l 335 936 q 279 881 279 926 z "},"M":{"ha":1333,"x_min":35,"x_max":1299,"o":"m 1299 14 q 1292 0 1299 6 q 1279 -6 1286 -6 l 1122 0 l 985 -6 q 965 12 965 -6 q 981 32 965 29 l 1004 35 q 1063 92 1063 42 l 1051 749 q 1043 763 1051 763 q 1038 758 1039 763 l 660 3 q 643 -10 653 -10 q 628 3 633 -10 l 249 736 q 243 740 247 740 q 235 726 235 740 l 226 92 q 282 36 226 46 l 306 32 q 324 13 324 29 q 303 -4 324 -4 l 189 0 l 54 -4 q 35 13 35 -4 q 50 32 35 29 l 90 36 q 154 92 154 43 l 171 881 q 115 936 172 929 l 90 939 q 74 959 74 942 q 94 976 74 976 l 217 972 q 276 944 264 971 l 669 167 l 1053 944 q 1114 972 1065 969 l 1238 976 q 1260 959 1260 976 q 1243 939 1260 942 l 1218 936 q 1164 881 1164 932 l 1181 92 q 1198 52 1181 67 q 1242 35 1215 38 l 1282 32 q 1299 14 1299 32 z "},"N":{"ha":1058,"x_min":42,"x_max":1017,"o":"m 851 207 l 851 881 q 789 936 851 929 l 749 940 q 733 960 733 943 q 753 976 733 976 l 888 972 l 996 976 q 1017 960 1017 976 q 999 940 1017 943 l 975 936 q 919 881 919 926 l 919 1 q 904 -15 919 -15 l 886 -15 q 826 18 851 -15 l 242 767 q 233 769 239 769 q 228 756 228 769 l 228 92 q 283 36 228 46 l 307 32 q 325 13 325 29 q 304 -4 325 -4 l 196 0 l 61 -4 q 42 13 42 -4 q 57 32 42 29 l 97 36 q 161 92 161 43 l 161 881 q 106 936 161 929 l 81 939 q 64 959 64 942 q 85 976 64 976 l 196 972 q 257 946 236 971 l 836 203 q 846 199 840 199 q 851 207 851 199 z "},"O":{"ha":1111,"x_min":69,"x_max":1042,"o":"m 558 988 q 667 988 558 988 q 909 848 776 988 q 1042 489 1042 708 q 906 127 1042 269 q 555 -15 771 -15 q 204 126 339 -15 q 69 485 69 268 q 204 845 69 703 q 558 988 339 988 m 831 769 q 719 882 790 840 q 554 924 649 924 q 292 820 385 924 q 200 539 200 717 q 283 208 200 354 q 396 92 324 136 q 561 49 468 49 q 819 157 726 49 q 911 449 911 265 q 831 769 911 632 z "},"P":{"ha":828,"x_min":42,"x_max":786,"o":"m 596 545 q 627 575 596 545 q 658 700 658 606 q 596 853 658 794 q 418 911 533 911 l 335 911 q 279 856 279 911 l 279 503 q 294 485 279 485 l 418 485 q 596 545 533 485 m 447 972 q 697 899 607 972 q 786 703 786 825 q 699 501 786 582 q 464 421 611 421 l 300 421 q 279 404 279 421 l 279 92 q 297 51 279 67 q 342 35 315 36 l 400 32 q 415 13 415 32 q 396 -6 415 -6 l 222 0 l 68 -6 q 47 11 47 -6 q 64 32 47 31 l 104 35 q 161 92 161 39 l 161 881 q 97 936 161 931 l 57 940 q 42 958 42 943 q 61 978 42 978 l 253 972 l 447 972 z "},"Q":{"ha":1113,"x_min":69,"x_max":1050,"o":"m 1050 -332 q 1031 -351 1050 -351 q 862 -346 893 -346 q 810 -318 831 -346 l 615 -58 q 556 -15 582 -15 q 203 126 338 -15 q 69 485 69 267 q 204 845 69 703 q 558 988 339 988 q 909 848 776 988 q 1042 486 1042 708 q 946 174 1042 307 q 688 1 850 42 q 756 -51 731 -18 l 917 -254 q 1008 -311 957 -304 l 1033 -314 q 1050 -332 1050 -317 m 831 769 q 719 881 790 840 q 554 922 649 922 q 292 819 385 922 q 200 539 200 715 q 283 208 200 354 q 396 92 324 136 q 561 49 468 49 q 819 156 726 49 q 911 448 911 264 q 831 769 911 632 z "},"R":{"ha":921,"x_min":42,"x_max":935,"o":"m 626 577 q 658 604 626 577 q 690 718 690 631 q 626 858 690 806 q 465 910 563 910 l 335 910 q 279 854 279 910 l 279 542 q 294 524 279 524 l 465 524 q 626 577 561 524 m 513 972 q 731 904 646 972 q 817 724 817 836 q 733 540 817 613 q 546 464 649 467 l 544 461 q 590 425 574 451 l 800 92 q 892 35 829 43 l 917 32 q 935 14 935 29 q 914 -6 935 -6 q 748 0 781 0 q 697 28 715 0 l 463 418 q 401 461 435 461 q 400 461 401 461 l 300 461 q 279 444 279 461 l 279 92 q 297 51 279 67 q 342 35 315 36 l 400 32 q 415 13 415 32 q 396 -6 415 -6 l 222 0 l 68 -6 q 47 11 50 -6 q 64 32 47 31 l 104 35 q 161 92 161 39 l 161 881 q 97 936 161 931 l 57 940 q 42 958 42 943 q 61 978 42 978 l 253 972 l 513 972 z "},"S":{"ha":793,"x_min":69,"x_max":724,"o":"m 724 251 q 626 53 724 121 q 388 -15 528 -15 q 159 18 249 -15 q 69 92 69 51 l 69 254 q 92 283 69 283 q 117 257 110 283 q 210 98 153 150 q 372 46 268 46 q 541 93 476 46 q 606 224 606 140 q 503 378 606 315 q 401 432 457 406 q 290 487 346 458 q 189 549 235 515 q 86 738 86 624 q 174 920 86 853 q 382 988 263 988 q 585 958 501 988 q 668 892 668 928 l 668 751 q 648 724 668 724 q 618 751 628 724 q 542 883 589 840 q 401 926 494 926 q 253 882 307 926 q 199 772 199 838 q 253 658 199 706 q 384 573 307 610 q 538 497 461 536 q 669 394 615 457 q 724 251 724 332 z "},"T":{"ha":863,"x_min":3,"x_max":860,"o":"m 490 871 l 490 92 q 508 52 490 67 q 553 35 526 38 l 593 32 q 610 14 610 32 q 603 0 610 6 q 590 -6 597 -6 l 433 0 l 261 -6 q 248 0 254 -6 q 242 14 242 6 q 258 32 242 32 l 310 35 q 354 52 336 38 q 372 92 372 67 l 372 871 q 338 908 372 908 l 221 908 q 114 872 153 908 q 53 763 75 835 q 30 742 44 742 q 8 749 15 742 q 3 767 1 757 l 14 946 q 44 972 17 972 l 814 972 q 846 939 843 972 l 860 767 q 854 749 861 756 q 833 742 847 742 q 810 763 818 742 q 747 872 785 836 q 642 908 708 908 l 525 908 q 490 871 490 908 z "},"U":{"ha":1074,"x_min":42,"x_max":1032,"o":"m 161 357 l 161 881 q 97 936 161 931 l 57 940 q 42 958 42 943 q 61 978 42 978 l 218 972 l 356 978 q 376 961 376 978 q 358 940 376 942 l 335 936 q 279 881 279 926 l 279 356 q 357 154 279 226 q 562 82 435 82 q 767 156 689 82 q 846 356 846 229 l 846 881 q 790 936 846 926 l 767 940 q 749 960 749 943 q 769 976 749 976 l 878 972 l 1013 976 q 1032 960 1032 976 q 1017 940 1032 943 l 976 936 q 913 881 913 929 l 913 357 q 808 85 913 186 q 539 -15 703 -15 q 268 89 375 -15 q 161 357 161 193 z "},"V":{"ha":965,"x_min":-14,"x_max":979,"o":"m 692 958 q 713 978 692 978 l 833 972 l 960 978 q 979 959 979 978 q 964 940 979 940 l 938 938 q 857 881 875 931 l 514 1 q 483 -15 508 -15 q 450 1 457 -15 l 108 881 q 29 938 88 933 l 0 940 q -10 946 -6 940 q -14 957 -14 951 q 6 978 -14 978 l 151 972 l 306 978 q 325 961 325 978 q 308 940 325 942 l 276 938 q 242 918 253 936 q 239 881 232 900 l 506 153 l 779 881 q 777 919 788 901 q 740 938 767 936 l 710 940 q 692 958 692 943 z "},"W":{"ha":1463,"x_min":-7,"x_max":1469,"o":"m 475 1 q 446 -15 469 -15 q 415 1 422 -15 l 115 881 q 36 938 97 932 l 7 940 q -3 946 1 940 q -7 957 -7 951 q 13 978 -7 978 l 154 972 l 308 978 q 328 961 328 978 q 311 940 328 942 l 279 938 q 245 919 256 936 q 242 881 235 903 l 469 185 l 724 960 q 756 978 729 978 q 788 960 782 978 l 1040 185 l 1269 881 q 1266 920 1276 904 q 1231 938 1256 936 l 1200 940 q 1182 958 1182 943 q 1203 978 1182 978 l 1324 972 l 1450 978 q 1469 959 1469 978 q 1454 940 1469 940 l 1428 938 q 1347 881 1364 929 l 1046 1 q 1017 -15 1040 -15 q 986 1 993 -15 l 731 761 l 475 1 z "},"X":{"ha":985,"x_min":28,"x_max":957,"o":"m 304 35 q 321 15 321 33 q 300 -3 321 -3 l 194 0 l 49 -4 q 29 13 29 -4 q 44 32 29 29 l 86 36 q 165 92 128 40 l 431 475 l 164 881 q 83 936 131 932 l 43 940 q 28 960 28 943 q 47 976 28 976 l 210 972 l 353 975 q 374 957 374 975 q 357 938 374 939 l 332 935 q 300 915 308 932 q 303 881 292 897 l 501 576 l 713 881 q 717 914 725 896 q 683 935 708 932 l 657 938 q 640 957 640 939 q 661 975 640 975 l 767 972 l 913 976 q 932 960 932 976 q 917 940 932 943 l 875 936 q 796 881 833 932 l 542 515 l 821 92 q 903 36 857 40 l 942 32 q 957 13 957 29 q 938 -4 957 -4 l 776 0 l 632 -3 q 611 15 611 -3 q 628 35 611 33 l 654 38 q 686 58 678 40 q 683 92 694 75 l 471 414 l 249 92 q 244 58 236 75 q 278 38 253 40 l 304 35 z "},"Y":{"ha":982,"x_min":-7,"x_max":989,"o":"m 969 976 q 989 960 989 976 q 974 940 989 943 l 933 936 q 854 881 888 932 l 583 447 q 564 382 567 418 l 564 92 q 582 52 564 67 q 626 35 600 38 l 667 32 q 683 14 683 32 q 677 0 683 6 q 664 -6 671 -6 l 507 0 l 368 -6 q 349 12 349 -6 q 364 32 349 29 l 388 35 q 444 92 444 42 l 444 363 q 432 411 444 389 l 129 881 q 49 936 96 932 l 8 940 q -7 960 -7 943 q 13 976 -7 976 l 178 972 l 325 975 q 346 957 346 975 q 329 938 346 939 l 303 935 q 270 914 278 932 q 274 881 263 896 l 515 483 q 528 474 521 474 q 540 481 535 474 l 778 881 q 781 913 789 896 q 749 935 774 931 l 722 938 q 706 958 703 940 q 726 975 708 975 l 835 972 l 969 976 z "},"Z":{"ha":844,"x_min":49,"x_max":801,"o":"m 717 0 l 65 0 q 49 15 49 0 l 49 28 q 56 51 49 42 l 594 894 q 586 908 603 908 l 281 908 q 181 872 222 908 q 121 785 139 836 q 94 761 115 761 q 79 769 85 761 q 75 785 74 776 l 103 931 q 140 972 110 972 l 743 972 q 760 961 760 972 l 760 947 q 743 911 760 939 l 222 90 q 218 75 217 82 q 226 68 219 68 l 550 68 q 753 221 692 68 q 781 242 761 242 q 801 217 804 242 l 779 56 q 760 16 776 32 q 717 0 743 0 z "},"[":{"ha":521,"x_min":139,"x_max":438,"o":"m 139 -292 l 139 1060 q 158 1076 139 1076 l 419 1076 q 438 1058 438 1076 l 438 1035 q 419 1017 438 1017 l 243 1017 l 243 -249 l 419 -249 q 438 -267 438 -249 l 438 -290 q 419 -308 438 -308 l 158 -308 q 139 -292 139 -308 z "},"\\":{"ha":479,"x_min":43,"x_max":436,"o":"m 57 1067 l 113 1067 q 132 1050 129 1067 l 436 -108 q 422 -125 439 -125 l 367 -125 q 347 -108 350 -125 l 43 1050 q 57 1067 40 1067 z "},"]":{"ha":521,"x_min":83,"x_max":382,"o":"m 382 1060 l 382 -292 q 363 -308 382 -308 l 101 -308 q 83 -290 83 -308 l 83 -267 q 101 -249 83 -249 l 278 -249 l 278 1017 l 101 1017 q 83 1035 83 1017 l 83 1058 q 101 1076 83 1076 l 363 1076 q 382 1060 382 1076 z "},"^":{"ha":644,"x_min":69,"x_max":575,"o":"m 144 542 l 83 542 q 73 546 76 542 q 69 553 69 550 q 71 558 69 556 l 274 974 q 292 988 279 988 l 353 988 q 371 974 365 988 l 574 558 q 575 553 575 556 q 572 546 575 550 q 561 542 568 542 l 500 542 q 482 558 489 542 l 322 899 l 163 558 q 144 542 156 542 z "},"_":{"ha":747,"x_min":-28,"x_max":775,"o":"m -11 -335 l 758 -335 q 775 -350 775 -335 l 775 -401 q 758 -417 775 -417 l -11 -417 q -28 -401 -28 -417 l -28 -350 q -11 -335 -28 -335 z "},"`":{"ha":479,"x_min":90,"x_max":389,"o":"m 117 924 q 90 965 90 938 q 108 1012 90 992 q 144 1032 125 1032 q 179 1019 164 1032 l 389 836 l 364 803 l 117 924 z "},"a":{"ha":710,"x_min":69,"x_max":696,"o":"m 696 7 q 646 -15 696 -15 q 500 53 560 -15 q 485 63 490 63 q 471 54 481 63 q 268 -15 381 -15 q 129 34 189 -15 q 69 161 69 83 q 156 311 69 260 q 394 381 232 356 q 447 390 433 388 q 465 410 465 392 l 465 538 q 427 628 465 594 q 326 661 389 661 q 212 622 263 661 q 147 514 161 583 q 124 493 143 493 q 106 514 106 493 l 106 618 q 121 653 106 642 q 332 710 194 710 q 525 650 469 710 q 581 496 581 590 l 581 125 q 609 53 581 81 q 676 25 638 25 q 696 7 696 25 m 463 136 l 463 310 q 444 331 463 331 q 440 331 443 331 q 192 178 192 300 q 229 88 192 121 q 313 56 267 56 q 395 74 360 56 q 447 110 431 92 q 463 136 463 128 z "},"b":{"ha":847,"x_min":1,"x_max":778,"o":"m 457 710 q 522 710 457 710 q 682 609 586 710 q 778 353 778 508 q 673 91 778 197 q 422 -15 568 -15 q 238 24 315 -15 q 200 36 213 36 q 154 4 174 36 q 133 -15 146 -15 q 110 10 107 -15 q 117 92 117 69 l 117 1001 q 105 1039 117 1028 q 68 1050 93 1050 l 19 1050 q 1 1068 1 1050 q 19 1089 1 1086 l 199 1111 q 206 1111 201 1111 q 231 1079 231 1111 l 222 763 l 222 665 q 228 649 222 653 q 238 650 233 646 q 457 710 328 710 m 656 306 q 591 558 656 469 q 413 647 526 647 q 239 583 300 647 q 225 556 225 569 l 225 197 q 281 85 225 131 q 408 39 336 39 q 589 113 522 39 q 656 306 656 186 z "},"c":{"ha":729,"x_min":69,"x_max":660,"o":"m 656 490 q 636 467 656 467 q 614 490 619 467 q 546 611 593 567 q 426 656 499 656 q 257 578 322 656 q 192 374 192 501 q 270 135 192 214 q 452 56 349 56 q 621 97 556 56 q 639 104 631 104 q 653 99 647 104 q 660 83 660 93 q 649 61 660 72 q 422 -15 572 -15 q 170 81 271 -15 q 69 360 69 178 q 170 606 69 503 q 418 710 271 710 q 588 678 519 710 q 656 611 656 647 l 656 490 z "},"d":{"ha":867,"x_min":69,"x_max":853,"o":"m 719 1111 q 738 1082 738 1111 l 738 124 q 765 53 738 81 q 822 25 792 25 q 853 7 853 25 q 799 -15 853 -15 q 656 50 708 -15 q 642 61 647 61 q 609 42 638 61 q 531 3 581 22 q 425 -15 482 -15 q 165 85 260 -15 q 69 338 69 185 q 175 601 69 492 q 425 710 281 710 q 610 646 531 710 q 622 642 615 642 q 629 660 629 642 l 629 1000 q 617 1038 629 1028 q 579 1049 606 1049 l 532 1049 q 519 1055 525 1049 q 514 1068 514 1061 q 532 1089 514 1088 l 715 1111 q 719 1111 717 1111 m 629 188 l 629 494 q 571 601 629 557 q 429 646 513 646 q 254 576 317 646 q 192 385 192 506 q 259 133 192 224 q 432 42 326 42 q 568 86 507 42 q 629 188 629 131 z "},"e":{"ha":753,"x_min":69,"x_max":690,"o":"m 690 439 q 615 356 690 356 l 215 356 q 199 332 199 356 q 273 130 201 204 q 455 56 344 56 q 618 99 565 56 q 651 97 636 113 q 647 63 667 82 q 433 -15 569 -15 q 166 83 263 -15 q 69 356 69 181 q 165 603 69 497 q 394 710 261 710 q 608 633 526 710 q 690 439 690 556 m 565 457 q 520 598 565 540 q 394 656 475 656 q 256 589 313 656 q 199 436 199 522 q 217 414 199 414 l 522 414 q 565 457 565 414 z "},"f":{"ha":475,"x_min":28,"x_max":600,"o":"m 254 610 l 254 92 q 272 51 254 67 q 318 35 290 36 l 368 32 q 385 13 385 31 q 364 -6 385 -6 l 203 0 l 71 -6 q 50 13 50 -6 q 67 32 50 31 l 90 35 q 146 92 146 42 l 146 610 q 129 625 146 625 l 44 625 q 28 643 28 625 l 28 654 q 44 671 28 668 l 122 690 q 146 715 146 696 l 146 721 q 230 999 146 886 q 457 1111 314 1111 q 546 1097 511 1111 q 600 1047 600 1078 l 600 957 q 594 941 600 949 q 579 933 588 933 q 550 957 560 933 q 497 1022 533 999 q 414 1044 460 1044 q 294 983 335 1044 q 254 810 254 922 l 254 710 q 268 694 254 694 l 449 694 q 464 678 467 694 l 458 643 q 442 625 456 625 l 267 625 q 254 610 254 625 z "},"g":{"ha":783,"x_min":76,"x_max":761,"o":"m 735 613 l 619 613 q 610 608 611 613 q 614 599 608 604 q 657 458 657 543 q 577 276 657 344 q 378 208 497 208 q 278 219 310 208 q 231 219 247 229 q 181 139 181 192 q 210 83 181 104 q 272 61 239 61 l 474 61 q 678 4 610 61 q 747 -151 747 -53 q 648 -342 747 -274 q 403 -411 549 -411 q 167 -356 257 -411 q 76 -199 76 -300 q 119 -86 76 -131 q 213 -25 163 -42 q 135 23 172 -15 q 97 115 97 61 q 186 250 97 203 q 190 257 190 253 q 186 267 190 261 q 100 456 100 339 q 178 641 100 572 q 374 710 257 710 q 473 696 418 710 q 547 682 528 682 l 747 682 q 761 665 764 682 l 754 629 q 735 613 751 613 m 378 265 q 418 265 378 265 q 501 313 458 265 q 544 443 544 360 q 499 590 544 526 q 375 653 454 653 q 254 605 296 653 q 213 474 213 557 q 255 328 213 390 q 378 265 297 265 m 403 -360 q 455 -360 403 -360 q 576 -310 507 -360 q 644 -187 644 -260 q 600 -79 644 -115 q 474 -43 556 -43 l 335 -43 q 217 -85 258 -43 q 175 -197 175 -126 q 237 -314 175 -268 q 403 -360 299 -360 z "},"h":{"ha":886,"x_min":28,"x_max":872,"o":"m 233 1111 q 256 1079 256 1111 l 256 607 q 260 600 256 600 q 274 608 265 600 q 484 710 354 710 q 683 641 614 710 q 753 443 753 572 l 753 92 q 771 52 753 67 q 817 35 789 38 l 856 32 q 872 13 872 31 q 851 -6 872 -6 l 701 0 l 576 -6 q 556 13 556 -6 q 572 32 556 31 l 589 35 q 644 92 644 44 l 644 463 q 596 596 644 549 q 462 643 547 643 q 316 573 376 643 q 256 435 256 503 l 256 92 q 311 35 256 42 l 332 32 q 349 13 349 31 q 328 -6 349 -6 l 199 0 l 49 -6 q 28 13 28 -6 q 44 32 28 31 l 83 35 q 129 52 111 38 q 147 92 147 67 l 147 1001 q 135 1040 147 1029 q 97 1050 124 1050 l 50 1050 q 32 1068 32 1050 q 50 1089 32 1086 l 231 1111 q 233 1111 232 1111 z "},"i":{"ha":400,"x_min":28,"x_max":351,"o":"m 335 32 q 351 13 351 31 q 331 -6 351 -6 l 199 0 l 49 -6 q 28 13 28 -6 q 44 32 28 31 l 83 35 q 129 52 111 38 q 147 92 147 67 l 147 600 q 135 638 147 628 q 97 649 124 649 l 50 649 q 32 667 32 649 q 50 688 32 685 l 231 710 q 256 678 256 713 l 256 92 q 311 35 256 42 l 335 32 m 142 919 q 133 928 142 919 q 124 965 124 938 q 142 1011 124 993 q 189 1029 161 1029 q 236 1011 217 1029 q 256 965 256 993 q 236 919 256 938 q 189 901 217 901 q 142 919 161 901 z "},"j":{"ha":385,"x_min":-18,"x_max":260,"o":"m 145 919 q 136 928 145 919 q 126 965 126 938 q 145 1011 126 993 q 192 1029 164 1029 q 239 1011 219 1029 q 258 965 258 993 q 239 919 258 938 q 192 901 219 901 q 145 919 164 901 m 236 710 q 260 678 260 710 l 260 -7 q 93 -378 260 -271 q 15 -417 32 -417 q -8 -407 -3 -417 q -18 -382 -18 -392 q -8 -368 -18 -372 q 82 -294 46 -337 q 151 -78 151 -221 l 151 600 q 140 638 151 628 q 101 649 128 649 l 54 649 q 36 667 36 649 q 54 688 36 685 l 233 710 q 236 710 235 710 z "},"k":{"ha":783,"x_min":28,"x_max":790,"o":"m 147 92 l 147 1001 q 135 1040 147 1029 q 97 1050 124 1050 l 50 1050 q 32 1068 32 1050 q 50 1089 32 1086 l 231 1111 q 256 1079 256 1111 l 256 411 q 265 399 256 399 l 324 399 q 343 407 335 399 l 539 613 q 551 637 551 628 q 541 661 551 646 q 531 683 531 676 q 550 699 531 699 l 638 694 l 740 700 q 761 683 761 700 q 744 664 761 667 l 725 661 q 642 617 678 654 l 426 399 q 421 388 421 393 q 426 378 421 383 l 675 92 q 749 35 722 38 l 774 32 q 790 14 790 29 q 771 -6 790 -6 q 642 0 667 0 l 557 -4 q 536 11 536 -4 q 544 34 536 21 q 551 56 551 47 q 539 78 551 64 l 332 329 q 314 338 324 338 l 268 338 q 256 325 256 338 l 256 92 q 311 35 256 42 l 335 32 q 351 13 351 31 q 331 -6 351 -6 l 199 0 l 49 -6 q 28 13 28 -6 q 44 32 28 31 l 83 35 q 129 52 111 38 q 147 92 147 67 z "},"l":{"ha":400,"x_min":28,"x_max":351,"o":"m 233 1111 q 256 1079 256 1111 l 256 92 q 311 35 256 42 l 335 32 q 351 13 351 31 q 331 -6 351 -6 l 199 0 l 49 -6 q 28 13 28 -6 q 44 32 28 31 l 83 35 q 129 52 111 38 q 147 92 147 67 l 147 1001 q 135 1040 147 1029 q 97 1050 124 1050 l 50 1050 q 32 1068 32 1050 q 50 1089 32 1086 l 231 1111 q 233 1111 232 1111 z "},"m":{"ha":1251,"x_min":28,"x_max":1238,"o":"m 233 710 q 256 678 256 710 l 256 617 q 260 610 256 610 q 274 618 265 610 q 458 710 358 710 q 581 683 533 710 q 658 593 629 656 q 667 585 663 585 q 676 594 671 585 q 889 710 761 710 q 1056 643 996 710 q 1115 450 1115 576 l 1115 92 q 1135 52 1115 67 q 1183 35 1156 38 l 1221 32 q 1238 13 1238 31 q 1217 -6 1238 -6 l 1068 0 l 942 -6 q 921 13 921 -6 q 938 32 921 31 l 956 35 q 1007 92 1007 43 l 1007 469 q 858 643 1007 643 q 738 576 789 643 q 686 438 686 508 l 686 94 q 735 35 686 40 l 758 32 q 774 13 774 31 q 756 -6 774 -6 l 633 0 l 511 -6 q 490 12 490 -6 q 507 32 490 29 l 528 35 q 578 92 578 42 l 578 469 q 431 643 578 643 q 310 578 364 643 q 256 438 256 513 l 256 92 q 311 35 256 42 l 335 32 q 351 13 351 31 q 331 -6 351 -6 l 199 0 l 49 -6 q 28 13 28 -6 q 44 32 28 31 l 83 35 q 129 52 111 38 q 147 92 147 67 l 147 600 q 135 638 147 628 q 97 649 124 649 l 50 649 q 32 667 32 649 q 50 688 32 685 l 231 710 q 233 710 232 710 z "},"n":{"ha":889,"x_min":28,"x_max":875,"o":"m 233 710 q 256 678 256 710 l 256 607 q 260 600 256 600 q 274 608 265 600 q 484 710 354 710 q 683 641 614 710 q 753 443 753 572 l 753 92 q 773 52 753 67 q 821 35 793 38 l 858 32 q 875 13 875 31 q 854 -6 875 -6 l 706 0 l 579 -6 q 558 13 558 -6 q 575 32 558 31 l 593 35 q 644 92 644 43 l 644 463 q 596 596 644 549 q 462 643 547 643 q 316 573 376 643 q 256 435 256 503 l 256 92 q 311 35 256 42 l 335 32 q 351 13 351 31 q 331 -6 351 -6 l 199 0 l 49 -6 q 28 13 28 -6 q 44 32 28 31 l 83 35 q 129 52 111 38 q 147 92 147 67 l 147 600 q 135 638 147 628 q 97 649 124 649 l 50 649 q 32 667 32 649 q 50 688 32 685 l 231 710 q 233 710 232 710 z "},"o":{"ha":842,"x_min":69,"x_max":772,"o":"m 423 710 q 502 710 423 710 q 677 610 582 710 q 772 347 772 510 q 678 84 772 183 q 422 -15 583 -15 q 165 85 260 -15 q 69 346 69 185 q 167 608 69 507 q 423 710 264 710 m 606 540 q 535 624 582 593 q 422 656 489 656 q 250 579 307 656 q 193 379 193 503 q 238 153 193 251 q 308 70 261 101 q 418 39 354 39 q 592 115 536 39 q 649 318 649 192 q 606 540 649 444 z "},"p":{"ha":863,"x_min":14,"x_max":793,"o":"m 672 303 q 606 561 672 469 q 440 653 539 653 q 291 599 340 653 q 242 486 242 546 l 242 207 q 301 90 242 140 q 431 39 360 39 q 607 108 542 39 q 672 303 672 178 m 219 710 q 242 678 242 710 l 242 651 q 253 644 242 635 q 286 667 265 654 q 350 695 307 681 q 438 710 393 710 q 697 612 600 710 q 793 350 793 514 q 692 85 793 186 q 444 -15 590 -15 q 258 43 338 -15 q 247 44 251 49 q 242 31 242 40 l 242 -325 q 297 -382 242 -375 l 321 -385 q 338 -404 338 -386 q 317 -422 338 -422 l 185 -417 l 35 -422 q 14 -404 14 -422 q 31 -385 14 -386 l 69 -382 q 115 -365 97 -379 q 133 -325 133 -350 l 133 600 q 122 638 133 628 q 83 649 110 649 l 36 649 q 18 667 18 649 q 36 688 18 685 l 217 710 q 219 710 218 710 z "},"q":{"ha":839,"x_min":69,"x_max":853,"o":"m 738 690 l 731 603 l 731 -322 q 749 -363 731 -347 q 796 -382 768 -379 l 836 -385 q 853 -404 853 -386 q 833 -422 853 -422 l 681 -417 l 578 -422 q 557 -405 557 -422 q 574 -385 557 -387 l 589 -382 q 625 -331 625 -376 l 625 28 q 619 46 625 46 q 610 43 613 46 q 429 -15 536 -15 q 169 83 268 -15 q 69 351 69 182 q 175 603 69 496 q 425 710 281 710 q 606 671 521 710 q 652 658 632 658 q 690 685 672 658 q 719 713 707 713 q 738 690 738 713 m 622 139 l 622 499 q 567 613 622 569 q 439 656 513 656 q 258 581 325 656 q 192 388 192 507 q 262 136 192 225 q 451 47 332 47 q 567 78 511 47 q 622 139 622 108 z "},"r":{"ha":567,"x_min":28,"x_max":553,"o":"m 233 710 q 256 678 256 710 l 256 603 q 261 596 256 596 q 274 604 267 596 q 362 677 306 644 q 462 710 418 710 q 529 700 506 710 q 553 678 553 690 l 553 571 q 533 550 553 550 q 504 571 522 550 q 403 618 465 618 q 299 560 342 618 q 256 392 256 501 l 256 92 q 329 36 256 42 l 386 32 q 403 13 403 31 q 382 -6 403 -6 l 199 0 l 49 -6 q 28 13 28 -6 q 44 32 28 31 l 83 35 q 129 52 111 38 q 147 92 147 67 l 147 600 q 135 638 147 628 q 97 649 124 649 l 50 649 q 32 667 32 649 q 50 688 32 685 l 231 710 q 233 710 232 710 z "},"s":{"ha":614,"x_min":76,"x_max":551,"o":"m 551 179 q 481 38 551 92 q 310 -15 411 -15 q 143 8 210 -15 q 76 61 76 32 l 76 182 q 95 207 76 207 q 121 182 114 207 q 301 39 164 39 q 404 70 364 39 q 444 149 444 101 q 407 230 444 196 q 316 289 369 264 q 209 342 263 314 q 118 413 156 369 q 81 514 81 457 q 146 654 81 599 q 319 710 211 710 q 451 685 392 710 q 511 633 511 661 l 511 526 q 492 501 511 501 q 467 526 472 501 q 310 656 429 656 q 218 628 256 656 q 181 556 181 601 q 219 476 181 511 q 312 416 257 442 q 421 362 367 390 q 513 287 475 333 q 551 179 551 240 z "},"t":{"ha":501,"x_min":22,"x_max":500,"o":"m 500 67 q 444 13 500 40 q 331 -15 388 -15 q 185 33 229 -15 q 142 193 142 81 l 142 610 q 124 625 142 625 l 39 625 q 26 630 32 625 q 22 642 21 635 l 26 678 q 43 694 29 694 l 126 694 q 139 710 139 694 l 151 903 q 178 929 153 929 q 204 908 197 929 l 250 713 q 271 694 254 694 l 478 694 q 493 678 497 694 l 489 642 q 472 625 486 625 l 261 625 q 250 610 250 625 l 250 179 q 351 49 250 49 q 442 65 397 49 l 486 82 q 500 67 500 82 z "},"u":{"ha":872,"x_min":21,"x_max":858,"o":"m 743 636 l 743 126 q 771 55 743 82 q 838 28 799 28 q 858 11 858 28 q 804 -15 858 -15 q 661 53 722 -15 q 653 63 657 57 q 646 72 649 68 q 634 79 640 79 q 615 68 628 79 q 401 -15 521 -15 q 208 54 281 -15 q 136 251 136 124 l 136 603 q 124 642 136 631 q 88 653 113 653 l 40 653 q 27 658 33 653 q 21 672 21 664 q 40 692 21 689 l 224 710 q 231 710 228 710 q 258 688 258 710 q 251 671 258 685 q 244 636 244 657 l 244 229 q 298 94 244 143 q 435 44 351 44 q 577 107 519 44 q 635 249 635 169 l 635 603 q 623 642 635 631 q 586 653 611 653 l 525 653 q 512 658 518 653 q 506 672 506 664 q 525 692 506 689 l 719 710 q 726 710 722 710 q 754 688 754 710 q 749 671 754 685 q 743 636 743 657 z "},"v":{"ha":744,"x_min":1,"x_max":743,"o":"m 725 700 q 743 683 743 700 q 728 664 743 667 l 701 660 q 643 607 663 653 l 394 -3 q 372 -15 389 -15 q 349 -3 354 -15 l 100 611 q 43 660 83 653 l 17 664 q 1 683 1 667 q 21 700 1 700 l 158 694 l 292 700 q 315 683 315 700 q 297 664 315 667 l 268 661 q 218 625 218 657 q 221 608 218 614 l 390 161 q 398 154 393 154 q 406 160 403 154 l 582 608 q 588 632 588 621 q 544 661 588 657 l 517 664 q 500 683 500 667 q 519 700 500 700 l 625 694 l 725 700 z "},"w":{"ha":1128,"x_min":1,"x_max":1126,"o":"m 828 -3 q 805 -15 822 -15 q 782 -3 788 -15 l 568 528 q 560 535 564 535 q 546 522 550 535 l 342 -3 q 319 -15 336 -15 q 296 -3 301 -15 l 100 611 q 43 660 86 653 l 17 664 q 1 683 1 667 q 21 700 1 700 l 156 694 l 289 700 q 313 683 313 700 q 294 664 313 667 l 265 661 q 217 621 217 657 q 218 608 217 613 l 344 176 q 351 171 347 171 q 357 179 356 171 l 553 672 q 588 690 560 690 q 622 672 615 690 l 822 181 q 829 176 825 176 q 835 183 833 176 l 969 608 q 972 624 972 619 q 929 661 972 657 l 904 664 q 888 683 888 667 q 907 700 888 700 l 1010 694 l 1108 700 q 1126 683 1126 700 q 1111 664 1126 667 l 1085 660 q 1026 607 1042 653 l 828 -3 z "},"x":{"ha":765,"x_min":1,"x_max":764,"o":"m 317 325 q 321 337 321 329 q 317 349 321 344 l 131 610 q 99 645 114 635 q 61 658 85 656 l 19 664 q 4 683 4 667 q 24 700 4 700 l 179 694 l 304 700 q 325 683 325 700 q 308 664 325 667 l 293 663 q 254 629 254 660 q 261 610 254 618 l 386 435 l 394 431 q 403 436 399 431 l 539 610 q 550 635 550 622 q 501 664 550 658 q 485 683 485 667 q 506 700 485 700 l 611 694 l 724 700 q 743 683 743 700 q 726 664 743 667 l 686 658 q 614 607 650 654 l 440 385 q 436 374 436 381 q 439 363 436 368 l 638 85 q 669 49 654 60 q 707 36 683 39 l 749 31 q 764 11 764 28 q 744 -6 764 -6 l 589 0 l 464 -6 q 443 11 443 -6 q 460 31 443 28 l 475 32 q 514 65 514 35 q 507 85 514 76 l 371 274 q 363 279 367 279 q 354 274 358 279 l 206 85 q 194 60 194 72 q 243 31 194 36 q 260 11 260 28 q 239 -6 260 -6 l 133 0 l 21 -6 q 1 11 1 -6 q 18 31 1 28 l 58 36 q 131 88 94 40 l 317 325 z "},"y":{"ha":742,"x_min":1,"x_max":740,"o":"m 574 629 q 536 661 574 656 l 511 664 q 494 683 494 667 q 514 700 494 700 l 622 694 l 722 700 q 740 683 740 700 q 725 664 740 667 l 699 660 q 633 606 653 653 l 336 -82 q 142 -362 240 -299 q 110 -376 119 -376 q 97 -374 100 -376 l 56 -321 q 50 -304 50 -314 q 58 -289 50 -294 q 125 -252 103 -267 q 183 -203 147 -237 q 326 44 244 -142 q 331 61 331 51 q 326 79 331 71 l 107 610 q 43 660 92 649 l 17 664 q 1 683 1 667 q 21 700 1 700 l 158 694 l 296 700 q 319 683 319 700 q 301 664 319 667 l 272 661 q 235 644 246 660 q 232 610 224 629 l 389 200 q 395 197 390 197 q 403 203 400 196 l 569 610 q 574 629 574 621 z "},"z":{"ha":656,"x_min":35,"x_max":626,"o":"m 578 0 l 51 0 q 35 15 35 0 l 35 28 q 42 51 35 42 l 444 629 q 436 643 453 643 l 253 643 q 110 554 139 643 q 83 529 104 529 q 68 537 74 529 q 64 554 63 544 l 75 651 q 113 694 79 694 l 576 694 q 594 682 594 694 l 594 668 q 576 633 594 660 l 192 76 q 187 62 186 69 q 196 54 188 54 l 436 54 q 526 85 488 54 q 582 168 565 115 q 608 192 590 192 q 622 184 617 192 q 626 168 628 176 l 614 44 q 578 0 610 0 z "},"{":{"ha":550,"x_min":28,"x_max":467,"o":"m 28 372 l 28 396 q 46 414 28 414 l 61 414 q 150 452 128 415 q 172 575 172 489 l 172 838 q 408 1076 172 1076 l 449 1076 q 467 1058 467 1076 l 467 1035 q 449 1017 467 1017 l 408 1017 q 306 973 336 1017 q 276 842 276 929 l 276 579 q 248 453 276 507 q 164 383 219 400 q 248 315 219 368 q 276 189 276 261 l 276 -74 q 306 -205 276 -161 q 408 -249 336 -249 l 449 -249 q 467 -267 467 -249 l 467 -290 q 449 -308 467 -308 l 408 -308 q 172 -69 172 -308 l 172 193 q 150 317 172 279 q 61 354 128 354 l 46 354 q 28 372 28 354 z "},"|":{"ha":429,"x_min":167,"x_max":263,"o":"m 167 -364 l 167 1094 q 182 1111 167 1111 l 247 1111 q 263 1094 263 1111 l 263 -364 q 247 -381 263 -381 l 182 -381 q 167 -364 167 -381 z "},"}":{"ha":578,"x_min":83,"x_max":522,"o":"m 522 396 l 522 372 q 504 354 522 354 l 489 354 q 400 317 422 354 q 378 193 378 279 l 378 -69 q 142 -308 378 -308 l 101 -308 q 83 -290 83 -308 l 83 -267 q 101 -249 83 -249 l 142 -249 q 244 -205 214 -249 q 274 -74 274 -161 l 274 189 q 302 315 274 261 q 386 383 331 368 q 302 453 331 400 q 274 579 274 507 l 274 842 q 244 973 274 929 q 142 1017 214 1017 l 101 1017 q 83 1035 83 1017 l 83 1058 q 101 1076 83 1076 l 142 1076 q 378 838 378 1076 l 378 575 q 400 452 378 489 q 489 414 422 415 l 504 414 q 522 396 522 414 z "},"~":{"ha":888,"x_min":68,"x_max":819,"o":"m 290 414 q 140 324 204 414 q 128 315 135 315 q 117 318 122 315 l 78 343 q 69 353 69 347 q 76 372 69 360 q 300 507 160 507 q 456 462 365 507 q 597 417 546 417 q 747 507 683 417 q 759 515 753 515 q 771 513 765 515 l 810 488 q 818 478 818 483 q 811 458 818 471 q 588 324 728 324 q 431 369 526 324 q 290 414 336 414 z "}," ":{"ha":319,"x_min":0,"x_max":0,"o":""},"¡":{"ha":365,"x_min":97,"x_max":268,"o":"m 114 -233 q 158 374 114 -233 q 176 389 158 389 l 190 389 q 208 374 207 389 q 235 20 217 250 q 253 -237 253 -210 q 232 -278 253 -264 q 183 -293 211 -293 q 134 -278 154 -293 q 114 -233 114 -262 m 183 539 q 165 539 183 539 q 122 564 147 539 q 97 624 97 589 q 123 685 97 660 q 183 710 149 710 q 243 685 218 710 q 268 625 268 660 q 243 565 268 590 q 183 539 218 539 z "},"¢":{"ha":729,"x_min":69,"x_max":660,"o":"m 656 611 l 656 490 q 636 467 656 467 q 614 490 619 467 q 497 642 582 607 l 371 69 q 457 56 411 56 q 621 97 556 56 q 639 104 631 104 q 653 99 647 104 q 660 83 660 93 q 649 61 660 72 q 424 -15 572 -15 q 354 -10 399 -15 l 319 -167 q 300 -183 317 -183 l 268 -183 q 254 -167 251 -183 l 292 6 q 130 130 190 40 q 69 361 69 219 q 170 606 69 503 q 418 710 271 710 q 447 708 438 710 l 479 854 q 499 871 482 871 l 531 871 q 544 854 547 871 l 511 701 q 615 663 575 689 q 656 611 656 638 m 192 374 q 313 97 192 179 l 435 656 l 426 656 q 257 578 322 656 q 192 374 192 501 z "},"£":{"ha":750,"x_min":83,"x_max":681,"o":"m 578 115 q 636 137 625 115 q 664 158 647 158 q 681 136 681 158 l 681 132 l 674 44 q 661 12 672 24 q 636 0 650 0 l 113 0 q 96 15 96 0 l 96 38 q 118 67 96 44 q 166 117 140 90 q 214 192 192 144 q 236 297 236 240 q 213 433 236 353 l 100 433 q 83 449 83 433 l 83 486 q 100 501 83 501 l 192 501 q 171 560 178 536 q 156 609 164 585 q 145 647 149 633 q 138 681 142 660 q 131 749 131 714 q 208 920 131 853 q 413 988 285 988 q 581 954 506 988 q 656 892 656 921 l 656 782 q 649 765 656 772 q 630 757 642 757 q 599 785 618 757 q 561 845 581 813 q 501 906 542 878 q 398 933 460 933 q 290 891 336 933 q 244 769 244 849 q 276 615 244 708 q 315 501 308 522 l 542 501 q 558 486 558 501 l 558 449 q 542 433 558 433 l 332 433 q 343 337 343 385 q 316 232 343 289 q 261 144 289 175 l 233 115 l 578 115 z "},"¤":{"ha":886,"x_min":97,"x_max":789,"o":"m 257 721 q 442 783 339 783 q 628 721 546 783 l 722 815 q 733 821 728 821 l 744 815 l 783 776 q 789 765 789 771 q 783 754 789 760 l 689 660 q 751 474 751 578 q 689 289 751 371 l 783 196 q 789 185 789 190 q 783 174 789 179 l 744 135 q 733 129 739 129 l 722 135 l 628 228 q 442 167 547 167 q 257 228 338 167 l 164 135 q 153 129 158 129 l 142 135 l 103 174 q 97 185 97 179 q 103 196 97 190 l 196 289 q 135 474 135 369 q 196 660 135 579 l 103 754 q 97 765 97 760 q 103 776 97 771 l 142 815 q 153 821 147 821 l 164 815 l 257 721 m 599 636 q 567 670 599 636 q 443 704 535 704 q 287 636 351 704 q 222 475 222 568 q 287 314 222 382 q 443 246 351 246 q 599 314 535 246 q 664 475 664 382 q 599 636 664 568 z "},"¥":{"ha":989,"x_min":0,"x_max":996,"o":"m 229 431 l 426 431 l 136 881 q 56 936 103 932 l 15 940 q 0 960 0 943 q 19 976 0 976 l 185 972 l 332 975 q 353 957 353 975 q 336 938 353 939 l 310 935 q 277 914 285 932 q 281 881 269 896 l 522 483 q 535 474 528 474 q 547 481 542 474 l 785 881 q 788 913 796 896 q 756 935 781 931 l 729 938 q 713 958 710 940 q 733 975 714 975 l 842 972 l 976 976 q 996 960 996 976 q 981 940 996 943 l 940 936 q 861 881 894 932 l 590 447 l 582 431 l 793 431 q 810 415 810 431 l 810 378 q 793 363 810 363 l 571 363 l 571 258 l 793 258 q 810 243 810 258 l 810 206 q 793 190 810 190 l 571 190 l 571 92 q 589 52 571 67 q 633 35 607 38 l 674 32 q 690 14 690 32 q 684 0 690 6 q 671 -6 678 -6 l 514 0 l 375 -6 q 356 12 356 -6 q 371 32 356 29 l 394 35 q 451 92 451 42 l 451 190 l 229 190 q 213 206 213 190 l 213 243 q 229 258 213 258 l 451 258 l 451 363 l 229 363 q 213 378 213 363 l 213 415 q 229 431 213 431 z "},"¦":{"ha":429,"x_min":167,"x_max":263,"o":"m 167 486 l 167 1094 q 182 1111 167 1111 l 247 1111 q 263 1094 263 1111 l 263 486 q 247 469 263 469 l 182 469 q 167 486 167 469 m 167 -364 l 167 244 q 182 261 167 261 l 247 261 q 263 244 263 261 l 263 -364 q 247 -381 263 -381 l 182 -381 q 167 -364 167 -381 z "},"§":{"ha":692,"x_min":83,"x_max":608,"o":"m 463 670 q 493 657 463 670 q 566 602 524 644 q 608 502 608 560 q 563 401 608 444 q 440 338 518 357 q 564 263 519 303 q 608 163 608 222 q 531 33 608 82 q 342 -15 453 -15 q 158 6 232 -15 q 83 54 83 28 l 83 165 q 90 181 83 174 q 106 188 96 188 q 132 165 125 188 q 332 35 179 35 q 446 63 401 35 q 490 135 490 92 q 449 210 490 179 q 348 263 407 240 q 230 311 289 286 q 129 376 171 336 q 88 472 88 415 q 135 575 88 529 q 265 638 182 621 q 134 711 181 672 q 88 810 88 750 q 160 938 88 888 q 351 988 232 988 q 497 966 431 988 q 564 918 564 944 l 564 821 q 542 799 564 799 q 514 821 521 799 q 342 939 474 939 q 240 914 281 939 q 199 847 199 889 q 241 774 199 806 q 343 719 283 743 q 463 670 403 696 m 367 596 l 342 597 q 240 572 281 597 q 199 506 199 547 q 237 435 199 464 q 349 376 275 406 q 451 408 411 379 q 490 478 490 438 q 458 544 490 518 q 367 596 426 569 z "},"¨":{"ha":576,"x_min":83,"x_max":493,"o":"m 104 864 q 94 874 104 864 q 83 915 83 885 q 104 967 83 946 q 156 988 125 988 q 207 967 186 988 q 228 915 228 946 q 207 864 228 885 q 156 843 186 843 q 104 864 125 843 m 369 864 q 359 874 369 864 q 349 915 349 885 q 369 967 349 946 q 421 988 390 988 q 472 967 451 988 q 493 915 493 946 q 472 864 493 885 q 421 843 451 843 q 369 864 390 843 z "},"©":{"ha":1169,"x_min":83,"x_max":1086,"o":"m 279 803 q 220 742 279 803 q 161 486 161 682 q 279 169 161 290 q 585 49 397 49 q 890 169 772 49 q 1008 486 1008 290 q 890 803 1008 682 q 585 924 772 924 q 279 803 397 924 m 225 126 q 154 196 225 126 q 83 486 83 267 q 225 847 83 706 q 585 988 367 988 q 944 847 803 988 q 1086 486 1086 706 q 944 126 1086 267 q 585 -15 803 -15 q 225 126 367 -15 m 794 635 q 790 621 794 628 q 778 614 785 614 q 754 635 763 614 q 701 719 740 689 q 607 750 661 750 q 449 682 507 750 q 390 508 390 614 q 452 320 390 403 q 608 238 514 238 q 756 282 703 238 q 785 288 774 297 q 796 272 796 279 q 788 257 796 265 q 593 181 719 181 q 385 267 467 181 q 303 486 303 354 q 386 705 303 618 q 607 792 469 792 q 736 771 678 792 q 794 731 794 750 l 794 635 z "},"ª":{"ha":621,"x_min":97,"x_max":524,"o":"m 524 525 q 486 504 524 504 q 388 550 424 504 l 382 557 q 251 504 315 504 q 146 538 186 504 q 106 615 106 572 q 122 683 106 658 q 157 723 138 708 q 213 749 176 738 q 299 769 264 764 q 343 777 333 775 q 357 779 353 779 q 363 786 363 782 l 363 869 q 340 924 363 904 q 280 944 317 944 q 211 918 243 944 q 167 853 179 892 q 147 835 164 835 q 135 840 140 835 q 129 854 129 846 l 129 922 q 135 943 129 938 q 283 988 192 988 q 411 947 374 988 q 449 843 449 906 l 449 601 q 465 558 449 575 q 503 542 482 542 q 524 525 524 542 m 361 608 l 361 722 q 358 729 361 729 q 353 729 354 729 q 196 636 196 711 q 219 581 196 601 q 269 561 242 561 q 319 572 297 561 q 351 593 342 582 q 361 608 361 604 m 114 371 l 501 371 q 518 356 518 371 l 518 321 q 501 306 518 306 l 114 306 q 97 321 97 306 l 97 356 q 114 371 97 371 z "},"«":{"ha":632,"x_min":69,"x_max":536,"o":"m 74 329 q 69 342 69 336 q 74 354 69 347 l 261 611 q 272 622 267 622 q 293 615 278 622 q 303 594 308 608 l 186 342 l 303 89 q 293 68 308 75 q 272 61 278 61 q 261 72 267 61 l 74 329 m 304 329 q 300 342 300 336 q 304 354 300 347 l 492 611 q 503 622 497 622 q 522 616 508 622 q 535 601 535 610 q 533 594 535 599 l 417 342 l 533 89 q 535 82 535 85 q 524 68 535 74 q 503 61 508 61 q 492 72 497 61 l 304 329 z "},"¬":{"ha":881,"x_min":83,"x_max":769,"o":"m 769 561 l 769 261 q 754 244 769 244 l 699 244 q 683 261 683 244 l 683 490 l 100 490 q 83 506 83 490 l 83 561 q 100 576 83 576 l 753 576 q 769 561 769 576 z "},"®":{"ha":1169,"x_min":83,"x_max":1086,"o":"m 525 219 l 561 218 q 574 203 574 218 q 558 188 574 188 l 454 190 q 370 188 393 188 q 344 200 347 188 q 358 218 344 217 l 383 219 q 413 250 413 222 l 413 722 q 379 751 413 749 l 354 754 q 342 771 342 757 q 357 785 342 785 l 472 782 l 628 782 q 763 740 710 782 q 815 632 815 697 q 769 522 815 567 q 661 468 722 478 q 679 451 674 463 l 804 251 q 856 219 821 225 l 871 218 q 886 201 886 215 q 869 188 886 188 q 768 190 789 190 q 736 208 747 190 l 594 443 q 561 467 579 467 l 500 467 q 492 461 492 467 l 492 250 q 525 219 492 222 m 693 543 q 712 558 693 543 q 731 625 731 574 q 693 706 731 676 q 600 736 656 736 l 521 736 q 492 707 492 736 l 492 519 q 497 513 492 513 l 600 513 q 693 543 656 513 m 279 803 q 220 742 279 803 q 161 486 161 682 q 279 169 161 290 q 585 49 397 49 q 890 169 772 49 q 1008 486 1008 290 q 890 803 1008 682 q 585 924 772 924 q 279 803 397 924 m 225 126 q 154 196 225 126 q 83 486 83 267 q 225 847 83 706 q 585 988 367 988 q 944 847 803 988 q 1086 486 1086 706 q 944 126 1086 267 q 585 -15 803 -15 q 225 126 367 -15 z "},"¯":{"ha":583,"x_min":90,"x_max":493,"o":"m 90 871 l 90 956 l 493 956 l 493 871 l 90 871 z "},"°":{"ha":567,"x_min":83,"x_max":483,"o":"m 141 647 q 112 676 141 647 q 83 789 83 704 q 141 931 83 874 q 283 988 199 988 q 426 931 368 988 q 483 789 483 874 q 426 647 483 704 q 283 590 368 590 q 141 647 199 590 m 200 876 q 183 858 200 876 q 167 789 167 840 q 200 702 167 738 q 283 667 233 667 q 367 702 333 667 q 400 789 400 738 q 367 876 400 840 q 283 911 333 911 q 200 876 233 911 z "},"±":{"ha":992,"x_min":111,"x_max":881,"o":"m 864 450 l 539 450 l 539 208 q 524 192 539 192 l 468 192 q 453 208 453 192 l 453 450 l 128 450 q 111 465 111 450 l 111 521 q 128 536 111 536 l 453 536 l 453 778 q 468 794 453 794 l 524 794 q 539 778 539 794 l 539 536 l 864 536 q 881 521 881 536 l 881 465 q 864 450 881 450 m 864 25 l 128 25 q 111 40 111 25 l 111 96 q 128 111 111 111 l 864 111 q 881 96 881 111 l 881 40 q 864 25 881 25 z "},"²":{"ha":501,"x_min":83,"x_max":417,"o":"m 383 421 l 103 421 q 83 439 83 421 l 83 446 q 92 468 83 451 q 192 613 153 560 q 250 697 231 667 q 307 840 307 782 q 231 925 307 925 q 147 850 172 925 q 122 829 143 829 q 101 853 101 829 l 101 911 q 142 951 101 931 q 247 972 183 972 q 354 934 311 972 q 397 835 397 896 q 344 700 397 771 q 267 606 325 675 q 186 504 210 536 l 353 504 q 378 515 372 504 q 396 526 385 526 q 413 519 407 526 q 417 503 418 513 l 414 453 q 403 430 413 439 q 383 421 394 421 z "},"³":{"ha":464,"x_min":83,"x_max":381,"o":"m 258 721 q 346 673 311 708 q 381 581 381 638 q 336 481 381 524 q 115 406 258 406 q 86 431 86 406 q 114 456 86 453 q 290 582 290 471 q 169 675 290 672 q 136 699 136 675 q 144 717 136 711 q 247 792 218 758 q 275 858 275 826 q 213 924 275 924 q 136 867 163 924 q 104 831 124 831 q 90 838 96 831 q 83 853 83 846 l 83 911 q 122 952 83 932 q 219 972 160 972 q 322 944 279 972 q 365 863 365 917 q 258 721 365 792 z "},"´":{"ha":479,"x_min":90,"x_max":389,"o":"m 300 1019 q 334 1032 314 1032 q 372 1012 354 1032 q 389 965 389 992 q 363 924 389 938 l 115 803 l 90 836 l 300 1019 z "},"µ":{"ha":872,"x_min":21,"x_max":858,"o":"m 136 603 q 124 642 136 631 q 88 653 113 653 l 40 653 q 27 658 33 653 q 21 672 21 664 q 40 692 21 689 l 224 710 q 231 710 228 710 q 258 688 258 710 q 251 671 258 685 q 244 636 244 657 l 244 221 q 301 92 247 139 q 437 44 354 44 q 577 107 519 44 q 635 249 635 169 l 635 603 q 623 642 635 631 q 586 653 611 653 l 525 653 q 512 658 518 653 q 506 672 506 664 q 525 692 506 689 l 719 710 q 726 710 722 710 q 754 688 754 710 q 749 671 754 685 q 743 636 743 657 l 743 126 q 771 55 743 82 q 838 28 799 28 q 858 11 858 28 q 804 -15 858 -15 q 661 53 722 -15 q 653 63 657 57 q 646 72 649 68 q 634 79 640 79 q 615 68 628 79 q 415 -15 521 -15 q 244 25 310 -15 l 244 -228 q 229 -244 244 -244 l 151 -244 q 136 -228 136 -244 l 136 603 z "},"¶":{"ha":999,"x_min":69,"x_max":929,"o":"m 700 911 l 561 911 l 561 -281 q 546 -297 561 -297 l 335 -303 q 315 -284 315 -303 q 331 -265 315 -265 l 389 -262 q 433 -246 415 -261 q 451 -206 451 -231 l 451 404 q 431 421 451 421 l 392 421 q 157 501 244 421 q 69 703 69 582 q 159 899 69 825 q 408 972 249 972 l 718 972 l 910 978 q 929 958 929 978 q 914 940 929 943 l 874 936 q 810 881 810 931 l 810 -206 q 867 -262 810 -258 l 907 -265 q 924 -286 924 -267 q 903 -303 924 -303 l 715 -297 q 700 -281 700 -297 l 700 911 z "},"·":{"ha":338,"x_min":83,"x_max":254,"o":"m 168 561 q 185 561 168 561 q 228 536 203 561 q 254 476 254 511 q 228 415 254 440 q 168 390 203 390 q 108 415 133 390 q 83 475 83 440 q 108 535 83 510 q 168 561 133 561 z "},"¸":{"ha":421,"x_min":90,"x_max":331,"o":"m 331 -214 q 331 -243 331 -214 q 281 -308 331 -272 q 161 -343 231 -343 q 90 -332 126 -343 l 90 -282 q 153 -290 117 -290 q 215 -273 189 -290 q 242 -224 242 -256 q 215 -171 242 -192 q 164 -144 189 -150 l 138 -139 l 196 0 l 244 -7 l 215 -86 q 228 -90 219 -87 q 256 -101 236 -92 q 290 -122 275 -110 q 331 -214 331 -156 z "},"¹":{"ha":422,"x_min":83,"x_max":339,"o":"m 281 460 l 319 458 q 339 439 339 458 q 333 424 339 431 q 318 418 326 418 l 215 421 l 107 418 q 86 438 86 418 q 106 458 86 458 l 144 460 q 175 482 175 463 l 175 897 q 150 917 175 919 l 101 915 q 83 933 83 915 q 101 954 83 951 q 235 972 196 968 q 256 954 256 972 l 256 482 q 281 460 256 463 z "},"º":{"ha":661,"x_min":97,"x_max":564,"o":"m 332 988 q 385 988 332 988 q 501 920 438 988 q 564 745 564 853 q 501 571 564 638 q 331 504 438 504 q 160 572 224 504 q 97 745 97 639 q 162 919 97 851 q 332 988 226 988 m 474 726 q 474 765 474 726 q 453 853 474 804 q 403 921 432 901 q 332 940 374 940 q 224 892 260 940 q 188 763 188 844 q 220 616 188 681 q 328 551 253 551 q 438 599 403 551 q 474 726 474 647 m 114 371 l 547 371 q 564 356 564 371 l 564 321 q 547 306 564 306 l 114 306 q 97 321 97 306 l 97 356 q 114 371 97 371 z "},"»":{"ha":632,"x_min":96,"x_max":563,"o":"m 558 354 q 563 342 563 347 q 558 329 563 336 l 371 72 q 360 61 365 61 q 339 68 354 61 q 329 89 324 75 l 446 342 l 329 594 q 339 615 324 608 q 360 622 354 622 q 371 611 365 622 l 558 354 m 328 354 q 332 342 332 347 q 328 329 332 336 l 140 72 q 129 61 135 61 q 110 67 124 61 q 97 82 97 74 q 99 89 97 85 l 215 342 l 99 594 q 97 601 97 599 q 108 615 97 610 q 129 622 124 622 q 140 611 135 622 l 328 354 z "},"¼":{"ha":1054,"x_min":83,"x_max":971,"o":"m 281 460 l 319 458 q 339 439 339 458 q 333 424 339 431 q 318 418 326 418 l 215 421 l 107 418 q 86 438 86 418 q 106 458 86 458 l 144 460 q 175 482 175 463 l 175 897 q 150 917 175 919 l 101 915 q 83 933 83 915 q 101 954 83 951 q 235 972 196 968 q 256 954 256 972 l 256 482 q 281 460 256 463 m 971 169 q 947 146 971 146 l 901 146 l 901 25 q 878 0 901 0 l 846 0 q 819 25 819 0 l 819 146 l 597 146 q 578 164 578 146 l 578 172 q 586 193 578 182 l 833 536 q 861 551 846 551 l 876 551 q 901 524 901 551 l 901 208 l 947 208 q 971 186 971 208 l 971 169 m 819 208 l 819 425 l 667 208 l 819 208 m 267 -32 l 218 -32 q 207 -26 207 -32 q 210 -15 207 -21 l 750 988 q 775 1004 758 1004 l 824 1004 q 835 999 835 1004 q 832 988 835 993 l 292 -15 q 267 -32 283 -32 z "},"½":{"ha":1075,"x_min":83,"x_max":990,"o":"m 267 -32 l 218 -32 q 210 -15 201 -32 l 750 988 q 775 1004 758 1004 l 824 1004 q 832 988 840 1004 l 292 -15 q 267 -32 283 -32 m 957 0 l 676 0 q 657 18 657 0 l 657 25 q 665 47 657 31 q 765 192 726 139 q 825 276 804 246 q 881 419 881 361 q 804 504 881 504 q 721 429 746 504 q 696 408 717 408 q 675 432 675 408 l 675 490 q 716 531 675 510 q 821 551 757 551 q 928 513 885 551 q 971 414 971 475 q 917 279 971 350 q 841 185 899 254 q 760 83 783 115 l 926 83 q 952 94 946 83 q 969 106 958 106 q 990 83 993 106 l 988 32 q 977 9 986 18 q 957 0 968 0 m 281 460 l 319 458 q 339 439 339 458 q 333 424 339 431 q 318 418 326 418 l 215 421 l 107 418 q 86 438 86 418 q 106 458 86 458 l 144 460 q 175 482 175 463 l 175 897 q 150 917 175 919 l 101 915 q 83 933 83 915 q 101 954 83 951 q 235 972 196 968 q 256 954 256 972 l 256 482 q 281 460 256 463 z "},"¾":{"ha":1089,"x_min":83,"x_max":1006,"o":"m 1006 169 q 982 146 1006 146 l 936 146 l 936 25 q 913 0 936 0 l 881 0 q 854 25 854 0 l 854 146 l 632 146 q 613 164 613 146 l 613 172 q 621 193 613 182 l 868 536 q 896 551 881 551 l 911 551 q 936 524 936 551 l 936 208 l 982 208 q 1006 186 1006 208 l 1006 169 m 854 208 l 854 425 l 701 208 l 854 208 m 258 721 q 346 673 311 708 q 381 581 381 638 q 336 481 381 524 q 115 406 258 406 q 86 431 86 406 q 114 456 86 453 q 290 582 290 471 q 169 675 290 672 q 136 699 136 675 q 144 717 136 711 q 247 792 218 758 q 275 858 275 826 q 213 924 275 924 q 136 867 163 924 q 104 831 124 831 q 90 838 96 831 q 83 853 83 846 l 83 911 q 122 952 83 932 q 219 972 160 972 q 322 944 279 972 q 365 863 365 917 q 258 721 365 792 m 303 -32 l 254 -32 q 243 -26 243 -32 q 246 -15 243 -21 l 786 988 q 811 1004 794 1004 l 860 1004 q 871 999 871 1004 q 868 988 871 993 l 328 -15 q 303 -32 319 -32 z "},"¿":{"ha":528,"x_min":42,"x_max":500,"o":"m 306 389 l 319 389 q 338 368 336 389 q 340 314 340 347 q 328 230 340 281 q 291 135 317 179 q 239 53 265 92 q 172 -107 172 -42 q 205 -206 172 -172 q 292 -239 238 -239 q 378 -206 346 -239 q 434 -119 410 -174 q 478 -65 458 -65 q 494 -74 488 -65 q 500 -89 500 -82 l 500 -199 q 438 -261 500 -229 q 277 -293 376 -293 q 110 -244 178 -293 q 42 -101 42 -196 q 121 74 42 -12 q 189 149 154 110 q 288 374 272 242 q 306 389 288 389 m 313 539 q 295 539 313 539 q 253 564 278 539 q 228 624 228 589 q 253 685 228 660 q 314 710 279 710 q 374 685 349 710 q 399 625 399 660 q 374 565 399 590 q 313 539 349 539 z "},"À":{"ha":996,"x_min":-14,"x_max":1010,"o":"m 315 382 l 625 382 q 635 399 640 382 l 469 824 l 304 396 q 315 382 300 382 m 186 92 q 183 73 183 83 q 194 49 183 63 q 225 35 206 36 l 256 32 q 274 14 274 29 q 253 -6 274 -6 l 132 0 l 6 -6 q -14 13 -14 -6 q 1 32 -14 32 l 28 35 q 108 92 88 42 l 465 971 q 498 988 471 988 q 532 971 525 988 l 888 92 q 967 35 906 40 l 996 32 q 1006 26 1001 32 q 1010 15 1010 21 q 990 -6 1010 -6 l 831 0 l 688 -6 q 668 11 668 -6 q 685 32 668 31 l 717 35 q 747 49 735 36 q 758 72 758 61 q 754 92 758 83 l 672 304 q 650 318 668 318 l 290 318 q 268 304 274 318 l 186 92 m 347 1201 q 321 1242 321 1215 q 338 1290 321 1269 q 375 1310 356 1310 q 410 1297 394 1310 l 619 1114 l 594 1081 l 347 1201 z "},"Á":{"ha":996,"x_min":-14,"x_max":1010,"o":"m 315 382 l 625 382 q 635 399 640 382 l 469 824 l 304 396 q 315 382 300 382 m 186 92 q 183 73 183 83 q 194 49 183 63 q 225 35 206 36 l 256 32 q 274 14 274 29 q 253 -6 274 -6 l 132 0 l 6 -6 q -14 13 -14 -6 q 1 32 -14 32 l 28 35 q 108 92 88 42 l 465 971 q 498 988 471 988 q 532 971 525 988 l 888 92 q 967 35 906 40 l 996 32 q 1006 26 1001 32 q 1010 15 1010 21 q 990 -6 1010 -6 l 831 0 l 688 -6 q 668 11 668 -6 q 685 32 668 31 l 717 35 q 747 49 735 36 q 758 72 758 61 q 754 92 758 83 l 672 304 q 650 318 668 318 l 290 318 q 268 304 274 318 l 186 92 m 600 1297 q 634 1310 614 1310 q 672 1290 654 1310 q 689 1242 689 1269 q 663 1201 689 1215 l 415 1081 l 390 1114 l 600 1297 z "},"Â":{"ha":996,"x_min":-14,"x_max":1010,"o":"m 315 382 l 625 382 q 635 399 640 382 l 469 824 l 304 396 q 315 382 300 382 m 186 92 q 183 73 183 83 q 194 49 183 63 q 225 35 206 36 l 256 32 q 274 14 274 29 q 253 -6 274 -6 l 132 0 l 6 -6 q -14 13 -14 -6 q 1 32 -14 32 l 28 35 q 108 92 88 42 l 465 971 q 498 988 471 988 q 532 971 525 988 l 888 92 q 967 35 906 40 l 996 32 q 1006 26 1001 32 q 1010 15 1010 21 q 990 -6 1010 -6 l 831 0 l 688 -6 q 668 11 668 -6 q 685 32 668 31 l 717 35 q 747 49 735 36 q 758 72 758 61 q 754 92 758 83 l 672 304 q 650 318 668 318 l 290 318 q 268 304 274 318 l 186 92 m 307 1100 l 282 1132 l 497 1322 l 713 1132 l 688 1100 l 497 1206 l 307 1100 z "},"Ã":{"ha":996,"x_min":-14,"x_max":1010,"o":"m 315 382 l 625 382 q 635 399 640 382 l 469 824 l 304 396 q 315 382 300 382 m 186 92 q 183 73 183 83 q 194 49 183 63 q 225 35 206 36 l 256 32 q 274 14 274 29 q 253 -6 274 -6 l 132 0 l 6 -6 q -14 13 -14 -6 q 1 32 -14 32 l 28 35 q 108 92 88 42 l 465 971 q 498 988 471 988 q 532 971 525 988 l 888 92 q 967 35 906 40 l 996 32 q 1006 26 1001 32 q 1010 15 1010 21 q 990 -6 1010 -6 l 831 0 l 688 -6 q 668 11 668 -6 q 685 32 668 31 l 717 35 q 747 49 735 36 q 758 72 758 61 q 754 92 758 83 l 672 304 q 650 318 668 318 l 290 318 q 268 304 274 318 l 186 92 m 585 1125 q 485 1157 547 1125 q 387 1189 422 1189 q 329 1172 351 1189 q 300 1139 307 1156 l 293 1122 l 249 1143 q 297 1225 256 1179 q 410 1271 339 1271 q 518 1239 450 1271 q 615 1207 586 1207 q 665 1224 643 1207 q 694 1257 688 1240 l 701 1274 l 746 1253 q 697 1171 739 1217 q 585 1125 656 1125 z "},"Ä":{"ha":996,"x_min":-14,"x_max":1010,"o":"m 315 382 l 625 382 q 635 399 640 382 l 469 824 l 304 396 q 315 382 300 382 m 186 92 q 183 73 183 83 q 194 49 183 63 q 225 35 206 36 l 256 32 q 274 14 274 29 q 253 -6 274 -6 l 132 0 l 6 -6 q -14 13 -14 -6 q 1 32 -14 32 l 28 35 q 108 92 88 42 l 465 971 q 498 988 471 988 q 532 971 525 988 l 888 92 q 967 35 906 40 l 996 32 q 1006 26 1001 32 q 1010 15 1010 21 q 990 -6 1010 -6 l 831 0 l 688 -6 q 668 11 668 -6 q 685 32 668 31 l 717 35 q 747 49 735 36 q 758 72 758 61 q 754 92 758 83 l 672 304 q 650 318 668 318 l 290 318 q 268 304 274 318 l 186 92 m 314 1142 q 303 1152 314 1142 q 293 1193 293 1163 q 314 1244 293 1224 q 365 1265 335 1265 q 417 1244 396 1265 q 438 1193 438 1224 q 417 1142 438 1163 q 365 1121 396 1121 q 314 1142 335 1121 m 579 1142 q 569 1152 579 1142 q 558 1193 558 1163 q 579 1244 558 1224 q 631 1265 600 1265 q 682 1244 661 1265 q 703 1193 703 1224 q 682 1142 703 1163 q 631 1121 661 1121 q 579 1142 600 1121 z "},"Å":{"ha":996,"x_min":-14,"x_max":1010,"o":"m 315 382 l 625 382 q 635 399 640 382 l 469 824 l 304 396 q 315 382 300 382 m 186 92 q 183 73 183 83 q 194 49 183 63 q 225 35 206 36 l 256 32 q 274 14 274 29 q 253 -6 274 -6 l 132 0 l 6 -6 q -14 13 -14 -6 q 1 32 -14 32 l 28 35 q 108 92 88 42 l 465 971 q 498 988 471 988 q 532 971 525 988 l 888 92 q 967 35 906 40 l 996 32 q 1006 26 1001 32 q 1010 15 1010 21 q 990 -6 1010 -6 l 831 0 l 688 -6 q 668 11 668 -6 q 685 32 668 31 l 717 35 q 747 49 735 36 q 758 72 758 61 q 754 92 758 83 l 672 304 q 650 318 668 318 l 290 318 q 268 304 274 318 l 186 92 m 394 1082 q 374 1103 394 1082 q 353 1183 353 1124 q 394 1285 353 1243 q 497 1326 436 1326 q 600 1285 558 1326 q 642 1183 642 1243 q 600 1082 642 1124 q 497 1040 558 1040 q 394 1082 436 1040 m 442 1240 q 432 1228 442 1240 q 421 1183 421 1217 q 442 1127 421 1150 q 497 1104 464 1104 q 551 1127 531 1104 q 572 1183 572 1150 q 551 1240 572 1217 q 497 1263 531 1263 q 442 1240 464 1263 z "},"Æ":{"ha":1546,"x_min":-15,"x_max":1489,"o":"m 471 382 l 810 382 q 826 399 824 382 l 826 865 l 465 396 q 471 382 456 382 m 826 92 l 826 304 q 810 318 826 318 l 422 318 q 394 304 404 318 l 231 92 q 218 56 218 75 q 240 35 218 38 l 271 32 q 289 14 289 29 q 268 -6 289 -6 l 132 0 l 4 -6 q -15 13 -15 -6 q 0 32 -15 32 l 26 35 q 136 92 97 43 l 824 961 q 863 978 835 978 l 1013 972 l 1376 972 q 1419 956 1403 972 q 1439 917 1436 940 l 1458 789 q 1438 764 1461 764 q 1408 786 1415 764 q 1346 881 1388 853 q 1231 908 1304 908 l 1013 908 q 963 891 982 908 q 944 843 944 874 l 944 551 q 963 533 944 533 l 1221 533 q 1251 543 1240 533 q 1266 561 1263 553 q 1276 592 1269 569 l 1282 610 q 1303 626 1286 626 q 1319 607 1319 626 l 1314 489 l 1319 376 q 1301 356 1319 358 q 1282 372 1283 356 l 1278 397 q 1221 469 1265 469 l 961 469 q 944 450 944 469 l 944 128 q 963 81 944 99 q 1013 64 982 64 l 1242 64 q 1366 99 1314 64 q 1439 203 1418 135 q 1462 225 1446 225 q 1484 217 1478 225 q 1489 200 1490 210 l 1467 56 q 1447 16 1464 32 q 1404 0 1429 0 l 883 0 l 726 -6 q 707 13 707 -6 q 722 32 707 32 l 763 35 q 808 52 790 38 q 826 92 826 67 z "},"Ç":{"ha":949,"x_min":69,"x_max":876,"o":"m 876 735 q 870 716 876 725 q 854 707 864 707 q 824 735 831 707 q 731 881 799 828 q 569 933 663 933 q 302 818 401 933 q 203 524 203 703 q 308 204 203 344 q 569 64 413 64 q 705 81 660 64 q 766 106 750 99 q 807 131 782 114 q 835 149 832 147 q 869 153 860 164 q 879 133 879 143 q 868 113 879 124 q 771 33 821 60 q 556 -15 681 -15 q 204 128 339 -15 q 69 488 69 271 q 207 846 69 704 q 569 988 344 988 q 781 956 686 988 q 876 893 876 924 l 876 735 m 594 -214 q 594 -243 594 -214 q 544 -308 594 -272 q 425 -343 494 -343 q 354 -332 390 -343 l 354 -282 q 417 -290 381 -290 q 479 -273 453 -290 q 506 -224 506 -256 q 479 -171 506 -192 q 428 -144 453 -150 l 401 -139 l 460 0 l 508 -7 l 479 -86 q 492 -90 483 -87 q 519 -101 500 -92 q 554 -122 539 -110 q 594 -214 594 -156 z "},"È":{"ha":881,"x_min":42,"x_max":824,"o":"m 739 0 l 218 0 l 61 -6 q 42 13 42 -6 q 57 32 42 32 l 97 35 q 143 52 125 38 q 161 92 161 67 l 161 881 q 97 936 161 931 l 57 940 q 42 959 42 940 q 61 978 42 978 l 218 972 l 711 972 q 754 956 738 972 q 774 917 771 940 l 793 789 q 773 764 796 764 q 743 786 750 764 q 681 881 722 853 q 565 908 639 908 l 347 908 q 298 891 317 908 q 279 843 279 874 l 279 551 q 297 533 279 533 l 556 533 q 586 543 575 533 q 601 561 597 553 q 611 592 604 569 l 617 610 q 638 626 621 626 q 654 607 654 626 l 649 489 l 654 376 q 636 356 654 358 q 617 372 619 356 l 613 397 q 556 469 600 469 l 296 469 q 279 450 279 469 l 279 128 q 298 81 279 99 q 347 64 317 64 l 576 64 q 701 99 649 64 q 774 203 753 135 q 797 225 781 225 q 819 217 813 225 q 824 200 825 210 l 801 56 q 781 16 799 32 q 739 0 764 0 m 289 1201 q 263 1242 263 1215 q 280 1290 263 1269 q 317 1310 297 1310 q 351 1297 336 1310 l 561 1114 l 536 1081 l 289 1201 z "},"É":{"ha":881,"x_min":42,"x_max":824,"o":"m 739 0 l 218 0 l 61 -6 q 42 13 42 -6 q 57 32 42 32 l 97 35 q 143 52 125 38 q 161 92 161 67 l 161 881 q 97 936 161 931 l 57 940 q 42 959 42 940 q 61 978 42 978 l 218 972 l 711 972 q 754 956 738 972 q 774 917 771 940 l 793 789 q 773 764 796 764 q 743 786 750 764 q 681 881 722 853 q 565 908 639 908 l 347 908 q 298 891 317 908 q 279 843 279 874 l 279 551 q 297 533 279 533 l 556 533 q 586 543 575 533 q 601 561 597 553 q 611 592 604 569 l 617 610 q 638 626 621 626 q 654 607 654 626 l 649 489 l 654 376 q 636 356 654 358 q 617 372 619 356 l 613 397 q 556 469 600 469 l 296 469 q 279 450 279 469 l 279 128 q 298 81 279 99 q 347 64 317 64 l 576 64 q 701 99 649 64 q 774 203 753 135 q 797 225 781 225 q 819 217 813 225 q 824 200 825 210 l 801 56 q 781 16 799 32 q 739 0 764 0 m 528 1297 q 563 1310 543 1310 q 599 1290 582 1310 q 617 1242 617 1269 q 590 1201 617 1215 l 343 1081 l 318 1114 l 528 1297 z "},"Ê":{"ha":881,"x_min":42,"x_max":824,"o":"m 739 0 l 218 0 l 61 -6 q 42 13 42 -6 q 57 32 42 32 l 97 35 q 143 52 125 38 q 161 92 161 67 l 161 881 q 97 936 161 931 l 57 940 q 42 959 42 940 q 61 978 42 978 l 218 972 l 711 972 q 754 956 738 972 q 774 917 771 940 l 793 789 q 773 764 796 764 q 743 786 750 764 q 681 881 722 853 q 565 908 639 908 l 347 908 q 298 891 317 908 q 279 843 279 874 l 279 551 q 297 533 279 533 l 556 533 q 586 543 575 533 q 601 561 597 553 q 611 592 604 569 l 617 610 q 638 626 621 626 q 654 607 654 626 l 649 489 l 654 376 q 636 356 654 358 q 617 372 619 356 l 613 397 q 556 469 600 469 l 296 469 q 279 450 279 469 l 279 128 q 298 81 279 99 q 347 64 317 64 l 576 64 q 701 99 649 64 q 774 203 753 135 q 797 225 781 225 q 819 217 813 225 q 824 200 825 210 l 801 56 q 781 16 799 32 q 739 0 764 0 m 250 1100 l 225 1132 l 440 1322 l 656 1132 l 631 1100 l 440 1206 l 250 1100 z "},"Ë":{"ha":881,"x_min":42,"x_max":824,"o":"m 739 0 l 218 0 l 61 -6 q 42 13 42 -6 q 57 32 42 32 l 97 35 q 143 52 125 38 q 161 92 161 67 l 161 881 q 97 936 161 931 l 57 940 q 42 959 42 940 q 61 978 42 978 l 218 972 l 711 972 q 754 956 738 972 q 774 917 771 940 l 793 789 q 773 764 796 764 q 743 786 750 764 q 681 881 722 853 q 565 908 639 908 l 347 908 q 298 891 317 908 q 279 843 279 874 l 279 551 q 297 533 279 533 l 556 533 q 586 543 575 533 q 601 561 597 553 q 611 592 604 569 l 617 610 q 638 626 621 626 q 654 607 654 626 l 649 489 l 654 376 q 636 356 654 358 q 617 372 619 356 l 613 397 q 556 469 600 469 l 296 469 q 279 450 279 469 l 279 128 q 298 81 279 99 q 347 64 317 64 l 576 64 q 701 99 649 64 q 774 203 753 135 q 797 225 781 225 q 819 217 813 225 q 824 200 825 210 l 801 56 q 781 16 799 32 q 739 0 764 0 m 256 1142 q 245 1152 256 1142 q 235 1193 235 1163 q 256 1244 235 1224 q 307 1265 276 1265 q 358 1244 338 1265 q 379 1193 379 1224 q 358 1142 379 1163 q 307 1121 338 1121 q 256 1142 276 1121 m 521 1142 q 510 1152 521 1142 q 500 1193 500 1163 q 521 1244 500 1224 q 572 1265 542 1265 q 624 1244 603 1265 q 644 1193 644 1224 q 624 1142 644 1163 q 572 1121 603 1121 q 521 1142 542 1121 z "},"Ì":{"ha":440,"x_min":42,"x_max":399,"o":"m 85 -6 q 65 12 65 -6 q 81 32 65 29 l 104 35 q 161 92 161 42 l 161 881 q 97 936 161 931 l 57 940 q 42 958 42 943 q 61 978 42 978 l 218 972 l 356 978 q 376 961 376 978 q 358 940 376 942 l 335 936 q 279 881 279 926 l 279 92 q 297 52 279 67 q 342 35 315 38 l 382 32 q 399 14 399 32 q 392 0 399 6 q 379 -6 386 -6 l 222 0 l 85 -6 m 69 1201 q 43 1242 43 1215 q 60 1290 43 1269 q 97 1310 78 1310 q 132 1297 117 1310 l 342 1114 l 317 1081 l 69 1201 z "},"Í":{"ha":440,"x_min":42,"x_max":399,"o":"m 85 -6 q 65 12 65 -6 q 81 32 65 29 l 104 35 q 161 92 161 42 l 161 881 q 97 936 161 931 l 57 940 q 42 958 42 943 q 61 978 42 978 l 218 972 l 356 978 q 376 961 376 978 q 358 940 376 942 l 335 936 q 279 881 279 926 l 279 92 q 297 52 279 67 q 342 35 315 38 l 382 32 q 399 14 399 32 q 392 0 399 6 q 379 -6 386 -6 l 222 0 l 85 -6 m 308 1297 q 342 1310 322 1310 q 380 1290 363 1310 q 397 1242 397 1269 q 371 1201 397 1215 l 124 1081 l 99 1114 l 308 1297 z "},"Î":{"ha":440,"x_min":6,"x_max":436,"o":"m 85 -6 q 65 12 65 -6 q 81 32 65 29 l 104 35 q 161 92 161 42 l 161 881 q 97 936 161 931 l 57 940 q 42 958 42 943 q 61 978 42 978 l 218 972 l 356 978 q 376 961 376 978 q 358 940 376 942 l 335 936 q 279 881 279 926 l 279 92 q 297 52 279 67 q 342 35 315 38 l 382 32 q 399 14 399 32 q 392 0 399 6 q 379 -6 386 -6 l 222 0 l 85 -6 m 31 1100 l 6 1132 l 221 1322 l 436 1132 l 411 1100 l 221 1206 l 31 1100 z "},"Ï":{"ha":440,"x_min":15,"x_max":425,"o":"m 85 -6 q 65 12 65 -6 q 81 32 65 29 l 104 35 q 161 92 161 42 l 161 881 q 97 936 161 931 l 57 940 q 42 958 42 943 q 61 978 42 978 l 218 972 l 356 978 q 376 961 376 978 q 358 940 376 942 l 335 936 q 279 881 279 926 l 279 92 q 297 52 279 67 q 342 35 315 38 l 382 32 q 399 14 399 32 q 392 0 399 6 q 379 -6 386 -6 l 222 0 l 85 -6 m 36 1142 q 26 1152 36 1142 q 15 1193 15 1163 q 36 1244 15 1224 q 88 1265 57 1265 q 139 1244 118 1265 q 160 1193 160 1224 q 139 1142 160 1163 q 88 1121 118 1121 q 36 1142 57 1121 m 301 1142 q 291 1152 301 1142 q 281 1193 281 1163 q 301 1244 281 1224 q 353 1265 322 1265 q 404 1244 383 1265 q 425 1193 425 1224 q 404 1142 425 1163 q 353 1121 383 1121 q 301 1142 322 1121 z "},"Ð":{"ha":1029,"x_min":42,"x_max":960,"o":"m 60 440 l 161 440 l 161 881 q 97 936 161 931 l 57 940 q 42 958 42 943 q 61 978 42 978 l 235 972 l 474 972 q 828 844 696 972 q 960 503 960 715 q 823 145 960 290 q 474 0 686 0 l 235 0 l 61 -7 q 42 12 42 -7 q 57 31 42 31 l 97 33 q 143 51 125 36 q 161 90 161 65 l 161 372 l 60 372 q 43 388 43 372 l 43 425 q 60 440 43 440 m 747 764 q 635 869 706 831 q 472 908 564 908 l 347 908 q 298 892 317 908 q 279 843 279 875 l 279 440 l 476 440 q 493 425 493 440 l 493 388 q 476 372 493 372 l 279 372 l 279 128 q 298 81 279 99 q 347 64 317 64 l 479 64 q 735 174 639 64 q 831 458 831 283 q 747 764 831 633 z "},"Ñ":{"ha":1058,"x_min":42,"x_max":1017,"o":"m 851 207 l 851 881 q 789 936 851 929 l 749 940 q 733 960 733 943 q 753 976 733 976 l 888 972 l 996 976 q 1017 960 1017 976 q 999 940 1017 943 l 975 936 q 919 881 919 926 l 919 1 q 904 -15 919 -15 l 886 -15 q 826 18 851 -15 l 242 767 q 233 769 239 769 q 228 756 228 769 l 228 92 q 283 36 228 46 l 307 32 q 325 13 325 29 q 304 -4 325 -4 l 196 0 l 61 -4 q 42 13 42 -4 q 57 32 42 29 l 97 36 q 161 92 161 43 l 161 881 q 106 936 161 929 l 81 939 q 64 959 64 942 q 85 976 64 976 l 196 972 q 257 946 236 971 l 836 203 q 846 199 840 199 q 851 207 851 199 m 617 1125 q 517 1157 579 1125 q 419 1189 454 1189 q 361 1172 383 1189 q 332 1139 339 1156 l 325 1122 l 281 1143 q 329 1225 288 1179 q 442 1271 371 1271 q 550 1239 482 1271 q 647 1207 618 1207 q 697 1224 675 1207 q 726 1257 719 1240 l 733 1274 l 778 1253 q 729 1171 771 1217 q 617 1125 688 1125 z "},"Ò":{"ha":1111,"x_min":69,"x_max":1042,"o":"m 558 988 q 667 988 558 988 q 909 848 776 988 q 1042 489 1042 708 q 906 127 1042 269 q 555 -15 771 -15 q 204 126 339 -15 q 69 485 69 268 q 204 845 69 703 q 558 988 339 988 m 831 769 q 719 882 790 840 q 554 924 649 924 q 292 820 385 924 q 200 539 200 717 q 283 208 200 354 q 396 92 324 136 q 561 49 468 49 q 819 157 726 49 q 911 449 911 265 q 831 769 911 632 m 432 1201 q 406 1242 406 1215 q 423 1290 406 1269 q 460 1310 440 1310 q 494 1297 479 1310 l 704 1114 l 679 1081 l 432 1201 z "},"Ó":{"ha":1111,"x_min":69,"x_max":1042,"o":"m 558 988 q 667 988 558 988 q 909 848 776 988 q 1042 489 1042 708 q 906 127 1042 269 q 555 -15 771 -15 q 204 126 339 -15 q 69 485 69 268 q 204 845 69 703 q 558 988 339 988 m 831 769 q 719 882 790 840 q 554 924 649 924 q 292 820 385 924 q 200 539 200 717 q 283 208 200 354 q 396 92 324 136 q 561 49 468 49 q 819 157 726 49 q 911 449 911 265 q 831 769 911 632 m 615 1297 q 649 1310 629 1310 q 687 1290 669 1310 q 704 1242 704 1269 q 678 1201 704 1215 l 431 1081 l 406 1114 l 615 1297 z "},"Ô":{"ha":1111,"x_min":69,"x_max":1042,"o":"m 558 988 q 667 988 558 988 q 909 848 776 988 q 1042 489 1042 708 q 906 127 1042 269 q 555 -15 771 -15 q 204 126 339 -15 q 69 485 69 268 q 204 845 69 703 q 558 988 339 988 m 831 769 q 719 882 790 840 q 554 924 649 924 q 292 820 385 924 q 200 539 200 717 q 283 208 200 354 q 396 92 324 136 q 561 49 468 49 q 819 157 726 49 q 911 449 911 265 q 831 769 911 632 m 365 1100 l 340 1132 l 556 1322 l 771 1132 l 746 1100 l 556 1206 l 365 1100 z "},"Õ":{"ha":1111,"x_min":69,"x_max":1042,"o":"m 558 988 q 667 988 558 988 q 909 848 776 988 q 1042 489 1042 708 q 906 127 1042 269 q 555 -15 771 -15 q 204 126 339 -15 q 69 485 69 268 q 204 845 69 703 q 558 988 339 988 m 831 769 q 719 882 790 840 q 554 924 649 924 q 292 820 385 924 q 200 539 200 717 q 283 208 200 354 q 396 92 324 136 q 561 49 468 49 q 819 157 726 49 q 911 449 911 265 q 831 769 911 632 m 643 1125 q 543 1157 606 1125 q 445 1189 481 1189 q 388 1172 410 1189 q 358 1139 365 1156 l 351 1122 l 307 1143 q 356 1225 314 1179 q 468 1271 397 1271 q 576 1239 508 1271 q 673 1207 644 1207 q 724 1224 701 1207 q 753 1257 746 1240 l 760 1274 l 804 1253 q 756 1171 797 1217 q 643 1125 714 1125 z "},"Ö":{"ha":1111,"x_min":69,"x_max":1042,"o":"m 558 988 q 667 988 558 988 q 909 848 776 988 q 1042 489 1042 708 q 906 127 1042 269 q 555 -15 771 -15 q 204 126 339 -15 q 69 485 69 268 q 204 845 69 703 q 558 988 339 988 m 831 769 q 719 882 790 840 q 554 924 649 924 q 292 820 385 924 q 200 539 200 717 q 283 208 200 354 q 396 92 324 136 q 561 49 468 49 q 819 157 726 49 q 911 449 911 265 q 831 769 911 632 m 371 1142 q 360 1152 371 1142 q 350 1193 350 1163 q 371 1244 350 1224 q 422 1265 392 1265 q 474 1244 453 1265 q 494 1193 494 1224 q 474 1142 494 1163 q 422 1121 453 1121 q 371 1142 392 1121 m 636 1142 q 626 1152 636 1142 q 615 1193 615 1163 q 636 1244 615 1224 q 688 1265 657 1265 q 739 1244 718 1265 q 760 1193 760 1224 q 739 1142 760 1163 q 688 1121 718 1121 q 636 1142 657 1121 z "},"×":{"ha":858,"x_min":83,"x_max":775,"o":"m 89 108 q 83 119 83 114 q 89 131 83 125 l 368 410 l 89 689 q 83 700 83 694 q 89 711 83 706 l 128 750 q 139 756 133 756 l 150 750 l 429 471 l 708 750 q 719 756 714 756 l 731 750 l 769 711 q 775 700 775 706 q 769 689 775 694 l 490 410 l 769 131 q 775 119 775 125 q 769 108 775 114 l 731 69 q 719 64 725 64 l 708 69 l 429 349 l 150 69 q 139 64 144 64 l 128 69 l 89 108 z "},"Ø":{"ha":1111,"x_min":65,"x_max":1046,"o":"m 925 831 q 1042 482 1042 694 q 906 127 1042 269 q 567 -15 771 -15 q 235 96 364 -15 l 161 17 q 133 0 144 0 l 75 0 q 65 8 65 0 q 69 17 65 13 l 188 143 q 69 493 69 283 q 204 845 69 703 q 556 988 339 988 q 876 878 747 988 l 950 956 q 978 972 967 972 l 1036 972 q 1046 964 1046 972 q 1042 956 1046 960 l 925 831 m 549 924 q 467 924 549 924 q 292 820 385 924 q 200 538 200 717 q 269 231 200 360 l 807 803 q 549 924 714 924 m 564 49 q 645 49 564 49 q 819 157 726 49 q 911 441 911 265 q 844 746 911 617 l 307 172 q 564 49 401 49 z "},"Ù":{"ha":1074,"x_min":42,"x_max":1032,"o":"m 161 357 l 161 881 q 97 936 161 931 l 57 940 q 42 958 42 943 q 61 978 42 978 l 218 972 l 356 978 q 376 961 376 978 q 358 940 376 942 l 335 936 q 279 881 279 926 l 279 356 q 357 154 279 226 q 562 82 435 82 q 767 156 689 82 q 846 356 846 229 l 846 881 q 790 936 846 926 l 767 940 q 749 960 749 943 q 769 976 749 976 l 878 972 l 1013 976 q 1032 960 1032 976 q 1017 940 1032 943 l 976 936 q 913 881 913 929 l 913 357 q 808 85 913 186 q 539 -15 703 -15 q 268 89 375 -15 q 161 357 161 193 m 358 1201 q 332 1242 332 1215 q 349 1290 332 1269 q 386 1310 367 1310 q 421 1297 406 1310 l 631 1114 l 606 1081 l 358 1201 z "},"Ú":{"ha":1074,"x_min":42,"x_max":1032,"o":"m 161 357 l 161 881 q 97 936 161 931 l 57 940 q 42 958 42 943 q 61 978 42 978 l 218 972 l 356 978 q 376 961 376 978 q 358 940 376 942 l 335 936 q 279 881 279 926 l 279 356 q 357 154 279 226 q 562 82 435 82 q 767 156 689 82 q 846 356 846 229 l 846 881 q 790 936 846 926 l 767 940 q 749 960 749 943 q 769 976 749 976 l 878 972 l 1013 976 q 1032 960 1032 976 q 1017 940 1032 943 l 976 936 q 913 881 913 929 l 913 357 q 808 85 913 186 q 539 -15 703 -15 q 268 89 375 -15 q 161 357 161 193 m 694 1297 q 728 1310 708 1310 q 766 1290 749 1310 q 783 1242 783 1269 q 757 1201 783 1215 l 510 1081 l 485 1114 l 694 1297 z "},"Û":{"ha":1074,"x_min":42,"x_max":1032,"o":"m 161 357 l 161 881 q 97 936 161 931 l 57 940 q 42 958 42 943 q 61 978 42 978 l 218 972 l 356 978 q 376 961 376 978 q 358 940 376 942 l 335 936 q 279 881 279 926 l 279 356 q 357 154 279 226 q 562 82 435 82 q 767 156 689 82 q 846 356 846 229 l 846 881 q 790 936 846 926 l 767 940 q 749 960 749 943 q 769 976 749 976 l 878 972 l 1013 976 q 1032 960 1032 976 q 1017 940 1032 943 l 976 936 q 913 881 913 929 l 913 357 q 808 85 913 186 q 539 -15 703 -15 q 268 89 375 -15 q 161 357 161 193 m 367 1100 l 342 1132 l 557 1322 l 772 1132 l 747 1100 l 557 1206 l 367 1100 z "},"Ü":{"ha":1074,"x_min":42,"x_max":1032,"o":"m 161 357 l 161 881 q 97 936 161 931 l 57 940 q 42 958 42 943 q 61 978 42 978 l 218 972 l 356 978 q 376 961 376 978 q 358 940 376 942 l 335 936 q 279 881 279 926 l 279 356 q 357 154 279 226 q 562 82 435 82 q 767 156 689 82 q 846 356 846 229 l 846 881 q 790 936 846 926 l 767 940 q 749 960 749 943 q 769 976 749 976 l 878 972 l 1013 976 q 1032 960 1032 976 q 1017 940 1032 943 l 976 936 q 913 881 913 929 l 913 357 q 808 85 913 186 q 539 -15 703 -15 q 268 89 375 -15 q 161 357 161 193 m 374 1142 q 363 1152 374 1142 q 353 1193 353 1163 q 374 1244 353 1224 q 425 1265 394 1265 q 476 1244 456 1265 q 497 1193 497 1224 q 476 1142 497 1163 q 425 1121 456 1121 q 374 1142 394 1121 m 639 1142 q 628 1152 639 1142 q 618 1193 618 1163 q 639 1244 618 1224 q 690 1265 660 1265 q 742 1244 721 1265 q 763 1193 763 1224 q 742 1142 763 1163 q 690 1121 721 1121 q 639 1142 660 1121 z "},"Ý":{"ha":989,"x_min":0,"x_max":996,"o":"m 976 976 q 996 960 996 976 q 981 940 996 943 l 940 936 q 861 881 894 932 l 590 447 q 571 382 574 418 l 571 92 q 589 52 571 67 q 633 35 607 38 l 674 32 q 690 14 690 32 q 684 0 690 6 q 671 -6 678 -6 l 514 0 l 375 -6 q 356 12 356 -6 q 371 32 356 29 l 394 35 q 451 92 451 42 l 451 363 q 439 411 451 389 l 136 881 q 56 936 103 932 l 15 940 q 0 960 0 943 q 19 976 0 976 l 185 972 l 332 975 q 353 957 353 975 q 336 938 353 939 l 310 935 q 277 914 285 932 q 281 881 269 896 l 522 483 q 535 474 528 474 q 547 481 542 474 l 785 881 q 788 913 796 896 q 756 935 781 931 l 729 938 q 713 958 710 940 q 733 975 714 975 l 842 972 l 976 976 m 638 1297 q 672 1310 651 1310 q 709 1290 692 1310 q 726 1242 726 1269 q 700 1201 726 1215 l 453 1081 l 428 1114 l 638 1297 z "},"Þ":{"ha":850,"x_min":42,"x_max":781,"o":"m 653 528 q 413 711 653 711 l 329 711 q 274 656 274 711 l 274 358 q 289 340 274 340 l 413 340 q 592 388 531 340 q 653 528 653 436 m 156 92 l 156 881 q 99 938 156 933 l 58 940 q 42 961 42 942 q 63 978 42 978 l 217 972 l 390 978 q 410 959 410 978 q 394 940 410 940 l 336 938 q 292 921 310 936 q 274 881 274 906 l 274 788 q 294 771 274 771 l 442 772 q 449 772 446 772 q 694 711 607 772 q 781 531 781 650 q 695 344 781 413 q 458 276 610 276 l 294 276 q 274 260 274 276 l 274 92 q 292 51 274 67 q 336 35 310 36 l 394 32 q 410 13 410 32 q 390 -6 410 -6 l 217 0 l 63 -6 q 42 11 42 -6 q 58 32 42 31 l 99 35 q 156 92 156 39 z "},"ß":{"ha":861,"x_min":28,"x_max":819,"o":"m 622 934 q 656 907 622 934 q 689 800 689 881 q 628 674 689 719 q 578 636 603 654 q 518 547 518 596 q 549 464 518 497 q 625 407 581 431 q 713 357 669 383 q 788 285 757 331 q 819 179 819 240 q 749 38 819 92 q 578 -15 679 -15 q 411 8 478 -15 q 344 61 344 32 l 344 182 q 364 207 344 207 q 389 182 383 207 q 569 39 432 39 q 672 70 632 39 q 713 149 713 101 q 682 228 713 196 q 608 284 651 261 q 522 333 565 307 q 449 401 479 358 q 418 492 418 443 q 434 571 418 540 q 474 623 450 601 q 519 667 497 644 q 575 785 575 719 q 533 885 575 850 q 424 921 492 921 q 282 859 332 921 q 232 686 232 797 l 232 17 q 217 0 232 0 l 49 -6 q 28 13 28 -6 q 44 32 28 31 l 68 35 q 124 92 124 42 l 124 597 q 208 876 124 765 q 446 988 292 988 q 622 934 556 988 z "},"à":{"ha":710,"x_min":69,"x_max":696,"o":"m 696 7 q 646 -15 696 -15 q 500 53 560 -15 q 485 63 490 63 q 471 54 481 63 q 268 -15 381 -15 q 129 34 189 -15 q 69 161 69 83 q 156 311 69 260 q 394 381 232 356 q 447 390 433 388 q 465 410 465 392 l 465 538 q 427 628 465 594 q 326 661 389 661 q 212 622 263 661 q 147 514 161 583 q 124 493 143 493 q 106 514 106 493 l 106 618 q 121 653 106 642 q 332 710 194 710 q 525 650 469 710 q 581 496 581 590 l 581 125 q 609 53 581 81 q 676 25 638 25 q 696 7 696 25 m 463 136 l 463 310 q 444 331 463 331 q 440 331 443 331 q 192 178 192 300 q 229 88 192 121 q 313 56 267 56 q 395 74 360 56 q 447 110 431 92 q 463 136 463 128 m 204 924 q 178 965 178 938 q 195 1012 178 992 q 232 1032 213 1032 q 267 1019 251 1032 l 476 836 l 451 803 l 204 924 z "},"á":{"ha":710,"x_min":69,"x_max":696,"o":"m 696 7 q 646 -15 696 -15 q 500 53 560 -15 q 485 63 490 63 q 471 54 481 63 q 268 -15 381 -15 q 129 34 189 -15 q 69 161 69 83 q 156 311 69 260 q 394 381 232 356 q 447 390 433 388 q 465 410 465 392 l 465 538 q 427 628 465 594 q 326 661 389 661 q 212 622 263 661 q 147 514 161 583 q 124 493 143 493 q 106 514 106 493 l 106 618 q 121 653 106 642 q 332 710 194 710 q 525 650 469 710 q 581 496 581 590 l 581 125 q 609 53 581 81 q 676 25 638 25 q 696 7 696 25 m 463 136 l 463 310 q 440 331 463 333 q 192 178 192 300 q 229 88 192 121 q 313 56 267 56 q 395 74 360 56 q 447 110 431 92 q 463 136 463 128 m 388 1019 q 422 1032 403 1032 q 459 1012 442 1032 q 476 965 476 992 q 450 924 476 938 l 203 803 l 178 836 l 388 1019 z "},"â":{"ha":710,"x_min":69,"x_max":696,"o":"m 696 7 q 646 -15 696 -15 q 500 53 560 -15 q 485 63 490 63 q 471 54 481 63 q 268 -15 381 -15 q 129 34 189 -15 q 69 161 69 83 q 156 311 69 260 q 394 381 232 356 q 447 390 433 388 q 465 410 465 392 l 465 538 q 427 628 465 594 q 326 661 389 661 q 212 622 263 661 q 147 514 161 583 q 124 493 143 493 q 106 514 106 493 l 106 618 q 121 653 106 642 q 332 710 194 710 q 525 650 469 710 q 581 496 581 590 l 581 125 q 609 53 581 81 q 676 25 638 25 q 696 7 696 25 m 463 136 l 463 310 q 444 331 463 331 q 440 331 443 331 q 192 178 192 300 q 229 88 192 121 q 313 56 267 56 q 395 74 360 56 q 447 110 431 92 q 463 136 463 128 m 154 822 l 129 854 l 344 1044 l 560 854 l 535 822 l 344 928 l 154 822 z "},"ã":{"ha":710,"x_min":69,"x_max":696,"o":"m 696 7 q 646 -15 696 -15 q 500 53 560 -15 q 485 63 490 63 q 471 54 481 63 q 268 -15 381 -15 q 129 34 189 -15 q 69 161 69 83 q 156 311 69 260 q 394 381 232 356 q 447 390 433 388 q 465 410 465 392 l 465 538 q 427 628 465 594 q 326 661 389 661 q 212 622 263 661 q 147 514 161 583 q 124 493 143 493 q 106 514 106 493 l 106 618 q 121 653 106 642 q 332 710 194 710 q 525 650 469 710 q 581 496 581 590 l 581 125 q 609 53 581 81 q 676 25 638 25 q 696 7 696 25 m 463 136 l 463 310 q 440 331 463 333 q 192 178 192 300 q 229 88 192 121 q 313 56 267 56 q 395 74 360 56 q 447 110 431 92 q 463 136 463 128 m 435 847 q 335 879 397 847 q 237 911 272 911 q 179 894 201 911 q 150 861 157 878 l 143 844 l 99 865 q 147 947 106 901 q 260 993 189 993 q 368 961 300 993 q 465 929 436 929 q 515 946 493 929 q 544 979 538 963 l 551 996 l 596 975 q 547 893 589 939 q 435 847 506 847 z "},"ä":{"ha":710,"x_min":69,"x_max":696,"o":"m 696 7 q 646 -15 696 -15 q 500 53 560 -15 q 485 63 490 63 q 471 54 481 63 q 268 -15 381 -15 q 129 34 189 -15 q 69 161 69 83 q 156 311 69 260 q 394 381 232 356 q 447 390 433 388 q 465 410 465 392 l 465 538 q 427 628 465 594 q 326 661 389 661 q 212 622 263 661 q 147 514 161 583 q 124 493 143 493 q 106 514 106 493 l 106 618 q 121 653 106 642 q 332 710 194 710 q 525 650 469 710 q 581 496 581 590 l 581 125 q 609 53 581 81 q 676 25 638 25 q 696 7 696 25 m 463 136 l 463 310 q 444 331 463 331 q 440 331 443 331 q 192 178 192 300 q 229 88 192 121 q 313 56 267 56 q 395 74 360 56 q 447 110 431 92 q 463 136 463 128 m 163 864 q 152 874 163 864 q 142 915 142 885 q 163 967 142 946 q 214 988 183 988 q 265 967 244 988 q 286 915 286 946 q 265 864 286 885 q 214 843 244 843 q 163 864 183 843 m 428 864 q 417 874 428 864 q 407 915 407 885 q 428 967 407 946 q 479 988 449 988 q 531 967 510 988 q 551 915 551 946 q 531 864 551 885 q 479 843 510 843 q 428 864 449 843 z "},"å":{"ha":710,"x_min":69,"x_max":696,"o":"m 696 7 q 646 -15 696 -15 q 500 53 560 -15 q 485 63 490 63 q 471 54 481 63 q 268 -15 381 -15 q 129 34 189 -15 q 69 161 69 83 q 156 311 69 260 q 394 381 232 356 q 447 390 433 388 q 465 410 465 392 l 465 538 q 427 628 465 594 q 326 661 389 661 q 212 622 263 661 q 147 514 161 583 q 124 493 143 493 q 106 514 106 493 l 106 618 q 121 653 106 642 q 332 710 194 710 q 525 650 469 710 q 581 496 581 590 l 581 125 q 609 53 581 81 q 676 25 638 25 q 696 7 696 25 m 463 136 l 463 310 q 440 331 463 333 q 192 178 192 300 q 229 88 192 121 q 313 56 267 56 q 395 74 360 56 q 447 110 431 92 q 463 136 463 128 m 238 846 q 217 867 238 846 q 196 947 196 888 q 238 1049 196 1007 q 340 1090 279 1090 q 443 1049 401 1090 q 485 947 485 1007 q 443 846 485 888 q 340 804 401 804 q 238 846 279 804 m 285 1003 q 275 992 285 1003 q 264 947 264 981 q 285 891 264 914 q 340 868 307 868 q 394 891 374 868 q 415 947 415 914 q 394 1003 415 981 q 340 1026 374 1026 q 285 1003 307 1026 z "},"æ":{"ha":1147,"x_min":69,"x_max":1085,"o":"m 1085 439 q 1010 356 1085 356 l 610 356 q 593 332 593 356 q 667 130 596 204 q 849 56 739 56 q 1013 99 960 56 q 1046 97 1031 113 q 1042 63 1061 82 q 828 -15 964 -15 q 536 110 633 -15 q 397 10 460 36 q 262 -15 335 -15 q 129 34 189 -15 q 69 161 69 83 q 156 311 69 260 q 394 381 232 356 q 447 390 433 388 q 465 410 465 392 l 465 538 q 427 628 465 594 q 326 661 389 661 q 212 622 263 661 q 147 514 161 583 q 124 493 143 493 q 106 514 106 493 l 106 618 q 121 653 106 642 q 350 710 194 710 q 558 603 506 710 q 788 710 654 710 q 1003 633 921 710 q 1085 439 1085 556 m 960 457 q 915 598 960 540 q 788 656 869 656 q 650 589 707 656 q 593 436 593 522 q 611 414 593 414 l 917 414 q 960 457 960 414 m 463 136 l 463 310 q 444 331 463 331 q 440 331 443 331 q 192 178 192 300 q 229 88 192 121 q 313 56 267 56 q 395 74 360 56 q 447 110 431 92 q 463 136 463 128 z "},"ç":{"ha":729,"x_min":69,"x_max":660,"o":"m 656 490 q 636 467 656 467 q 614 490 619 467 q 546 611 593 567 q 426 656 499 656 q 257 578 322 656 q 192 374 192 501 q 270 135 192 214 q 452 56 349 56 q 621 97 556 56 q 639 104 631 104 q 653 99 647 104 q 660 83 660 93 q 649 61 660 72 q 422 -15 572 -15 q 170 81 271 -15 q 69 360 69 178 q 170 606 69 503 q 418 710 271 710 q 588 678 519 710 q 656 611 656 647 l 656 490 m 485 -214 q 485 -243 485 -214 q 435 -308 485 -272 q 315 -343 385 -343 q 244 -332 281 -343 l 244 -282 q 307 -290 271 -290 q 369 -273 343 -290 q 396 -224 396 -256 q 369 -171 396 -192 q 318 -144 343 -150 l 292 -139 l 350 0 l 399 -7 l 369 -86 q 382 -90 374 -87 q 410 -101 390 -92 q 444 -122 429 -110 q 485 -214 485 -156 z "},"è":{"ha":753,"x_min":69,"x_max":690,"o":"m 690 439 q 615 356 690 356 l 215 356 q 199 332 199 356 q 273 130 201 204 q 455 56 344 56 q 618 99 565 56 q 651 97 636 113 q 647 63 667 82 q 433 -15 569 -15 q 166 83 263 -15 q 69 356 69 181 q 165 603 69 497 q 394 710 261 710 q 608 633 526 710 q 690 439 690 556 m 565 457 q 520 598 565 540 q 394 656 475 656 q 256 589 313 656 q 199 436 199 522 q 217 414 199 414 l 522 414 q 565 457 565 414 m 239 924 q 213 965 213 938 q 230 1012 213 992 q 267 1032 247 1032 q 301 1019 286 1032 l 511 836 l 486 803 l 239 924 z "},"é":{"ha":753,"x_min":69,"x_max":690,"o":"m 690 439 q 615 356 690 356 l 215 356 q 199 332 199 356 q 273 130 201 204 q 455 56 344 56 q 618 99 565 56 q 651 97 636 113 q 647 63 667 82 q 433 -15 569 -15 q 166 83 263 -15 q 69 356 69 181 q 165 603 69 497 q 394 710 261 710 q 608 633 526 710 q 690 439 690 556 m 565 457 q 520 598 565 540 q 394 656 475 656 q 256 589 313 656 q 199 436 199 522 q 217 414 199 414 l 522 414 q 565 457 565 414 m 436 1019 q 470 1032 450 1032 q 508 1012 490 1032 q 525 965 525 992 q 499 924 525 938 l 251 803 l 226 836 l 436 1019 z "},"ê":{"ha":753,"x_min":69,"x_max":690,"o":"m 690 439 q 615 356 690 356 l 215 356 q 199 332 199 356 q 273 130 201 204 q 455 56 344 56 q 618 99 565 56 q 651 97 636 113 q 647 63 667 82 q 433 -15 569 -15 q 166 83 263 -15 q 69 356 69 181 q 165 603 69 497 q 394 710 261 710 q 608 633 526 710 q 690 439 690 556 m 565 457 q 520 598 565 540 q 394 656 475 656 q 256 589 313 656 q 199 436 199 522 q 217 414 199 414 l 522 414 q 565 457 565 414 m 207 822 l 182 854 l 397 1044 l 613 854 l 588 822 l 397 928 l 207 822 z "},"ë":{"ha":753,"x_min":69,"x_max":690,"o":"m 690 439 q 615 356 690 356 l 215 356 q 199 332 199 356 q 273 130 201 204 q 455 56 344 56 q 618 99 565 56 q 651 97 636 113 q 647 63 667 82 q 433 -15 569 -15 q 166 83 263 -15 q 69 356 69 181 q 165 603 69 497 q 394 710 261 710 q 608 633 526 710 q 690 439 690 556 m 565 457 q 520 598 565 540 q 394 656 475 656 q 256 589 313 656 q 199 436 199 522 q 217 414 199 414 l 522 414 q 565 457 565 414 m 206 864 q 195 874 206 864 q 185 915 185 885 q 206 967 185 946 q 257 988 226 988 q 308 967 288 988 q 329 915 329 946 q 308 864 329 885 q 257 843 288 843 q 206 864 226 843 m 471 864 q 460 874 471 864 q 450 915 450 885 q 471 967 450 946 q 522 988 492 988 q 574 967 553 988 q 594 915 594 946 q 574 864 594 885 q 522 843 553 843 q 471 864 492 843 z "},"ì":{"ha":400,"x_min":-18,"x_max":351,"o":"m 233 710 q 256 678 256 710 l 256 92 q 311 35 256 42 l 335 32 q 351 13 351 31 q 331 -6 351 -6 l 199 0 l 49 -6 q 28 13 28 -6 q 44 32 28 31 l 83 35 q 129 52 111 38 q 147 92 147 67 l 147 600 q 135 638 147 628 q 97 649 124 649 l 50 649 q 32 667 32 649 q 50 688 32 685 l 231 710 q 233 710 232 710 m 8 924 q -18 965 -18 938 q -1 1012 -18 992 q 36 1032 17 1032 q 71 1019 56 1032 l 281 836 l 256 803 l 8 924 z "},"í":{"ha":400,"x_min":28,"x_max":364,"o":"m 335 32 q 351 13 351 31 q 331 -6 351 -6 l 199 0 l 49 -6 q 28 13 28 -6 q 44 32 28 31 l 83 35 q 129 52 111 38 q 147 92 147 67 l 147 600 q 135 638 147 628 q 97 649 124 649 l 50 649 q 32 667 32 649 q 50 688 32 685 l 231 710 q 256 678 256 713 l 256 92 q 311 35 256 42 l 335 32 m 275 1019 q 309 1032 289 1032 q 347 1012 329 1032 q 364 965 364 992 q 338 924 364 938 l 90 803 l 65 836 l 275 1019 z "},"î":{"ha":400,"x_min":-15,"x_max":415,"o":"m 233 710 q 256 678 256 710 l 256 92 q 311 35 256 42 l 335 32 q 351 13 351 31 q 331 -6 351 -6 l 199 0 l 49 -6 q 28 13 28 -6 q 44 32 28 31 l 83 35 q 129 52 111 38 q 147 92 147 67 l 147 600 q 135 638 147 628 q 97 649 124 649 l 50 649 q 32 667 32 649 q 50 688 32 685 l 231 710 q 233 710 232 710 m 10 822 l -15 854 l 200 1044 l 415 854 l 390 822 l 200 928 l 10 822 z "},"ï":{"ha":400,"x_min":-4,"x_max":406,"o":"m 335 32 q 351 13 351 31 q 331 -6 351 -6 l 199 0 l 49 -6 q 28 13 28 -6 q 44 32 28 31 l 83 35 q 129 52 111 38 q 147 92 147 67 l 147 600 q 135 638 147 628 q 97 649 124 649 l 50 649 q 32 667 32 649 q 50 688 32 685 l 231 710 q 256 678 256 713 l 256 92 q 311 35 256 42 l 335 32 m 17 864 q 6 874 17 864 q -4 915 -4 885 q 17 967 -4 946 q 68 988 38 988 q 119 967 99 988 q 140 915 140 946 q 119 864 140 885 q 68 843 99 843 q 17 864 38 843 m 282 864 q 272 874 282 864 q 261 915 261 885 q 282 967 261 946 q 333 988 303 988 q 385 967 364 988 q 406 915 406 946 q 385 864 406 885 q 333 843 364 843 q 282 864 303 843 z "},"ð":{"ha":842,"x_min":69,"x_max":772,"o":"m 264 1044 q 246 1074 246 1056 q 259 1102 246 1092 q 283 1113 272 1113 q 294 1111 293 1113 q 458 1013 379 1071 l 590 1110 q 601 1114 596 1114 q 614 1108 607 1114 l 635 1078 q 631 1056 644 1064 l 513 968 q 705 708 638 856 q 772 397 772 560 q 680 90 772 194 q 424 -15 588 -15 q 165 85 260 -15 q 69 346 69 185 q 167 608 69 507 q 421 710 264 710 q 607 649 524 710 q 443 917 574 797 l 296 808 q 272 810 285 797 l 251 840 q 256 863 240 854 l 390 961 q 264 1044 332 1006 m 606 540 q 535 624 582 593 q 422 656 489 656 q 250 579 307 656 q 193 379 193 503 q 238 153 193 251 q 308 70 261 101 q 418 39 354 39 q 592 115 536 39 q 649 318 649 192 q 606 540 649 444 z "},"ñ":{"ha":889,"x_min":28,"x_max":875,"o":"m 233 710 q 256 678 256 710 l 256 607 q 260 600 256 600 q 274 608 265 600 q 484 710 354 710 q 683 641 614 710 q 753 443 753 572 l 753 92 q 773 52 753 67 q 821 35 793 38 l 858 32 q 875 13 875 31 q 854 -6 875 -6 l 706 0 l 579 -6 q 558 13 558 -6 q 575 32 558 31 l 593 35 q 644 92 644 43 l 644 463 q 596 596 644 549 q 462 643 547 643 q 316 573 376 643 q 256 435 256 503 l 256 92 q 311 35 256 42 l 335 32 q 351 13 351 31 q 331 -6 351 -6 l 199 0 l 49 -6 q 28 13 28 -6 q 44 32 28 31 l 83 35 q 129 52 111 38 q 147 92 147 67 l 147 600 q 135 638 147 628 q 97 649 124 649 l 50 649 q 32 667 32 649 q 50 688 32 685 l 231 710 q 233 710 232 710 m 518 847 q 418 879 481 847 q 320 911 356 911 q 263 894 285 911 q 233 861 240 878 l 226 844 l 182 865 q 231 947 189 901 q 343 993 272 993 q 451 961 383 993 q 548 929 519 929 q 599 946 576 929 q 628 979 621 963 l 635 996 l 679 975 q 631 893 672 939 q 518 847 589 847 z "},"ò":{"ha":842,"x_min":69,"x_max":772,"o":"m 423 710 q 502 710 423 710 q 677 610 582 710 q 772 347 772 510 q 678 84 772 183 q 422 -15 583 -15 q 165 85 260 -15 q 69 346 69 185 q 167 608 69 507 q 423 710 264 710 m 606 540 q 535 624 582 593 q 422 656 489 656 q 250 579 307 656 q 193 379 193 503 q 238 153 193 251 q 308 70 261 101 q 418 39 354 39 q 592 115 536 39 q 649 318 649 192 q 606 540 649 444 m 297 924 q 271 965 271 938 q 288 1012 271 992 q 325 1032 306 1032 q 360 1019 344 1032 l 569 836 l 544 803 l 297 924 z "},"ó":{"ha":842,"x_min":69,"x_max":772,"o":"m 423 710 q 502 710 423 710 q 677 610 582 710 q 772 347 772 510 q 678 84 772 183 q 422 -15 583 -15 q 165 85 260 -15 q 69 346 69 185 q 167 608 69 507 q 423 710 264 710 m 606 540 q 535 624 582 593 q 422 656 489 656 q 250 579 307 656 q 193 379 193 503 q 238 153 193 251 q 308 70 261 101 q 418 39 354 39 q 592 115 536 39 q 649 318 649 192 q 606 540 649 444 m 481 1019 q 515 1032 494 1032 q 552 1012 535 1032 q 569 965 569 992 q 543 924 569 938 l 296 803 l 271 836 l 481 1019 z "},"ô":{"ha":842,"x_min":69,"x_max":772,"o":"m 423 710 q 502 710 423 710 q 677 610 582 710 q 772 347 772 510 q 678 84 772 183 q 422 -15 583 -15 q 165 85 260 -15 q 69 346 69 185 q 167 608 69 507 q 423 710 264 710 m 606 540 q 535 624 582 593 q 422 656 489 656 q 250 579 307 656 q 193 379 193 503 q 238 153 193 251 q 308 70 261 101 q 418 39 354 39 q 592 115 536 39 q 649 318 649 192 q 606 540 649 444 m 231 822 l 206 854 l 421 1044 l 636 854 l 611 822 l 421 928 l 231 822 z "},"õ":{"ha":842,"x_min":69,"x_max":772,"o":"m 423 710 q 502 710 423 710 q 677 610 582 710 q 772 347 772 510 q 678 84 772 183 q 422 -15 583 -15 q 165 85 260 -15 q 69 346 69 185 q 167 608 69 507 q 423 710 264 710 m 606 540 q 535 624 582 593 q 422 656 489 656 q 250 579 307 656 q 193 379 193 503 q 238 153 193 251 q 308 70 261 101 q 418 39 354 39 q 592 115 536 39 q 649 318 649 192 q 606 540 649 444 m 508 847 q 408 879 471 847 q 310 911 346 911 q 253 894 275 911 q 224 861 231 878 l 217 844 l 172 865 q 221 947 179 901 q 333 993 263 993 q 442 961 374 993 q 538 929 510 929 q 589 946 567 929 q 618 979 611 963 l 625 996 l 669 975 q 621 893 663 939 q 508 847 579 847 z "},"ö":{"ha":842,"x_min":69,"x_max":772,"o":"m 423 710 q 502 710 423 710 q 677 610 582 710 q 772 347 772 510 q 678 84 772 183 q 422 -15 583 -15 q 165 85 260 -15 q 69 346 69 185 q 167 608 69 507 q 423 710 264 710 m 606 540 q 535 624 582 593 q 422 656 489 656 q 250 579 307 656 q 193 379 193 503 q 238 153 193 251 q 308 70 261 101 q 418 39 354 39 q 592 115 536 39 q 649 318 649 192 q 606 540 649 444 m 236 864 q 226 874 236 864 q 215 915 215 885 q 236 967 215 946 q 288 988 257 988 q 339 967 318 988 q 360 915 360 946 q 339 864 360 885 q 288 843 318 843 q 236 864 257 843 m 501 864 q 491 874 501 864 q 481 915 481 885 q 501 967 481 946 q 553 988 522 988 q 604 967 583 988 q 625 915 625 946 q 604 864 625 885 q 553 843 583 843 q 501 864 522 843 z "},"÷":{"ha":936,"x_min":83,"x_max":853,"o":"m 836 367 l 100 367 q 83 382 83 367 l 83 438 q 100 453 83 453 l 836 453 q 853 438 853 453 l 853 382 q 836 367 853 367 m 468 242 q 485 242 468 242 q 528 217 503 242 q 554 156 554 192 q 528 96 554 121 q 468 71 503 71 q 408 96 433 71 q 383 156 383 121 q 408 216 383 190 q 468 242 433 242 m 528 723 q 541 710 528 723 q 554 663 554 697 q 528 603 554 628 q 468 578 503 578 q 408 603 433 578 q 383 663 383 628 q 408 723 383 697 q 468 749 433 749 q 528 723 503 749 z "},"ø":{"ha":842,"x_min":65,"x_max":776,"o":"m 692 592 q 772 338 772 493 q 678 84 772 183 q 433 -15 583 -15 q 192 58 282 -15 l 153 17 q 125 0 136 0 l 75 0 q 65 8 65 0 q 69 17 65 13 l 149 101 q 69 352 69 197 q 167 608 69 507 q 410 710 264 710 q 649 635 556 710 l 689 678 q 717 694 706 694 l 767 694 q 776 686 776 694 q 772 678 776 682 l 692 592 m 424 39 q 480 39 424 39 q 592 115 536 39 q 649 310 649 192 q 617 513 649 429 l 254 125 q 424 39 313 39 m 418 656 q 363 656 418 656 q 250 579 307 656 q 193 384 193 503 q 225 182 193 265 l 588 569 q 418 656 529 656 z "},"ù":{"ha":872,"x_min":21,"x_max":858,"o":"m 743 636 l 743 126 q 771 55 743 82 q 838 28 799 28 q 858 11 858 28 q 804 -15 858 -15 q 661 53 722 -15 q 653 63 657 57 q 646 72 649 68 q 634 79 640 79 q 615 68 628 79 q 401 -15 521 -15 q 208 54 281 -15 q 136 251 136 124 l 136 603 q 124 642 136 631 q 88 653 113 653 l 40 653 q 27 658 33 653 q 21 672 21 664 q 40 692 21 689 l 224 710 q 231 710 228 710 q 258 688 258 710 q 251 671 258 685 q 244 636 244 657 l 244 229 q 298 94 244 143 q 435 44 351 44 q 577 107 519 44 q 635 249 635 169 l 635 603 q 623 642 635 631 q 586 653 611 653 l 525 653 q 512 658 518 653 q 506 672 506 664 q 525 692 506 689 l 719 710 q 726 710 722 710 q 754 688 754 710 q 749 671 754 685 q 743 636 743 657 m 257 924 q 231 965 231 938 q 248 1012 231 992 q 285 1032 265 1032 q 319 1019 304 1032 l 529 836 l 504 803 l 257 924 z "},"ú":{"ha":872,"x_min":21,"x_max":858,"o":"m 743 636 l 743 126 q 771 55 743 82 q 838 28 799 28 q 858 11 858 28 q 804 -15 858 -15 q 661 53 722 -15 q 653 63 657 57 q 646 72 649 68 q 634 79 640 79 q 615 68 628 79 q 401 -15 521 -15 q 208 54 281 -15 q 136 251 136 124 l 136 603 q 124 642 136 631 q 88 653 113 653 l 40 653 q 27 658 33 653 q 21 672 21 664 q 40 692 21 689 l 224 710 q 231 710 228 710 q 258 688 258 710 q 251 671 258 685 q 244 636 244 657 l 244 229 q 298 94 244 143 q 435 44 351 44 q 577 107 519 44 q 635 249 635 169 l 635 603 q 623 642 635 631 q 586 653 611 653 l 525 653 q 512 658 518 653 q 506 672 506 664 q 525 692 506 689 l 719 710 q 726 710 722 710 q 754 688 754 710 q 749 671 754 685 q 743 636 743 657 m 524 1019 q 558 1032 539 1032 q 595 1012 578 1032 q 613 965 613 992 q 586 924 613 938 l 339 803 l 314 836 l 524 1019 z "},"û":{"ha":872,"x_min":21,"x_max":858,"o":"m 743 636 l 743 126 q 771 55 743 82 q 838 28 799 28 q 858 11 858 28 q 804 -15 858 -15 q 661 53 722 -15 q 653 63 657 57 q 646 72 649 68 q 634 79 640 79 q 615 68 628 79 q 401 -15 521 -15 q 208 54 281 -15 q 136 251 136 124 l 136 603 q 124 642 136 631 q 88 653 113 653 l 40 653 q 27 658 33 653 q 21 672 21 664 q 40 692 21 689 l 224 710 q 231 710 228 710 q 258 688 258 710 q 251 671 258 685 q 244 636 244 657 l 244 229 q 298 94 244 143 q 435 44 351 44 q 577 107 519 44 q 635 249 635 169 l 635 603 q 623 642 635 631 q 586 653 611 653 l 525 653 q 512 658 518 653 q 506 672 506 664 q 525 692 506 689 l 719 710 q 726 710 722 710 q 754 688 754 710 q 749 671 754 685 q 743 636 743 657 m 226 822 l 201 854 l 417 1044 l 632 854 l 607 822 l 417 928 l 226 822 z "},"ü":{"ha":872,"x_min":21,"x_max":858,"o":"m 743 636 l 743 126 q 771 55 743 82 q 838 28 799 28 q 858 11 858 28 q 804 -15 858 -15 q 661 53 722 -15 q 653 63 657 57 q 646 72 649 68 q 634 79 640 79 q 615 68 628 79 q 401 -15 521 -15 q 208 54 281 -15 q 136 251 136 124 l 136 603 q 124 642 136 631 q 88 653 113 653 l 40 653 q 27 658 33 653 q 21 672 21 664 q 40 692 21 689 l 224 710 q 231 710 228 710 q 258 688 258 710 q 251 671 258 685 q 244 636 244 657 l 244 229 q 298 94 244 143 q 435 44 351 44 q 577 107 519 44 q 635 249 635 169 l 635 603 q 623 642 635 631 q 586 653 611 653 l 525 653 q 512 658 518 653 q 506 672 506 664 q 525 692 506 689 l 719 710 q 726 710 722 710 q 754 688 754 710 q 749 671 754 685 q 743 636 743 657 m 224 864 q 213 874 224 864 q 203 915 203 885 q 224 967 203 946 q 275 988 244 988 q 326 967 306 988 q 347 915 347 946 q 326 864 347 885 q 275 843 306 843 q 224 864 244 843 m 489 864 q 478 874 489 864 q 468 915 468 885 q 489 967 468 946 q 540 988 510 988 q 592 967 571 988 q 613 915 613 946 q 592 864 613 885 q 540 843 571 843 q 489 864 510 843 z "},"ý":{"ha":742,"x_min":1,"x_max":740,"o":"m 574 629 q 536 661 574 656 l 511 664 q 494 683 494 667 q 514 700 494 700 l 622 694 l 722 700 q 740 683 740 700 q 725 664 740 667 l 699 660 q 633 606 653 653 l 336 -82 q 142 -362 240 -299 q 110 -376 119 -376 q 97 -374 100 -376 l 56 -321 q 50 -304 50 -314 q 58 -289 50 -294 q 125 -252 103 -267 q 183 -203 147 -237 q 326 44 244 -142 q 331 61 331 51 q 326 79 331 71 l 107 610 q 43 660 92 649 l 17 664 q 1 683 1 667 q 21 700 1 700 l 158 694 l 296 700 q 319 683 319 700 q 301 664 319 667 l 272 661 q 235 644 246 660 q 232 610 224 629 l 389 200 q 395 197 390 197 q 403 203 400 196 l 569 610 q 574 629 574 621 m 500 1019 q 534 1032 514 1032 q 572 1012 554 1032 q 589 965 589 992 q 563 924 589 938 l 315 803 l 290 836 l 500 1019 z "},"þ":{"ha":863,"x_min":14,"x_max":793,"o":"m 672 303 q 606 561 672 469 q 440 653 539 653 q 291 599 340 653 q 242 486 242 546 l 242 207 q 301 90 242 140 q 431 39 360 39 q 607 108 542 39 q 672 303 672 178 m 219 1111 q 242 1079 242 1111 l 242 651 q 253 644 242 635 q 286 667 265 654 q 350 695 307 681 q 438 710 393 710 q 697 612 600 710 q 793 350 793 514 q 692 85 793 186 q 444 -15 590 -15 q 258 43 338 -15 q 247 44 251 49 q 242 31 242 40 l 242 -325 q 297 -382 242 -375 l 321 -385 q 338 -404 338 -386 q 317 -422 338 -422 l 185 -417 l 35 -422 q 14 -404 14 -422 q 31 -385 14 -386 l 69 -382 q 115 -365 97 -379 q 133 -325 133 -350 l 133 1001 q 122 1040 133 1029 q 83 1050 110 1050 l 36 1050 q 18 1068 18 1050 q 36 1089 18 1086 l 217 1111 q 219 1111 218 1111 z "},"ÿ":{"ha":742,"x_min":1,"x_max":740,"o":"m 574 629 q 536 661 574 656 l 511 664 q 494 683 494 667 q 514 700 494 700 l 622 694 l 722 700 q 740 683 740 700 q 725 664 740 667 l 699 660 q 633 606 653 653 l 336 -82 q 142 -362 240 -299 q 110 -376 119 -376 q 97 -374 100 -376 l 56 -321 q 50 -304 50 -314 q 58 -289 50 -294 q 125 -252 103 -267 q 183 -203 147 -237 q 326 44 244 -142 q 331 61 331 51 q 326 79 331 71 l 107 610 q 43 660 92 649 l 17 664 q 1 683 1 667 q 21 700 1 700 l 158 694 l 296 700 q 319 683 319 700 q 301 664 319 667 l 272 661 q 235 644 246 660 q 232 610 224 629 l 389 200 q 395 197 390 197 q 403 203 400 196 l 569 610 q 574 629 574 621 m 214 864 q 203 874 214 864 q 193 915 193 885 q 214 967 193 946 q 265 988 235 988 q 317 967 296 988 q 338 915 338 946 q 317 864 338 885 q 265 843 296 843 q 214 864 235 843 m 479 864 q 469 874 479 864 q 458 915 458 885 q 479 967 458 946 q 531 988 500 988 q 582 967 561 988 q 603 915 603 946 q 582 864 603 885 q 531 843 561 843 q 479 864 500 843 z "},"ħ":{"ha":886,"x_min":28,"x_max":872,"o":"m 233 1111 q 256 1079 256 1111 l 256 917 l 465 917 q 482 901 482 917 l 482 864 q 465 849 482 849 l 256 849 l 256 607 q 260 600 256 600 q 274 608 265 600 q 484 710 354 710 q 683 641 614 710 q 753 443 753 572 l 753 92 q 771 52 753 67 q 817 35 789 38 l 856 32 q 872 13 872 31 q 851 -6 872 -6 l 701 0 l 576 -6 q 556 13 556 -6 q 572 32 556 31 l 589 35 q 644 92 644 44 l 644 463 q 596 596 644 549 q 462 643 547 643 q 316 573 376 643 q 256 435 256 503 l 256 92 q 311 35 256 42 l 332 32 q 349 13 349 31 q 328 -6 349 -6 l 199 0 l 49 -6 q 28 13 28 -6 q 44 32 28 31 l 83 35 q 129 52 111 38 q 147 92 147 67 l 147 849 l 49 849 q 32 864 32 849 l 32 901 q 49 917 32 917 l 147 917 l 147 1001 q 135 1040 147 1029 q 97 1050 124 1050 l 50 1050 q 32 1068 32 1050 q 50 1089 32 1086 l 231 1111 q 233 1111 232 1111 z "},"Ĩ":{"ha":440,"x_min":-28,"x_max":469,"o":"m 85 -6 q 65 12 65 -6 q 81 32 65 29 l 104 35 q 161 92 161 42 l 161 881 q 97 936 161 931 l 57 940 q 42 958 42 943 q 61 978 42 978 l 218 972 l 356 978 q 376 961 376 978 q 358 940 376 942 l 335 936 q 279 881 279 926 l 279 92 q 297 52 279 67 q 342 35 315 38 l 382 32 q 399 14 399 32 q 392 0 399 6 q 379 -6 386 -6 l 222 0 l 85 -6 m 308 1125 q 208 1157 271 1125 q 110 1189 146 1189 q 53 1172 75 1189 q 24 1139 31 1156 l 17 1122 l -28 1143 q 21 1225 -21 1179 q 133 1271 63 1271 q 242 1239 174 1271 q 338 1207 310 1207 q 389 1224 367 1207 q 418 1257 411 1240 l 425 1274 l 469 1253 q 421 1171 463 1217 q 308 1125 379 1125 z "},"ĩ":{"ha":400,"x_min":-49,"x_max":449,"o":"m 335 32 q 351 13 351 31 q 331 -6 351 -6 l 199 0 l 49 -6 q 28 13 28 -6 q 44 32 28 31 l 83 35 q 129 52 111 38 q 147 92 147 67 l 147 600 q 135 638 147 628 q 97 649 124 649 l 50 649 q 32 667 32 649 q 50 688 32 685 l 231 710 q 256 678 256 713 l 256 92 q 311 35 256 42 l 335 32 m 288 847 q 188 879 250 847 q 90 911 125 911 q 32 894 54 911 q 3 861 10 878 l -4 844 l -49 865 q 0 947 -42 901 q 113 993 42 993 q 221 961 153 993 q 317 929 289 929 q 368 946 346 929 q 397 979 390 963 l 404 996 l 449 975 q 400 893 442 939 q 288 847 358 847 z "},"ı":{"ha":400,"x_min":28,"x_max":351,"o":"m 233 710 q 256 678 256 710 l 256 92 q 311 35 256 42 l 335 32 q 351 13 351 31 q 331 -6 351 -6 l 199 0 l 49 -6 q 28 13 28 -6 q 44 32 28 31 l 83 35 q 129 52 111 38 q 147 92 147 67 l 147 600 q 135 638 147 628 q 97 649 124 649 l 50 649 q 32 667 32 649 q 50 688 32 685 l 231 710 q 233 710 232 710 z "},"Ĳ":{"ha":881,"x_min":42,"x_max":818,"o":"m 85 -6 q 65 12 65 -6 q 81 32 65 29 l 104 35 q 161 92 161 42 l 161 881 q 97 936 161 931 l 57 940 q 42 958 42 943 q 61 978 42 978 l 218 972 l 356 978 q 376 961 376 978 q 358 940 376 942 l 335 936 q 279 881 279 926 l 279 92 q 297 52 279 67 q 342 35 315 38 l 382 32 q 399 14 399 32 q 392 0 399 6 q 379 -6 386 -6 l 222 0 l 85 -6 m 721 881 l 721 -7 q 674 -235 721 -149 q 544 -378 628 -322 q 466 -417 483 -417 q 443 -407 449 -417 q 433 -382 433 -389 q 443 -368 433 -375 q 533 -294 514 -318 q 603 -78 603 -221 l 603 881 q 539 936 603 931 l 499 940 q 483 958 483 943 q 503 978 483 978 l 660 972 l 797 978 q 818 961 818 978 q 800 940 818 942 l 776 936 q 721 881 721 926 z "},"ĳ":{"ha":785,"x_min":28,"x_max":660,"o":"m 335 32 q 351 13 351 31 q 331 -6 351 -6 l 199 0 l 49 -6 q 28 13 28 -6 q 44 32 28 31 l 83 35 q 129 52 111 38 q 147 92 147 67 l 147 600 q 135 638 147 628 q 97 649 124 649 l 50 649 q 32 667 32 649 q 50 688 32 685 l 231 710 q 256 678 256 713 l 256 92 q 311 35 256 42 l 335 32 m 142 919 q 133 928 142 919 q 124 965 124 938 q 142 1011 124 993 q 189 1029 161 1029 q 236 1011 217 1029 q 256 965 256 993 q 236 919 256 938 q 189 901 217 901 q 142 919 161 901 m 545 919 q 536 928 545 919 q 526 965 526 938 q 545 1011 526 993 q 592 1029 564 1029 q 639 1011 619 1029 q 658 965 658 993 q 639 919 658 938 q 592 901 619 901 q 545 919 564 901 m 636 710 q 660 678 660 710 l 660 -7 q 493 -378 660 -271 q 415 -417 432 -417 q 392 -407 397 -417 q 382 -382 382 -392 q 392 -368 382 -372 q 482 -294 446 -337 q 551 -78 551 -221 l 551 600 q 540 638 551 628 q 501 649 528 649 l 454 649 q 436 667 436 649 q 454 688 436 685 l 633 710 q 636 710 635 710 z "},"Ĵ":{"ha":440,"x_min":-3,"x_max":436,"o":"m 281 881 l 281 -7 q 234 -235 281 -149 q 104 -378 188 -322 q 26 -417 43 -417 q 3 -407 8 -417 q -7 -382 -7 -389 q 3 -368 -7 -375 q 93 -294 74 -318 q 163 -78 163 -221 l 163 881 q 99 936 163 931 l 58 940 q 43 958 43 943 q 63 978 43 978 l 219 972 l 357 978 q 378 961 378 978 q 360 940 378 942 l 336 936 q 281 881 281 926 m 31 1100 l 6 1132 l 221 1322 l 436 1132 l 411 1100 l 221 1206 l 31 1100 z "},"ĵ":{"ha":385,"x_min":-22,"x_max":408,"o":"m 260 678 l 260 -7 q 93 -378 260 -271 q 15 -417 32 -417 q -8 -407 -3 -417 q -8 -368 -26 -376 q 82 -294 46 -337 q 151 -78 151 -221 l 151 600 q 140 638 151 628 q 101 649 128 649 l 54 649 q 36 667 36 649 q 54 688 36 685 l 233 710 q 260 678 260 713 m 3 822 l -22 854 l 193 1044 l 408 854 l 383 822 l 193 928 l 3 822 z "},"ķ":{"ha":783,"x_min":28,"x_max":790,"o":"m 147 92 l 147 1001 q 135 1040 147 1029 q 97 1050 124 1050 l 50 1050 q 32 1068 32 1050 q 50 1089 32 1086 l 231 1111 q 256 1079 256 1111 l 256 411 q 265 399 256 399 l 324 399 q 343 407 335 399 l 539 613 q 551 637 551 628 q 541 661 551 646 q 531 683 531 676 q 550 699 531 699 l 638 694 l 740 700 q 761 683 761 700 q 744 664 761 667 l 725 661 q 642 617 678 654 l 426 399 q 421 388 421 393 q 426 378 421 383 l 675 92 q 749 35 722 38 l 774 32 q 790 14 790 29 q 771 -6 790 -6 q 642 0 667 0 l 557 -4 q 536 11 536 -4 q 544 34 536 21 q 551 56 551 47 q 539 78 551 64 l 332 329 q 314 338 324 338 l 268 338 q 256 325 256 338 l 256 92 q 311 35 256 42 l 335 32 q 351 13 351 31 q 331 -6 351 -6 l 199 0 l 49 -6 q 28 13 28 -6 q 44 32 28 31 l 83 35 q 129 52 111 38 q 147 92 147 67 m 357 -454 q 332 -431 332 -454 q 342 -411 332 -418 q 418 -285 414 -357 q 354 -258 376 -282 q 332 -198 332 -233 q 357 -137 332 -162 q 418 -111 382 -111 q 481 -140 454 -111 q 507 -231 507 -169 q 465 -356 507 -292 q 376 -447 424 -419 q 357 -454 365 -454 z "},"ĸ":{"ha":783,"x_min":28,"x_max":790,"o":"m 147 92 l 147 600 q 135 638 147 628 q 97 649 124 649 l 50 649 q 32 667 32 649 q 50 688 32 685 l 231 710 q 256 678 256 710 l 256 411 q 265 399 256 399 l 324 399 q 343 407 335 399 l 539 613 q 551 637 551 628 q 541 661 551 646 q 531 683 531 676 q 550 699 531 699 l 638 694 l 740 700 q 761 683 761 700 q 744 664 761 667 l 725 661 q 642 617 678 654 l 426 399 q 421 388 421 393 q 426 378 421 383 l 675 92 q 749 35 722 38 l 774 32 q 790 14 790 29 q 771 -6 790 -6 q 642 0 667 0 l 557 -4 q 536 11 536 -4 q 544 34 536 21 q 551 56 551 47 q 539 78 551 64 l 332 329 q 314 338 324 338 l 268 338 q 256 325 256 338 l 256 92 q 311 35 256 42 l 335 32 q 351 13 351 31 q 331 -6 351 -6 l 199 0 l 49 -6 q 28 13 28 -6 q 44 32 28 31 l 83 35 q 129 52 111 38 q 147 92 147 67 z "},"Ŀ":{"ha":825,"x_min":42,"x_max":796,"o":"m 279 881 l 279 128 q 298 81 279 99 q 347 64 317 64 l 549 64 q 675 99 622 64 q 747 203 728 135 q 776 225 754 225 q 796 200 799 225 l 774 56 q 754 16 771 32 q 711 0 738 0 l 218 0 l 61 -6 q 42 13 42 -6 q 57 32 42 32 l 97 35 q 143 52 125 38 q 161 92 161 67 l 161 881 q 97 936 161 931 l 57 940 q 42 958 42 943 q 61 978 42 978 l 218 972 l 356 978 q 376 961 376 978 q 358 940 376 942 l 335 936 q 279 881 279 926 m 418 399 q 408 409 418 399 q 397 450 397 419 q 418 501 397 481 q 469 522 439 522 q 521 501 500 522 q 542 450 542 481 q 521 399 542 419 q 469 378 500 378 q 418 399 439 378 z "},"ŀ":{"ha":514,"x_min":28,"x_max":500,"o":"m 233 1111 q 256 1079 256 1111 l 256 92 q 311 35 256 42 l 335 32 q 351 13 351 31 q 331 -6 351 -6 l 199 0 l 49 -6 q 28 13 28 -6 q 44 32 28 31 l 83 35 q 129 52 111 38 q 147 92 147 67 l 147 1001 q 135 1040 147 1029 q 97 1050 124 1050 l 50 1050 q 32 1068 32 1050 q 50 1089 32 1086 l 231 1111 q 233 1111 232 1111 m 376 385 q 366 395 376 385 q 356 436 356 406 q 376 488 356 467 q 428 508 397 508 q 479 488 458 508 q 500 436 500 467 q 479 385 500 406 q 428 364 458 364 q 376 385 397 364 z "},"Ł":{"ha":825,"x_min":42,"x_max":796,"o":"m 518 542 l 518 499 q 501 479 518 485 l 60 289 q 48 290 53 286 q 43 300 43 293 l 43 343 q 60 363 43 357 l 501 553 q 513 552 508 556 q 518 542 518 549 m 279 881 l 279 128 q 298 81 279 99 q 347 64 317 64 l 549 64 q 675 99 622 64 q 747 203 728 135 q 776 225 754 225 q 796 200 799 225 l 774 56 q 754 16 771 32 q 711 0 738 0 l 218 0 l 61 -6 q 42 13 42 -6 q 57 32 42 32 l 97 35 q 143 52 125 38 q 161 92 161 67 l 161 881 q 97 936 161 931 l 57 940 q 42 958 42 943 q 61 978 42 978 l 218 972 l 356 978 q 376 961 376 978 q 358 940 376 942 l 335 936 q 279 881 279 926 z "},"ł":{"ha":428,"x_min":28,"x_max":400,"o":"m 400 542 l 400 499 q 383 479 400 488 l 44 289 q 33 290 39 286 q 28 300 28 293 l 28 343 q 44 363 28 354 l 383 553 q 395 552 390 556 q 400 542 400 549 m 247 1111 q 269 1079 269 1111 l 269 92 q 325 35 269 42 l 349 32 q 365 13 365 31 q 344 -6 365 -6 l 213 0 l 63 -6 q 42 13 42 -6 q 58 32 42 31 l 97 35 q 143 52 125 38 q 161 92 161 67 l 161 1001 q 149 1040 161 1029 q 111 1050 138 1050 l 64 1050 q 46 1068 46 1050 q 64 1089 46 1086 l 244 1111 q 247 1111 246 1111 z "},"Ń":{"ha":1058,"x_min":42,"x_max":1017,"o":"m 851 207 l 851 881 q 789 936 851 929 l 749 940 q 733 960 733 943 q 753 976 733 976 l 888 972 l 996 976 q 1017 960 1017 976 q 999 940 1017 943 l 975 936 q 919 881 919 926 l 919 1 q 904 -15 919 -15 l 886 -15 q 826 18 851 -15 l 242 767 q 233 769 239 769 q 228 756 228 769 l 228 92 q 283 36 228 46 l 307 32 q 325 13 325 29 q 304 -4 325 -4 l 196 0 l 61 -4 q 42 13 42 -4 q 57 32 42 29 l 97 36 q 161 92 161 43 l 161 881 q 106 936 161 929 l 81 939 q 64 959 64 942 q 85 976 64 976 l 196 972 q 257 946 236 971 l 836 203 q 846 199 840 199 q 851 207 851 199 m 644 1297 q 678 1310 658 1310 q 716 1290 699 1310 q 733 1242 733 1269 q 707 1201 733 1215 l 460 1081 l 435 1114 l 644 1297 z "},"ń":{"ha":889,"x_min":28,"x_max":875,"o":"m 753 443 l 753 92 q 773 52 753 67 q 821 35 793 38 l 858 32 q 875 13 875 31 q 854 -6 875 -6 l 706 0 l 579 -6 q 558 13 558 -6 q 575 32 558 31 l 593 35 q 644 92 644 43 l 644 463 q 596 596 644 549 q 462 643 547 643 q 316 573 376 643 q 256 435 256 503 l 256 92 q 311 35 256 42 l 335 32 q 351 13 351 31 q 331 -6 351 -6 l 199 0 l 49 -6 q 28 13 28 -6 q 44 32 28 31 l 83 35 q 129 52 111 38 q 147 92 147 67 l 147 600 q 135 638 147 628 q 97 649 124 649 l 50 649 q 32 667 32 649 q 50 688 32 685 l 231 710 q 256 678 256 713 l 256 607 q 260 600 256 600 q 274 608 265 600 q 484 710 354 710 q 683 641 614 710 q 753 443 753 572 m 532 1019 q 567 1032 547 1032 q 603 1012 586 1032 q 621 965 621 992 q 594 924 621 938 l 347 803 l 322 836 l 532 1019 z "},"Œ":{"ha":1461,"x_min":69,"x_max":1404,"o":"m 1319 0 l 799 0 l 663 -4 q 556 -15 607 -15 q 204 126 339 -15 q 69 485 69 268 q 204 845 69 703 q 556 988 339 988 q 665 976 610 988 l 799 972 l 1292 972 q 1335 956 1318 972 q 1354 917 1351 940 l 1374 789 q 1353 764 1376 764 q 1324 786 1331 764 q 1261 881 1303 853 q 1146 908 1219 908 l 928 908 q 878 891 897 908 q 860 843 860 874 l 860 551 q 878 533 860 533 l 1136 533 q 1167 543 1156 533 q 1181 561 1178 553 q 1192 592 1185 569 l 1197 610 q 1218 626 1201 626 q 1235 607 1235 626 l 1229 489 l 1235 376 q 1217 356 1235 358 q 1197 372 1200 356 l 1193 397 q 1136 469 1181 469 l 876 469 q 860 450 860 469 l 860 128 q 878 81 860 99 q 928 64 897 64 l 1157 64 q 1281 99 1229 64 q 1354 203 1333 135 q 1377 225 1361 225 q 1399 217 1393 225 q 1404 200 1406 210 l 1382 56 q 1362 16 1379 32 q 1319 0 1344 0 m 283 208 q 396 92 324 136 q 567 49 468 49 q 742 93 665 49 l 742 868 q 554 924 661 924 q 292 820 385 924 q 200 539 200 717 q 283 208 200 354 z "},"œ":{"ha":1333,"x_min":69,"x_max":1271,"o":"m 1271 439 q 1196 356 1271 356 l 796 356 q 779 332 779 356 q 853 130 782 204 q 1035 56 925 56 q 1199 99 1146 56 q 1232 97 1217 113 q 1228 63 1247 82 q 1014 -15 1150 -15 q 711 125 806 -15 q 421 -15 615 -15 q 165 85 260 -15 q 69 346 69 185 q 167 608 69 507 q 421 710 264 710 q 714 563 618 710 q 828 670 758 631 q 979 710 899 710 q 1189 633 1107 710 q 1271 439 1271 556 m 606 540 q 535 624 582 593 q 422 656 489 656 q 250 579 307 656 q 193 379 193 503 q 238 153 193 251 q 308 70 261 101 q 418 39 354 39 q 592 115 536 39 q 649 318 649 192 q 606 540 649 444 m 1146 457 q 1101 598 1146 540 q 974 656 1056 656 q 836 589 893 656 q 779 436 779 522 q 797 414 779 414 l 1103 414 q 1146 457 1146 414 z "},"Ŕ":{"ha":928,"x_min":42,"x_max":935,"o":"m 626 577 q 658 604 626 577 q 690 718 690 631 q 626 858 690 806 q 465 910 563 910 l 335 910 q 279 854 279 910 l 279 542 q 294 524 279 524 l 465 524 q 626 577 561 524 m 513 972 q 731 904 646 972 q 817 724 817 836 q 733 540 817 613 q 546 464 649 467 l 544 461 q 590 425 574 451 l 800 92 q 892 35 829 43 l 917 32 q 935 14 935 29 q 914 -6 935 -6 q 748 0 781 0 q 697 28 715 0 l 463 418 q 401 461 435 461 q 400 461 401 461 l 300 461 q 279 444 279 461 l 279 92 q 297 51 279 67 q 342 35 315 36 l 400 32 q 415 13 415 32 q 396 -6 415 -6 l 222 0 l 68 -6 q 47 11 50 -6 q 64 32 47 31 l 104 35 q 161 92 161 39 l 161 881 q 97 936 161 931 l 57 940 q 42 958 42 943 q 61 978 42 978 l 253 972 l 513 972 m 524 1297 q 558 1310 539 1310 q 595 1290 578 1310 q 613 1242 613 1269 q 586 1201 613 1215 l 339 1081 l 314 1114 l 524 1297 z "},"Ŗ":{"ha":928,"x_min":42,"x_max":935,"o":"m 626 577 q 658 604 626 577 q 690 718 690 631 q 626 858 690 806 q 465 910 563 910 l 335 910 q 279 854 279 910 l 279 542 q 294 524 279 524 l 465 524 q 626 577 561 524 m 513 972 q 731 904 646 972 q 817 724 817 836 q 733 540 817 613 q 546 464 649 467 l 544 461 q 590 425 574 451 l 800 92 q 892 35 829 43 l 917 32 q 935 14 935 29 q 914 -6 935 -6 q 748 0 781 0 q 697 28 715 0 l 463 418 q 401 461 435 461 q 400 461 401 461 l 300 461 q 279 444 279 461 l 279 92 q 297 51 279 67 q 342 35 315 36 l 400 32 q 415 13 415 32 q 396 -6 415 -6 l 222 0 l 68 -6 q 47 11 50 -6 q 64 32 47 31 l 104 35 q 161 92 161 39 l 161 881 q 97 936 161 931 l 57 940 q 42 958 42 943 q 61 978 42 978 l 253 972 l 513 972 m 443 -454 q 418 -431 418 -454 q 428 -411 418 -418 q 504 -285 500 -357 q 440 -258 463 -282 q 418 -198 418 -233 q 443 -137 418 -162 q 504 -111 468 -111 q 567 -140 540 -111 q 593 -231 593 -169 q 551 -356 593 -292 q 463 -447 510 -419 q 443 -454 451 -454 z "},"ŗ":{"ha":567,"x_min":28,"x_max":553,"o":"m 233 710 q 256 678 256 710 l 256 603 q 261 596 256 596 q 274 604 267 596 q 362 677 306 644 q 462 710 418 710 q 529 700 506 710 q 553 678 553 690 l 553 571 q 533 550 553 550 q 504 571 522 550 q 403 618 465 618 q 299 560 342 618 q 256 392 256 501 l 256 92 q 329 36 256 42 l 386 32 q 403 13 403 31 q 382 -6 403 -6 l 199 0 l 49 -6 q 28 13 28 -6 q 44 32 28 31 l 83 35 q 129 52 111 38 q 147 92 147 67 l 147 600 q 135 638 147 628 q 97 649 124 649 l 50 649 q 32 667 32 649 q 50 688 32 685 l 231 710 q 233 710 232 710 m 221 -454 q 196 -431 196 -454 q 206 -411 196 -418 q 282 -285 278 -357 q 218 -258 240 -282 q 196 -198 196 -233 q 221 -137 196 -162 q 282 -111 246 -111 q 344 -140 318 -111 q 371 -231 371 -169 q 329 -356 371 -292 q 240 -447 288 -419 q 221 -454 229 -454 z "},"Ř":{"ha":928,"x_min":42,"x_max":935,"o":"m 626 577 q 658 604 626 577 q 690 718 690 631 q 626 858 690 806 q 465 910 563 910 l 335 910 q 279 854 279 910 l 279 542 q 294 524 279 524 l 465 524 q 626 577 561 524 m 513 972 q 731 904 646 972 q 817 724 817 836 q 733 540 817 613 q 546 464 649 467 l 544 461 q 590 425 574 451 l 800 92 q 892 35 829 43 l 917 32 q 935 14 935 29 q 914 -6 935 -6 q 748 0 781 0 q 697 28 715 0 l 463 418 q 401 461 435 461 q 400 461 401 461 l 300 461 q 279 444 279 461 l 279 92 q 297 51 279 67 q 342 35 315 36 l 400 32 q 415 13 415 32 q 396 -6 415 -6 l 222 0 l 68 -6 q 47 11 50 -6 q 64 32 47 31 l 104 35 q 161 92 161 39 l 161 881 q 97 936 161 931 l 57 940 q 42 958 42 943 q 61 978 42 978 l 253 972 l 513 972 m 235 1290 l 260 1322 l 450 1217 l 640 1322 l 665 1290 l 450 1100 l 235 1290 z "},"ř":{"ha":567,"x_min":28,"x_max":553,"o":"m 147 92 l 147 600 q 135 638 147 628 q 97 649 124 649 l 50 649 q 32 667 32 649 q 50 688 32 685 l 231 710 q 256 678 256 713 l 256 603 q 261 596 256 596 q 274 604 267 596 q 362 677 306 644 q 462 710 418 710 q 529 700 506 710 q 553 678 553 690 l 553 571 q 533 550 553 550 q 504 571 522 550 q 403 618 465 618 q 299 560 342 618 q 256 392 256 501 l 256 92 q 329 36 256 42 l 386 32 q 403 13 403 31 q 382 -6 403 -6 l 199 0 l 49 -6 q 28 13 28 -6 q 44 32 28 31 l 83 35 q 129 52 111 38 q 147 92 147 67 m 68 1013 l 93 1044 l 283 939 l 474 1044 l 499 1013 l 283 822 l 68 1013 z "},"Š":{"ha":793,"x_min":69,"x_max":724,"o":"m 724 251 q 626 53 724 121 q 388 -15 528 -15 q 159 18 249 -15 q 69 92 69 51 l 69 254 q 92 283 69 283 q 117 257 110 283 q 210 98 153 150 q 372 46 268 46 q 541 93 476 46 q 606 224 606 140 q 503 378 606 315 q 401 432 457 406 q 290 487 346 458 q 189 549 235 515 q 86 738 86 624 q 174 920 86 853 q 382 988 263 988 q 585 958 501 988 q 668 892 668 928 l 668 751 q 648 724 668 724 q 618 751 628 724 q 542 883 589 840 q 401 926 494 926 q 253 882 307 926 q 199 772 199 838 q 253 658 199 706 q 384 573 307 610 q 538 497 461 536 q 669 394 615 457 q 724 251 724 332 m 181 1290 l 206 1322 l 396 1217 l 586 1322 l 611 1290 l 396 1100 l 181 1290 z "},"š":{"ha":614,"x_min":76,"x_max":551,"o":"m 551 179 q 481 38 551 92 q 310 -15 411 -15 q 143 8 210 -15 q 76 61 76 32 l 76 182 q 95 207 76 207 q 121 182 114 207 q 301 39 164 39 q 404 70 364 39 q 444 149 444 101 q 407 230 444 196 q 316 289 369 264 q 209 342 263 314 q 118 413 156 369 q 81 514 81 457 q 146 654 81 599 q 319 710 211 710 q 451 685 392 710 q 511 633 511 661 l 511 526 q 492 501 511 501 q 467 526 472 501 q 310 656 429 656 q 218 628 256 656 q 181 556 181 601 q 219 476 181 511 q 312 416 257 442 q 421 362 367 390 q 513 287 475 333 q 551 179 551 240 m 92 1013 l 117 1044 l 307 939 l 497 1044 l 522 1013 l 307 822 l 92 1013 z "},"Ÿ":{"ha":989,"x_min":0,"x_max":996,"o":"m 976 976 q 996 960 996 976 q 981 940 996 943 l 940 936 q 861 881 894 932 l 590 447 q 571 382 574 418 l 571 92 q 589 52 571 67 q 633 35 607 38 l 674 32 q 690 14 690 32 q 684 0 690 6 q 671 -6 678 -6 l 514 0 l 375 -6 q 356 12 356 -6 q 371 32 356 29 l 394 35 q 451 92 451 42 l 451 363 q 439 411 451 389 l 136 881 q 56 936 103 932 l 15 940 q 0 960 0 943 q 19 976 0 976 l 185 972 l 332 975 q 353 957 353 975 q 336 938 353 939 l 310 935 q 277 914 285 932 q 281 881 269 896 l 522 483 q 535 474 528 474 q 547 481 542 474 l 785 881 q 788 913 796 896 q 756 935 781 931 l 729 938 q 713 958 710 940 q 733 975 714 975 l 842 972 l 976 976 m 338 1142 q 327 1152 338 1142 q 317 1193 317 1163 q 338 1244 317 1224 q 389 1265 358 1265 q 440 1244 419 1265 q 461 1193 461 1224 q 440 1142 461 1163 q 389 1121 419 1121 q 338 1142 358 1121 m 603 1142 q 592 1152 603 1142 q 582 1193 582 1163 q 603 1244 582 1224 q 654 1265 624 1265 q 706 1244 685 1265 q 726 1193 726 1224 q 706 1142 726 1163 q 654 1121 685 1121 q 603 1142 624 1121 z "},"Ž":{"ha":851,"x_min":56,"x_max":808,"o":"m 724 0 l 72 0 q 56 15 56 0 l 56 28 q 63 51 56 42 l 601 894 q 593 908 610 908 l 288 908 q 188 872 229 908 q 128 785 146 836 q 101 761 122 761 q 86 769 92 761 q 82 785 81 776 l 110 931 q 147 972 117 972 l 750 972 q 767 961 767 972 l 767 947 q 750 911 767 939 l 229 90 q 225 75 224 82 q 233 68 226 68 l 557 68 q 760 221 699 68 q 788 242 768 242 q 808 217 811 242 l 786 56 q 767 16 783 32 q 724 0 750 0 m 210 1290 l 235 1322 l 425 1217 l 615 1322 l 640 1290 l 425 1100 l 210 1290 z "},"ž":{"ha":656,"x_min":35,"x_max":626,"o":"m 578 0 l 51 0 q 35 15 35 0 l 35 28 q 42 51 35 42 l 444 629 q 436 643 453 643 l 253 643 q 110 554 139 643 q 83 529 104 529 q 68 537 74 529 q 64 554 63 544 l 75 651 q 113 694 79 694 l 576 694 q 594 682 594 694 l 594 668 q 576 633 594 660 l 192 76 q 187 62 186 69 q 196 54 188 54 l 436 54 q 526 85 488 54 q 582 168 565 115 q 608 192 590 192 q 622 184 617 192 q 626 168 628 176 l 614 44 q 578 0 610 0 m 113 1013 l 138 1044 l 328 939 l 518 1044 l 543 1013 l 328 822 l 113 1013 z "},"ƒ":{"ha":600,"x_min":-69,"x_max":614,"o":"m 326 -26 q 247 -303 326 -189 q 49 -417 168 -417 q -25 -403 4 -417 q -69 -353 -69 -382 l -69 -262 q -65 -247 -69 -254 q -53 -239 -60 -239 q -28 -262 -37 -239 q 15 -327 -15 -304 q 83 -350 46 -350 q 183 -289 149 -350 q 218 -115 218 -228 l 218 486 q 201 501 218 501 l 117 501 q 100 519 100 501 l 100 531 q 117 547 100 544 l 194 567 q 218 592 218 572 l 218 597 q 297 874 218 760 q 496 988 376 988 q 569 975 540 988 q 614 924 614 953 l 614 833 q 609 817 614 825 q 597 810 604 810 q 572 833 582 810 q 529 898 560 875 q 461 921 499 921 q 361 860 396 921 q 326 686 326 799 l 326 586 q 340 571 326 571 l 493 571 q 508 554 511 571 l 503 519 q 486 501 500 501 l 339 501 q 326 486 326 501 l 326 -26 z "},"ˆ":{"ha":611,"x_min":90,"x_max":521,"o":"m 115 822 l 90 854 l 306 1044 l 521 854 l 496 822 l 306 928 l 115 822 z "},"ˇ":{"ha":611,"x_min":90,"x_max":521,"o":"m 90 1013 l 115 1044 l 306 939 l 496 1044 l 521 1013 l 306 822 l 90 1013 z "},"˘":{"ha":611,"x_min":90,"x_max":521,"o":"m 458 898 q 427 867 458 898 q 306 836 396 836 q 153 898 215 836 q 90 1049 90 960 l 90 1065 l 156 1065 l 156 1063 q 199 967 156 1004 q 306 929 242 929 q 413 967 369 929 q 456 1063 456 1004 l 456 1065 l 521 1065 l 521 1049 q 458 898 521 960 z "},"˙":{"ha":325,"x_min":90,"x_max":235,"o":"m 111 846 q 101 856 111 846 q 90 897 90 867 q 111 949 90 928 q 163 969 132 969 q 214 949 193 969 q 235 897 235 928 q 214 846 235 867 q 163 825 193 825 q 111 846 132 825 z "},"˚":{"ha":469,"x_min":90,"x_max":379,"o":"m 132 846 q 111 867 132 846 q 90 947 90 888 q 132 1049 90 1007 q 235 1090 174 1090 q 338 1049 296 1090 q 379 947 379 1007 q 338 846 379 888 q 235 804 296 804 q 132 846 174 804 m 180 1003 q 169 992 180 1003 q 158 947 158 981 q 180 891 158 914 q 235 868 201 868 q 289 891 268 868 q 310 947 310 914 q 289 1003 310 981 q 235 1026 268 1026 q 180 1003 201 1026 z "},"˛":{"ha":413,"x_min":90,"x_max":322,"o":"m 179 -179 q 251 -249 179 -249 q 303 -240 275 -249 l 303 -290 q 236 -301 267 -301 q 132 -266 174 -301 q 90 -169 90 -231 q 146 -58 90 -106 q 231 0 194 -15 l 247 7 l 322 -7 q 194 -124 235 -51 q 179 -179 179 -151 z "},"˜":{"ha":678,"x_min":90,"x_max":588,"o":"m 426 847 q 326 879 389 847 q 228 911 264 911 q 171 894 193 911 q 142 861 149 878 l 135 844 l 90 865 q 139 947 97 901 q 251 993 181 993 q 360 961 292 993 q 456 929 428 929 q 507 946 485 929 q 536 979 529 963 l 543 996 l 588 975 q 539 893 581 939 q 426 847 497 847 z "},"˝":{"ha":753,"x_min":90,"x_max":663,"o":"m 300 1033 q 334 1046 314 1046 q 372 1026 354 1046 q 389 978 389 1006 q 363 938 389 951 l 115 817 l 90 850 l 300 1033 m 574 1033 q 608 1046 589 1046 q 645 1026 628 1046 q 663 978 663 1006 q 636 938 663 951 l 389 817 l 364 850 l 574 1033 z "},"̇":{"ha":325,"x_min":90,"x_max":235,"o":"m 111 846 q 101 856 111 846 q 90 897 90 867 q 111 949 90 928 q 163 969 132 969 q 214 949 193 969 q 235 897 235 928 q 214 846 235 867 q 163 825 193 825 q 111 846 132 825 z "},"–":{"ha":997,"x_min":97,"x_max":900,"o":"m 114 457 l 883 457 q 900 442 900 457 l 900 376 q 883 361 900 361 l 114 361 q 97 376 97 361 l 97 442 q 114 457 97 457 z "},"—":{"ha":1711,"x_min":97,"x_max":1614,"o":"m 114 457 l 1597 457 q 1614 442 1614 457 l 1614 376 q 1597 361 1614 361 l 114 361 q 97 376 97 361 l 97 442 q 114 457 97 457 z "},"‘":{"ha":314,"x_min":69,"x_max":244,"o":"m 219 988 q 244 964 244 988 q 235 944 244 951 q 158 818 163 890 q 222 791 200 815 q 244 731 244 767 q 219 670 244 696 q 158 644 194 644 q 96 674 122 644 q 69 764 69 703 q 111 889 69 825 q 200 981 153 953 q 219 988 211 988 z "},"’":{"ha":314,"x_min":69,"x_max":244,"o":"m 94 644 q 69 668 69 644 q 79 688 69 681 q 156 814 151 742 q 92 841 114 817 q 69 901 69 865 q 94 962 69 936 q 156 988 119 988 q 218 958 192 988 q 244 868 244 929 q 203 743 244 807 q 114 651 161 679 q 94 644 103 644 z "},"‚":{"ha":342,"x_min":83,"x_max":258,"o":"m 108 -187 q 83 -164 83 -187 q 93 -144 83 -151 q 169 -18 165 -90 q 106 9 128 -15 q 83 69 83 33 q 108 130 83 104 q 169 156 133 156 q 232 126 206 156 q 258 36 258 97 q 217 -89 258 -25 q 128 -181 175 -153 q 108 -187 117 -187 z "},"“":{"ha":539,"x_min":69,"x_max":469,"o":"m 444 988 q 469 964 469 988 q 460 944 469 951 q 383 818 388 890 q 447 791 425 815 q 469 731 469 767 q 444 670 469 696 q 383 644 419 644 q 321 674 347 644 q 294 764 294 703 q 336 889 294 825 q 425 981 378 953 q 444 988 436 988 m 219 988 q 244 964 244 988 q 235 944 244 951 q 158 818 163 890 q 222 791 200 815 q 244 731 244 767 q 219 670 244 696 q 158 644 194 644 q 96 674 122 644 q 69 764 69 703 q 111 889 69 825 q 200 981 153 953 q 219 988 211 988 z "},"”":{"ha":539,"x_min":69,"x_max":469,"o":"m 94 644 q 69 668 69 644 q 79 688 69 681 q 156 814 151 742 q 92 841 114 817 q 69 901 69 865 q 94 962 69 936 q 156 988 119 988 q 218 958 192 988 q 244 868 244 929 q 203 743 244 807 q 114 651 161 679 q 94 644 103 644 m 319 644 q 294 668 294 644 q 304 688 294 681 q 381 814 376 742 q 317 841 339 817 q 294 901 294 865 q 319 962 294 936 q 381 988 344 988 q 443 958 417 988 q 469 868 469 929 q 428 743 469 807 q 339 651 386 679 q 319 644 328 644 z "},"„":{"ha":567,"x_min":83,"x_max":483,"o":"m 108 -187 q 83 -164 83 -187 q 93 -144 83 -151 q 169 -18 165 -90 q 106 9 128 -15 q 83 69 83 33 q 108 130 83 104 q 169 156 133 156 q 232 126 206 156 q 258 36 258 97 q 217 -89 258 -25 q 128 -181 175 -153 q 108 -187 117 -187 m 333 -187 q 308 -164 308 -187 q 318 -144 308 -151 q 394 -18 390 -90 q 331 9 353 -15 q 308 69 308 33 q 333 130 308 104 q 394 156 358 156 q 457 126 431 156 q 483 36 483 97 q 442 -89 483 -25 q 353 -181 400 -153 q 333 -187 342 -187 z "},"†":{"ha":743,"x_min":69,"x_max":674,"o":"m 335 972 l 410 972 q 425 956 425 972 l 417 674 l 657 689 q 674 674 674 689 l 674 599 q 657 583 674 583 l 417 599 q 403 -357 408 -3 q 385 -372 403 -372 l 358 -372 q 340 -357 340 -372 l 326 599 l 86 583 q 69 599 69 583 l 69 674 q 86 689 69 689 l 326 674 l 319 956 q 335 972 319 972 z "},"‡":{"ha":743,"x_min":69,"x_max":674,"o":"m 340 -357 l 333 25 l 86 11 q 69 26 69 11 l 69 101 q 86 117 69 117 l 332 101 l 326 599 l 86 583 q 69 599 69 583 l 69 674 q 86 689 69 689 l 326 674 l 319 956 q 335 972 319 972 l 410 972 q 425 956 425 972 l 417 674 l 657 689 q 674 674 674 689 l 674 599 q 657 583 674 583 l 417 599 q 410 101 413 364 l 657 117 q 674 101 674 117 l 674 26 q 657 11 674 11 l 408 25 q 403 -357 403 -269 q 385 -372 403 -372 l 358 -372 q 340 -357 340 -372 z "},"•":{"ha":536,"x_min":97,"x_max":439,"o":"m 146 346 q 122 370 146 346 q 97 468 97 394 q 146 590 97 542 q 268 639 194 639 q 390 590 342 639 q 439 468 439 542 q 390 346 439 394 q 268 297 342 297 q 146 346 194 297 z "},"…":{"ha":929,"x_min":83,"x_max":846,"o":"m 168 156 q 185 156 168 156 q 228 131 203 156 q 254 70 254 106 q 228 10 254 35 q 168 -15 203 -15 q 108 10 133 -15 q 83 69 83 35 q 108 130 83 104 q 168 156 133 156 m 465 156 q 482 156 465 156 q 525 131 500 156 q 550 70 550 106 q 524 10 550 35 q 464 -15 499 -15 q 404 10 429 -15 q 379 69 379 35 q 404 130 379 104 q 465 156 429 156 m 760 156 q 777 156 760 156 q 820 131 794 156 q 846 70 846 106 q 820 10 846 35 q 760 -15 794 -15 q 700 10 725 -15 q 675 69 675 35 q 700 130 675 104 q 760 156 725 156 z "},"‰":{"ha":1693,"x_min":69,"x_max":1624,"o":"m 281 915 q 224 915 281 915 q 168 696 168 915 q 281 476 168 476 q 393 696 393 476 q 281 915 393 915 m 126 497 q 98 536 126 497 q 69 696 69 575 q 126 894 69 817 q 281 972 182 972 q 435 894 379 972 q 492 696 492 817 q 435 497 492 575 q 281 419 379 419 q 126 497 182 419 m 907 57 q 963 57 907 57 q 1019 276 1019 57 q 907 496 1019 496 q 794 276 794 496 q 907 57 794 57 m 1062 475 q 1090 436 1062 475 q 1118 276 1118 397 q 1062 78 1118 156 q 907 0 1006 0 q 752 78 808 0 q 696 276 696 156 q 752 475 696 397 q 907 553 808 553 q 1062 475 1006 553 m 339 -32 l 290 -32 q 279 -26 279 -32 q 282 -15 279 -21 l 822 988 q 847 1004 831 1004 l 896 1004 q 904 988 913 1004 l 364 -15 q 339 -32 356 -32 m 1413 57 q 1469 57 1413 57 q 1525 276 1525 57 q 1413 496 1525 496 q 1300 276 1300 496 q 1413 57 1300 57 m 1567 475 q 1595 436 1567 475 q 1624 276 1624 397 q 1567 78 1624 156 q 1413 0 1511 0 q 1258 78 1314 0 q 1201 276 1201 156 q 1258 475 1201 397 q 1413 553 1314 553 q 1567 475 1511 553 z "},"‹":{"ha":401,"x_min":69,"x_max":306,"o":"m 74 329 q 69 342 69 336 q 74 354 69 347 l 261 611 q 272 622 267 622 q 291 616 278 622 q 304 601 304 610 q 303 594 304 599 l 186 342 l 303 89 q 304 82 304 85 q 293 68 304 74 q 272 61 278 61 q 261 72 267 61 l 74 329 z "},"›":{"ha":401,"x_min":96,"x_max":332,"o":"m 328 354 q 332 342 332 347 q 328 329 332 336 l 140 72 q 129 61 135 61 q 110 67 124 61 q 97 82 97 74 q 99 89 97 85 l 215 342 l 99 594 q 97 601 97 599 q 108 615 97 610 q 129 622 124 622 q 140 611 135 622 l 328 354 z "},"⁄":{"ha":315,"x_min":-156,"x_max":472,"o":"m -96 -32 l -144 -32 q -156 -26 -156 -32 q -153 -15 -156 -21 l 388 988 q 413 1004 396 1004 l 461 1004 q 472 999 472 1004 q 469 988 472 993 l -71 -15 q -96 -32 -79 -32 z "},"€":{"ha":1035,"x_min":56,"x_max":967,"o":"m 72 625 l 172 625 q 341 888 213 789 q 656 988 469 988 q 867 956 772 988 q 963 893 963 924 l 963 735 q 956 716 963 725 q 940 707 950 707 q 910 735 917 707 q 817 881 885 828 q 656 933 749 933 q 418 849 513 933 q 297 625 324 764 l 700 625 q 717 610 717 625 l 717 572 q 700 557 717 557 l 289 557 l 289 525 q 296 439 289 485 l 700 439 q 717 424 717 439 l 717 386 q 700 371 717 371 l 310 371 q 442 151 349 238 q 656 64 535 64 q 791 81 746 64 q 852 106 836 99 q 893 131 868 114 q 921 149 918 147 q 956 153 946 164 q 965 133 965 143 q 954 113 965 124 q 857 33 907 60 q 642 -15 765 -15 q 328 92 456 -15 q 167 371 201 199 l 72 371 q 56 386 56 371 l 56 424 q 72 439 56 439 l 157 439 q 156 488 156 454 q 160 557 156 522 l 72 557 q 56 572 56 557 l 56 610 q 72 625 56 625 z "},"™":{"ha":1357,"x_min":42,"x_max":1274,"o":"m 1235 456 l 1257 454 q 1274 437 1274 454 q 1256 419 1274 419 l 1169 424 q 1093 419 1136 419 q 1076 437 1076 419 q 1092 454 1076 454 l 1104 456 q 1129 481 1129 460 l 1124 833 l 921 429 q 906 418 915 418 q 892 429 897 418 l 688 821 l 683 481 q 708 457 686 461 l 719 454 q 738 438 738 454 q 718 421 738 421 l 656 424 l 582 421 q 564 438 564 421 q 569 449 564 443 q 579 454 574 454 l 601 457 q 629 481 629 463 l 639 914 q 615 938 640 935 l 600 939 q 586 958 586 943 q 604 974 586 974 l 675 972 q 710 954 699 971 l 921 536 l 1129 960 q 1161 972 1135 971 l 1233 974 q 1251 957 1251 974 q 1238 939 1251 940 l 1222 938 q 1199 914 1199 935 l 1208 481 q 1235 456 1208 458 m 286 424 q 192 419 244 419 q 174 437 174 419 q 189 454 174 454 l 218 456 q 246 481 246 458 l 246 908 q 233 922 246 922 l 169 922 q 82 843 106 922 q 63 831 76 831 q 42 851 42 831 l 49 950 q 72 972 49 972 l 494 972 q 519 946 517 972 q 524 899 521 931 q 528 851 526 867 q 510 831 528 831 q 486 849 492 831 q 453 903 472 885 q 400 922 435 922 l 336 922 q 324 908 324 922 l 324 481 q 351 456 324 458 l 374 454 q 390 437 390 454 q 372 419 390 419 l 286 424 z "},"−":{"ha":936,"x_min":83,"x_max":853,"o":"m 836 367 l 100 367 q 83 382 83 367 l 83 438 q 100 453 83 453 l 836 453 q 853 438 853 453 l 853 382 q 836 367 853 367 z "},"∞":{"ha":1092,"x_min":69,"x_max":1022,"o":"m 526 300 q 414 179 472 222 q 272 136 356 136 q 128 204 188 136 q 69 379 69 272 q 136 565 69 486 q 297 644 203 644 q 451 601 392 644 q 565 481 511 558 q 678 601 619 558 q 820 644 736 644 q 963 576 904 644 q 1022 401 1022 508 q 956 215 1022 294 q 794 136 889 136 q 640 179 700 136 q 526 300 581 222 m 485 363 q 387 482 433 442 q 276 522 340 522 q 171 479 211 522 q 131 370 131 436 q 172 259 131 304 q 277 214 214 214 q 388 252 340 214 q 485 363 436 290 m 607 418 q 705 299 658 339 q 816 258 751 258 q 921 301 881 258 q 961 410 961 344 q 919 522 961 476 q 815 567 878 567 q 703 528 751 567 q 607 418 656 490 z "},"≈":{"ha":971,"x_min":110,"x_max":861,"o":"m 332 539 q 182 449 246 539 q 158 443 172 435 l 119 468 q 111 478 111 472 q 118 497 111 485 q 342 632 201 632 q 497 587 407 632 q 639 542 588 542 q 789 632 725 542 q 801 640 794 640 q 813 638 807 640 l 851 613 q 860 603 860 608 q 853 583 860 596 q 629 449 769 449 q 473 494 568 449 q 332 539 378 539 m 332 272 q 182 182 246 272 q 170 174 176 174 q 158 176 164 174 l 119 201 q 111 211 111 206 q 118 231 111 218 q 342 365 201 365 q 497 320 407 365 q 639 275 588 275 q 789 365 725 275 q 801 374 794 374 q 813 371 807 374 l 851 346 q 860 336 860 342 q 853 317 860 329 q 629 182 769 182 q 473 227 568 182 q 332 272 378 272 z "},"≠":{"ha":992,"x_min":111,"x_max":881,"o":"m 864 594 q 881 579 881 594 l 881 524 q 864 508 881 508 l 619 508 l 458 311 l 864 311 q 881 296 881 311 l 881 240 q 864 225 881 225 l 388 225 l 217 17 q 192 0 203 0 l 136 0 q 126 6 129 0 q 128 17 124 11 l 299 225 l 128 225 q 111 240 111 225 l 111 296 q 128 311 111 311 l 369 311 l 531 508 l 128 508 q 111 524 111 508 l 111 579 q 128 594 111 594 l 601 594 l 774 803 q 799 819 788 819 l 854 819 q 864 814 861 819 q 863 803 867 808 l 690 594 l 864 594 z "},"":{"ha":342,"x_min":83,"x_max":258,"o":"m 108 -454 q 83 -431 83 -454 q 93 -411 83 -418 q 169 -285 165 -357 q 106 -258 128 -282 q 83 -198 83 -233 q 108 -137 83 -162 q 169 -111 133 -111 q 232 -140 206 -111 q 258 -231 258 -169 q 217 -356 258 -292 q 128 -447 175 -419 q 108 -454 117 -454 z "},"ﬁ":{"ha":875,"x_min":28,"x_max":826,"o":"m 610 625 l 267 625 q 254 610 254 625 l 254 92 q 272 51 254 67 q 318 35 290 36 l 368 32 q 385 13 385 31 q 364 -6 385 -6 l 203 0 l 71 -6 q 50 13 50 -6 q 67 32 50 31 l 90 35 q 146 92 146 42 l 146 610 q 129 625 146 625 l 44 625 q 28 643 28 625 l 28 654 q 44 671 28 668 l 122 690 q 146 715 146 696 l 146 721 q 244 997 146 883 q 499 1111 343 1111 q 592 1099 551 1111 q 651 1072 633 1086 q 669 1047 669 1057 l 669 957 q 663 941 669 949 q 645 933 657 933 q 619 957 633 933 q 456 1044 569 1044 q 310 981 367 1044 q 254 810 254 918 l 254 710 q 268 694 254 694 l 521 694 q 678 706 586 694 l 706 710 q 731 678 731 713 l 731 92 q 786 35 731 42 l 810 32 q 826 13 826 31 q 806 -6 826 -6 l 674 0 l 524 -6 q 503 13 503 -6 q 519 32 503 31 l 558 35 q 604 52 586 38 q 622 92 622 67 l 622 610 q 610 625 622 625 z "},"ﬂ":{"ha":875,"x_min":28,"x_max":826,"o":"m 708 1111 q 731 1079 731 1111 l 731 92 q 786 35 731 42 l 810 32 q 826 13 826 31 q 806 -6 826 -6 l 674 0 l 524 -6 q 503 13 503 -6 q 519 32 503 31 l 558 35 q 604 52 586 38 q 622 92 622 67 l 622 911 q 580 1010 622 976 q 460 1044 538 1044 q 319 980 383 1044 q 254 810 254 915 l 254 710 q 268 694 254 694 l 476 694 q 492 678 494 694 l 486 643 q 469 625 483 625 l 267 625 q 254 610 254 625 l 254 92 q 272 51 254 67 q 318 35 290 36 l 368 32 q 385 13 385 31 q 364 -6 385 -6 l 203 0 l 71 -6 q 50 13 50 -6 q 67 32 50 31 l 90 35 q 146 92 146 42 l 146 610 q 129 625 146 625 l 44 625 q 28 643 28 625 l 28 654 q 44 671 28 668 l 122 690 q 146 715 146 696 l 146 721 q 250 996 146 881 q 501 1111 354 1111 q 600 1097 556 1111 l 706 1111 q 708 1111 707 1111 z "}}}
